<?xml version="1.0" encoding="UTF-8" standalone="no"?>
<svg
   xmlns:dc="http://purl.org/dc/elements/1.1/"
   xmlns:cc="http://creativecommons.org/ns#"
   xmlns:rdf="http://www.w3.org/1999/02/22-rdf-syntax-ns#"
   xmlns:svg="http://www.w3.org/2000/svg"
   xmlns="http://www.w3.org/2000/svg"
   id="svg959"
   version="1.2"
   viewBox="0 0 262.125 227.6992"
   height="227.6992pt"
   width="262.125pt">
  <metadata
     id="metadata965">
    <rdf:RDF>
      <cc:Work
         rdf:about="">
        <dc:format>image/svg+xml</dc:format>
        <dc:type
           rdf:resource="http://purl.org/dc/dcmitype/StillImage" />
        <dc:title></dc:title>
      </cc:Work>
    </rdf:RDF>
  </metadata>
  <defs
     id="defs963" />
  <path
     style="fill:#e4214e;fill-opacity:1;fill-rule:nonzero;stroke:none" d="M
131.05078,0 22.75,187.625 c 7.96094,0 6.70703,-5.6485 10.47656,-5.6485
3.98438,0.012 3.24219,2.8243 7,2.8243 1.92969,0 3.47656,-1.9141 3.47266,-6.6485
0,-6.3164 1.57031,-9.5273 3.5,-9.5273 1.93359,0 3.5,2.8125 3.5,5.625 0,3.539
1.57031,6.3515 3.5,6.3515 1.93359,0 3.5,-4.7851 3.5,-10.6992 l -0.0234,-6.7773 c
0,-8.1758 1.57031,-14.8008 3.5,-14.8008 1.92969,0 3.50391,2.8633 3.5,12.125
0,7.3633 1.57031,14.7031 3.5,14.7031 1.92969,0 3.50391,-8.5429 3.5,-22.25
0,-15.8398 1.54297,-26.0781 3.47656,-26.0781 1.92969,0 3.5,10.2461 3.5,20.3516
0,11.8007 1.56641,23.4257 3.5,23.4257 1.92969,0 3.5,-11.625 3.5,-27.75
0,-17.3125 1.54297,-29.9023 3.47266,-29.9023 1.92969,0 3.50391,12.5898
3.5,27.0508 0,15.1758 1.57031,28.3515 3.5,28.3515 1.92969,0 3.5,-13.164
3.5,-30.0273 0,-16.8594 1.54297,-30.2734 3.47656,-30.2734 1.92969,0 3.5,13.414
3.5,30 0,16.5859 1.56641,29.9765 3.5,29.9765 1.92969,0 3.5,-13.3984 3.5,-29.4023
0,-15.6524 1.54297,-28.7735 3.47266,-28.7735 1.93359,0 3.5,13.1133 3.5,30.2227
0,16.4883 1.57031,29.1016 3.5,29.1016 1.93359,0 3.5039,-12.6133 3.5,-26.875
0,-13.4024 1.54687,-25.3008 3.47656,-25.3008 1.92969,0 3.50391,11.9219
3.5,28.1758 0,15.2109 1.57031,26.25 3.5,26.25 1.92969,0 3.50391,-11.043
3.5,-22.9258 0,-10.7031 1.54297,-20.8242 3.47656,-20.8242 1.92969,0 3.5,10.1171
3.4961,24.4765 0,13.0938 1.57031,22.1719 3.5,22.1719 1.93359,0 3.5039,-9.0703
3.5039,-18.3242 0,-7.9492 1.54297,-15.9727 3.47266,-15.9727 1.92969,0 3.5,8.0156
3.5,19.875 0,10.5508 1.57031,17.5235 3.5,17.5235 1.92969,0 3.5,-6.1329
3.5,-12.8243 0,-6.9062 1.57031,-12.1992 3.5,-12.1992 1.92969,0 3.47656,5.9297
3.47656,15.0742 0,7.9297 1.56641,12.8985 3.5,12.8985 1.92969,0 3.5,-4.1094
3.5,-8.25 0,-4.2696 1.56641,-8.4492 3.5,-8.4492 1.92969,0 3.47266,4.039
3.47266,10.5742 0,5.4961 1.57031,8.6992 3.5,8.6992 1.93359,0 3.5,-2.2305
3.5,-4.8242 0,-3.4102 1.57031,-4.9727 3.5,-4.9727 1.93359,0 3.47656,2.3399
3.47656,6.6719 0,3.418 1.57031,5.2031 3.5,5.2031 3.65234,0 3.15625,-4.5469
7,-4.5781 4.20313,0 2.97266,6.1016 6.97656,6.1016 2.88282,0 5.11719,-1.1133
7,-1.125 3.1211,0 3.33985,2.1992 10.47266,2.1992 z m 0,0" id="path892" />
  <path
     style="fill:#212a30;fill-opacity:1;fill-rule:nonzero;stroke:none" d="m
184.92578,193.6758 v 17.0234 c 0,9.8008 6.40625,17 17.02344,17 10.62109,0
17.02734,-7.1992 17.02734,-17 v -17.0234 h -7 v 16.125 c 0,8.9609
-4.79297,11.8515 -10.02734,11.8515 -5.23438,0 -10.02344,-2.8906
-10.02344,-11.8515 v -16.125 z m 42.25,0 V 227 h 7 v -11.0977 l 13.84766,0.024
6.40234,11.0742 h 7.69922 l -7.32422,-12.6758 c 3.19922,-1.9375 5.34766,-5.4531
5.34766,-9.5234 0,-6.211 -5.01953,-11.125 -11.09766,-11.125 z m 7,6.0507 h
14.125 c 2.60156,0 5.05078,2.0157 5.05078,5.0743 0,3.0586 -2.44922,5.0781
-5.05078,5.0742 l -14.125,-0.024 z M 52.83594,193.6758 V 227 h 7 v -11.0977 l
13.85156,0.024 6.39844,11.0742 h 7.70312 l -7.32812,-12.6758 c 3.19922,-1.9375
5.35156,-5.4531 5.35156,-9.5234 0,-6.211 -5.01953,-11.125 -11.10156,-11.125 z m
7,6.0507 h 14.125 c 2.60547,0 5.05078,2.0157 5.05078,5.0743 0,3.0586
-2.44531,5.0781 -5.05078,5.0742 l -14.125,-0.024 z M 19.25,193.6758 0,227 h
7.69922 l 4.57422,-7.8985 h 22.25 L 39.10156,227 h 7.69922 l -19.25,-33.3242 z m
4.14844,6.1484 7.65234,13.2266 H 15.75 Z m 134.01562,-6.8477 c -15.14062,0
-20.39844,10.0664 -20.39844,17.3477 0,7.2852 5.25782,17.375 20.39844,17.375
15.14453,0 20.40235,-10.0898 20.40235,-17.375 0,-7.2813 -5.25782,-17.3477
-20.40235,-17.3477 z m 0,6.0508 c 7.75,0 13.60156,4.4492 13.60156,11.2969
0,6.8516 -5.85156,11.3281 -13.60156,11.3281 -7.74609,0 -13.59765,-4.4765
-13.59765,-11.3281 0,-6.8477 5.85156,-11.2969 13.59765,-11.2969 z M
95.52344,193.6758 V 227 h 18.28125 c 9.66797,0 16.6914,-7.9414 16.6914,-16.6602
0,-8.7187 -7.0625,-16.664 -16.6914,-16.664 z m 7,6.0742 h 10.53125 c 5.77734,0
10.64062,4.5937 10.64062,10.5898 0,5.9922 -4.88672,10.586 -10.64062,10.586 h
-10.53125 z m 0,0" id="path894" />
</svg>
