<?xml version="1.0" encoding="UTF-8" standalone="no"?>
<!-- Created with Inkscape (http://www.inkscape.org/) -->

<svg
   width="32.279167mm"
   height="109.27293mm"
   viewBox="0 0 32.279167 109.27293"
   version="1.1"
   id="svg1"
   xml:space="preserve"
   inkscape:version="1.4 (e7c3feb100, 2024-10-09)"
   sodipodi:docname="presonus-faderport8.svg"
   inkscape:export-filename="fp8_shift_large.svg"
   inkscape:export-xdpi="96"
   inkscape:export-ydpi="96"
   xmlns:inkscape="http://www.inkscape.org/namespaces/inkscape"
   xmlns:sodipodi="http://sodipodi.sourceforge.net/DTD/sodipodi-0.dtd"
   xmlns="http://www.w3.org/2000/svg"
   xmlns:svg="http://www.w3.org/2000/svg"><sodipodi:namedview
     id="namedview1"
     pagecolor="#ffffff"
     bordercolor="#000000"
     borderopacity="0.25"
     inkscape:showpageshadow="2"
     inkscape:pageopacity="0.0"
     inkscape:pagecheckerboard="0"
     inkscape:deskcolor="#d1d1d1"
     inkscape:document-units="mm"
     showguides="true"
     inkscape:zoom="0.70710678"
     inkscape:cx="1577.5552"
     inkscape:cy="566.39253"
     inkscape:window-width="1280"
     inkscape:window-height="683"
     inkscape:window-x="0"
     inkscape:window-y="0"
     inkscape:window-maximized="1"
     inkscape:current-layer="layer1"><sodipodi:guide
       position="-275.58159,55.501924"
       orientation="1,0"
       id="guide5"
       inkscape:locked="false" /><sodipodi:guide
       position="-303.79512,63.165966"
       orientation="1,0"
       id="guide6"
       inkscape:locked="false" /><sodipodi:guide
       position="-247.32975,64.562576"
       orientation="1,0"
       id="guide7"
       inkscape:locked="false" /><sodipodi:guide
       position="-233.71119,41.510908"
       orientation="1,0"
       id="guide8"
       inkscape:locked="false" /><sodipodi:guide
       position="-314.29059,28.886601"
       orientation="0,-1"
       id="guide9"
       inkscape:locked="false" /><sodipodi:guide
       position="-317.79115,32.387156"
       orientation="1,0"
       id="guide10"
       inkscape:locked="false" /><sodipodi:guide
       position="-186.07861,43.255253"
       orientation="1,0"
       id="guide11"
       inkscape:locked="false" /><sodipodi:guide
       position="-120.39956,43.293681"
       orientation="0,-1"
       id="guide12"
       inkscape:locked="false" /><sodipodi:guide
       position="-146.33366,25.121462"
       orientation="0,-1"
       id="guide13"
       inkscape:locked="false" /><sodipodi:guide
       position="-157.6655,43.255253"
       orientation="1,0"
       id="guide14"
       inkscape:locked="false" /><sodipodi:guide
       position="-129.87241,43.235912"
       orientation="1,0"
       id="guide15"
       inkscape:locked="false" /><sodipodi:guide
       position="-61.328795,81.645047"
       orientation="1,0"
       id="guide16"
       inkscape:locked="false" /><sodipodi:guide
       position="-102.42244,43.293681"
       orientation="1,0"
       id="guide24"
       inkscape:locked="false" /><sodipodi:guide
       position="-61.428395,81.334395"
       orientation="0,-1"
       id="guide25"
       inkscape:locked="false" /><sodipodi:guide
       position="-61.328795,60.575454"
       orientation="0,-1"
       id="guide26"
       inkscape:locked="false" /><sodipodi:guide
       position="-61.328795,40.233088"
       orientation="0,-1"
       id="guide27"
       inkscape:locked="false" /><sodipodi:guide
       position="-61.328795,19.627956"
       orientation="0,-1"
       id="guide28"
       inkscape:locked="false" /><sodipodi:guide
       position="-18.613555,81.334396"
       orientation="1,0"
       id="guide29"
       inkscape:locked="false" /><sodipodi:guide
       position="-18.613555,-0.71329279"
       orientation="0,-1"
       id="guide32"
       inkscape:locked="false" /><sodipodi:guide
       position="-208.07418,0.66146523"
       orientation="1,0"
       id="guide33"
       inkscape:locked="false" /><sodipodi:guide
       position="-96.684575,0.66146331"
       orientation="1,0"
       id="guide34"
       inkscape:locked="false" /><sodipodi:guide
       position="-173.73792,-18.808229"
       orientation="1,0"
       id="guide35"
       inkscape:locked="false" /><sodipodi:guide
       position="-140.9049,-30.898168"
       orientation="1,0"
       id="guide36"
       inkscape:locked="false" /><sodipodi:guide
       position="-108.20986,-31.441098"
       orientation="1,0"
       id="guide37"
       inkscape:locked="false" /><sodipodi:guide
       position="-108.20986,-18.262491"
       orientation="0,-1"
       id="guide38"
       inkscape:locked="false" /><sodipodi:guide
       position="-108.20986,-43.025851"
       orientation="0,-1"
       id="guide39"
       inkscape:locked="false" /><sodipodi:guide
       position="-196.39032,-23.25243"
       orientation="1,0"
       id="guide40"
       inkscape:locked="false" /><sodipodi:guide
       position="-163.78323,-30.000114"
       orientation="1,0"
       id="guide41"
       inkscape:locked="false" /><sodipodi:guide
       position="-131.03876,-28.870339"
       orientation="1,0"
       id="guide42"
       inkscape:locked="false" /><sodipodi:guide
       position="-186.07861,-110.54348"
       orientation="0,-1"
       id="guide43"
       inkscape:locked="false" /><sodipodi:guide
       position="-79.328115,78.537946"
       orientation="1,0"
       id="guide69"
       inkscape:locked="false" /><sodipodi:guide
       position="-64.980485,74.239746"
       orientation="0,-1"
       id="guide70"
       inkscape:locked="false" /><sodipodi:guide
       position="-71.019105,77.355278"
       orientation="0,-1"
       id="guide71"
       inkscape:locked="false" /><sodipodi:guide
       position="-116.76352,73.093169"
       orientation="1,0"
       id="guide93"
       inkscape:locked="false" /><inkscape:page
       x="-1.8008943e-06"
       y="1.5841306e-24"
       width="32.279167"
       height="109.27292"
       id="page116"
       margin="0"
       bleed="0"
       inkscape:label="fp8_misc"
       inkscape:export-filename="fp8_misc.png"
       inkscape:export-xdpi="96"
       inkscape:export-ydpi="96" /><sodipodi:guide
       position="1.9499947,82.814587"
       orientation="1,0"
       id="guide117"
       inkscape:locked="false" /><sodipodi:guide
       position="30.443795,85.162249"
       orientation="1,0"
       id="guide118"
       inkscape:locked="false" /><sodipodi:guide
       position="6.9688747,69.949385"
       orientation="1,0"
       id="guide119"
       inkscape:locked="false" /><sodipodi:guide
       position="24.945995,69.949385"
       orientation="1,0"
       id="guide120"
       inkscape:locked="false" /><sodipodi:guide
       position="30.443795,44.601492"
       orientation="0,-1"
       id="guide128"
       inkscape:locked="false" /><sodipodi:guide
       position="32.279165,42.548058"
       orientation="0,-1"
       id="guide129"
       inkscape:locked="false" /><sodipodi:guide
       position="28.791055,-19.427241"
       orientation="0,-1"
       id="guide130"
       inkscape:locked="false" /><sodipodi:guide
       position="143.22603,71.352672"
       orientation="1,0"
       id="guide140"
       inkscape:locked="false" /><sodipodi:guide
       position="114.30002,-15.655244"
       orientation="0,-1"
       id="guide217"
       inkscape:locked="false" /></sodipodi:namedview><defs
     id="defs1" /><g
     inkscape:label="Layer 1"
     inkscape:groupmode="layer"
     id="layer1"
     transform="translate(-323.01664,-40.811978)"><g
       id="g117"
       transform="translate(6.3499683)"><rect
         style="font-variation-settings:normal;opacity:1;vector-effect:none;fill:#2c2b30;fill-opacity:1;stroke:none;stroke-width:0.79375;stroke-linecap:round;stroke-linejoin:round;stroke-miterlimit:4;stroke-dasharray:none;stroke-dashoffset:0;stroke-opacity:1;-inkscape-stroke:none;stop-color:#000000;stop-opacity:1"
         id="rect116"
         width="32.279167"
         height="109.27292"
         x="316.6666"
         y="40.811977"
         rx="0"
         ry="0" /><rect
         style="font-variation-settings:normal;display:inline;vector-effect:none;fill:#516070;fill-opacity:1;stroke:none;stroke-width:0.79375;stroke-linecap:butt;stroke-linejoin:miter;stroke-miterlimit:4;stroke-dasharray:none;stroke-dashoffset:0;stroke-opacity:1;-inkscape-stroke:none;stop-color:#000000"
         id="rect117"
         width="28.493805"
         height="42.016479"
         x="318.61658"
         y="42.300259"
         ry="1.8355469"
         rx="1.8355469"
         inkscape:label="fp8_fadermode_bg2" /><rect
         style="font-variation-settings:normal;display:inline;vector-effect:none;fill:#516070;fill-opacity:1;stroke:none;stroke-width:0.79375;stroke-linecap:butt;stroke-linejoin:miter;stroke-miterlimit:4;stroke-dasharray:none;stroke-dashoffset:0;stroke-opacity:1;-inkscape-stroke:none;stop-color:#000000"
         id="rect129"
         width="28.493805"
         height="62.918564"
         x="318.61658"
         y="85.434364"
         ry="1.8355469"
         rx="1.8355469"
         inkscape:label="fp8_fadermode_bg2" /></g><rect
       style="font-variation-settings:normal;opacity:1;vector-effect:none;fill:#fbc51b;fill-opacity:1;stroke:#e28717;stroke-width:0.79375;stroke-linecap:butt;stroke-linejoin:miter;stroke-miterlimit:4;stroke-dasharray:none;stroke-dashoffset:0;stroke-opacity:1;-inkscape-stroke:none;stop-color:#000000;stop-opacity:1"
       id="rect118"
       width="17.183376"
       height="10.921993"
       x="330.38242"
       y="47.649979"
       rx="0"
       ry="1.2637023" /><g
       id="text118"
       style="font-size:4.35208px;font-family:'Droid Sans';-inkscape-font-specification:'Droid Sans';fill:#1e1e1e;stroke-width:0.529166"
       aria-label="Solo&#10;Clear"><path
         style="font-weight:bold;text-align:center;text-anchor:middle"
         d="m 336.98598,51.890797 q 0,0.208254 -0.0722,0.376132 -0.0701,0.165753 -0.20826,0.284755 -0.136,0.116877 -0.33575,0.180629 -0.19763,0.06375 -0.45476,0.06375 -0.22526,0 -0.43564,-0.04675 -0.20825,-0.04675 -0.38675,-0.140253 v -0.612011 q 0.102,0.04888 0.20613,0.09563 0.10412,0.04463 0.21037,0.08075 0.10838,0.03613 0.21463,0.05738 0.10838,0.02125 0.21463,0.02125 0.10838,0 0.18488,-0.02338 0.0786,-0.0255 0.12538,-0.068 0.0489,-0.04463 0.0701,-0.104127 0.0234,-0.06163 0.0234,-0.133877 0,-0.08713 -0.0383,-0.153003 -0.0361,-0.068 -0.10413,-0.125377 -0.0659,-0.0595 -0.1615,-0.114753 -0.0935,-0.05525 -0.21038,-0.116877 -0.0978,-0.051 -0.21888,-0.123252 -0.12113,-0.07225 -0.2295,-0.178503 -0.10625,-0.108377 -0.17851,-0.259255 -0.0722,-0.153003 -0.0722,-0.365507 0,-0.208254 0.068,-0.371882 0.0701,-0.165753 0.19763,-0.27838 0.12751,-0.114752 0.30813,-0.174253 0.18276,-0.0595 0.40801,-0.0595 0.11263,0 0.21888,0.01487 0.10838,0.01488 0.2125,0.0425 0.10626,0.02763 0.21251,0.068 0.10625,0.04038 0.21888,0.0935 l -0.21251,0.512135 q -0.0956,-0.04463 -0.1785,-0.07863 -0.0829,-0.034 -0.1615,-0.05738 -0.0786,-0.02338 -0.15513,-0.034 -0.0744,-0.01275 -0.15088,-0.01275 -0.16575,0 -0.255,0.08925 -0.0871,0.08713 -0.0871,0.233754 0,0.07863 0.0255,0.140253 0.0276,0.0595 0.085,0.112627 0.0595,0.05313 0.15088,0.108377 0.0935,0.05525 0.22525,0.125377 0.15938,0.085 0.29326,0.174253 0.13388,0.08713 0.2295,0.195504 0.0978,0.106252 0.15088,0.242254 0.0531,0.136003 0.0531,0.318756 z m 1.00062,-0.329381 q 0,0.354882 0.0999,0.53551 0.0999,0.178503 0.32513,0.178503 0.22313,0 0.323,-0.180628 0.0999,-0.180628 0.0999,-0.533385 0,-0.354881 -0.0999,-0.529135 -0.0999,-0.176378 -0.32725,-0.176378 -0.22313,0 -0.32301,0.176378 -0.0977,0.174254 -0.0977,0.529135 z m 1.50878,0 q 0,0.297506 -0.0765,0.52701 -0.0744,0.229504 -0.21676,0.386757 -0.14025,0.157253 -0.34425,0.240129 -0.20188,0.08075 -0.45476,0.08075 -0.23588,0 -0.43351,-0.08075 -0.19763,-0.08288 -0.34213,-0.240129 -0.14238,-0.157253 -0.22313,-0.386757 -0.0807,-0.229504 -0.0807,-0.52701 0,-0.29538 0.0744,-0.524885 0.0765,-0.229504 0.21676,-0.384632 0.14238,-0.157253 0.34426,-0.238004 0.20187,-0.08075 0.45688,-0.08075 0.23588,0 0.43351,0.08075 0.19763,0.08075 0.34,0.238004 0.14451,0.155128 0.22526,0.384632 0.0808,0.229505 0.0808,0.524885 z m 1.00858,1.192147 h -0.64813 v -3.306561 h 0.64813 z m 1.08748,-1.192147 q 0,0.354882 0.0999,0.53551 0.0999,0.178503 0.32513,0.178503 0.22313,0 0.32301,-0.180628 0.0999,-0.180628 0.0999,-0.533385 0,-0.354881 -0.0999,-0.529135 -0.0999,-0.176378 -0.32726,-0.176378 -0.22313,0 -0.323,0.176378 -0.0978,0.174254 -0.0978,0.529135 z m 1.50878,0 q 0,0.297506 -0.0765,0.52701 -0.0744,0.229504 -0.21675,0.386757 -0.14026,0.157253 -0.34426,0.240129 -0.20188,0.08075 -0.45476,0.08075 -0.23588,0 -0.43351,-0.08075 -0.19763,-0.08288 -0.34213,-0.240129 -0.14238,-0.157253 -0.22313,-0.386757 -0.0808,-0.229504 -0.0808,-0.52701 0,-0.29538 0.0744,-0.524885 0.0765,-0.229504 0.21675,-0.384632 0.14238,-0.157253 0.34426,-0.238004 0.20188,-0.08075 0.45688,-0.08075 0.23588,0 0.43351,0.08075 0.19763,0.08075 0.34001,0.238004 0.1445,0.155128 0.22525,0.384632 0.0807,0.229505 0.0807,0.524885 z"
         id="path222" /><path
         style="font-weight:bold;text-align:center;text-anchor:middle"
         d="m 335.70432,54.00299 q -0.18912,0 -0.33575,0.07438 -0.1445,0.07225 -0.24438,0.210379 -0.0978,0.136003 -0.14875,0.333631 -0.051,0.195504 -0.051,0.439883 0,0.24863 0.0446,0.442009 0.0467,0.193378 0.14025,0.327256 0.0956,0.131752 0.24226,0.201878 0.14875,0.068 0.35275,0.068 0.18913,0 0.37826,-0.0425 0.19126,-0.0425 0.41438,-0.121127 v 0.55251 q -0.102,0.0425 -0.20187,0.07225 -0.0999,0.02975 -0.20401,0.04888 -0.10412,0.01912 -0.21463,0.02763 -0.10837,0.01063 -0.23375,0.01063 -0.35913,0 -0.62264,-0.114753 -0.2635,-0.114752 -0.43563,-0.323005 -0.17213,-0.208254 -0.25501,-0.50151 -0.0829,-0.293255 -0.0829,-0.652387 0,-0.352756 0.0956,-0.646011 0.0956,-0.295381 0.28051,-0.507885 0.18488,-0.212504 0.45688,-0.329381 0.27201,-0.119002 0.62476,-0.119002 0.23163,0 0.46326,0.0595 0.23376,0.05738 0.44626,0.159378 l -0.2125,0.53551 q -0.17426,-0.08288 -0.35063,-0.144503 -0.17638,-0.06163 -0.34639,-0.06163 z m 1.85223,2.603173 h -0.64814 v -3.306561 h 0.64814 z m 1.44209,-1.959286 q -0.17213,0 -0.28688,0.121127 -0.11262,0.121127 -0.12962,0.380382 h 0.82664 q -0.002,-0.108377 -0.0276,-0.199754 -0.0255,-0.09138 -0.0765,-0.157253 -0.051,-0.068 -0.1275,-0.106251 -0.0765,-0.03825 -0.17851,-0.03825 z m 0.0829,2.001787 q -0.25501,0 -0.46963,-0.07438 -0.21463,-0.07438 -0.36976,-0.223129 -0.15513,-0.150878 -0.24226,-0.378257 -0.085,-0.229504 -0.085,-0.537635 0,-0.31238 0.0786,-0.546135 0.0786,-0.233754 0.21888,-0.388882 0.14238,-0.157253 0.34,-0.235879 0.19976,-0.07863 0.44201,-0.07863 0.23588,0 0.42501,0.07225 0.19125,0.07013 0.32301,0.208254 0.13387,0.138127 0.204,0.340006 0.0722,0.199753 0.0722,0.459008 v 0.314506 h -1.44928 q 0.004,0.136002 0.0425,0.246504 0.0404,0.108377 0.1105,0.184879 0.0722,0.07438 0.17213,0.114752 0.102,0.04038 0.23162,0.04038 0.10838,0 0.20401,-0.01062 0.0978,-0.01275 0.18913,-0.03613 0.0914,-0.02338 0.18063,-0.05738 0.0892,-0.03613 0.18275,-0.08288 v 0.501509 q -0.085,0.04463 -0.17213,0.0765 -0.085,0.02975 -0.18063,0.051 -0.0956,0.02125 -0.20613,0.02975 -0.1105,0.01063 -0.24225,0.01063 z m 2.66611,-0.0425 -0.12537,-0.323006 h -0.0191 q -0.0701,0.09563 -0.14025,0.165753 -0.0701,0.068 -0.153,0.112627 -0.0829,0.04463 -0.18701,0.06588 -0.102,0.02125 -0.238,0.02125 -0.1445,0 -0.26776,-0.04463 -0.12325,-0.04675 -0.21463,-0.138128 -0.0893,-0.0935 -0.14025,-0.233754 -0.051,-0.142378 -0.051,-0.335756 0,-0.378257 0.24226,-0.55676 0.24225,-0.180629 0.72463,-0.199754 l 0.37826,-0.01275 v -0.178504 q 0,-0.146627 -0.085,-0.216754 -0.085,-0.07013 -0.23801,-0.07013 -0.153,0 -0.29963,0.04463 -0.1445,0.04463 -0.29113,0.119002 l -0.21038,-0.429258 q 0.17851,-0.09988 0.39526,-0.157253 0.21676,-0.05738 0.45476,-0.05738 0.44413,0 0.68001,0.208254 0.23801,0.208254 0.23801,0.633262 v 1.583154 z m -0.19125,-1.10077 -0.21463,0.0085 q -0.12963,0.0042 -0.21888,0.034 -0.0892,0.02975 -0.1445,0.08075 -0.0531,0.04888 -0.0786,0.119002 -0.0234,0.068 -0.0234,0.153003 0,0.148753 0.0722,0.212504 0.0722,0.06163 0.18913,0.06163 0.0892,0 0.16575,-0.02975 0.0765,-0.03187 0.13175,-0.09138 0.0574,-0.06163 0.0892,-0.148753 0.0319,-0.08925 0.0319,-0.204004 z m 2.35161,-1.31965 q 0.0255,0 0.0553,0.0021 0.0319,0 0.0595,0.0042 0.0297,0.0021 0.0531,0.0064 0.0255,0.0021 0.0383,0.0064 v 0.607761 q -0.017,-0.0042 -0.0468,-0.0085 -0.0297,-0.0042 -0.0637,-0.0064 -0.0319,-0.0042 -0.0638,-0.0042 -0.0319,-0.0021 -0.0531,-0.0021 -0.12538,0 -0.23163,0.03188 -0.10413,0.03188 -0.18063,0.104127 -0.0744,0.07013 -0.11687,0.187003 -0.0404,0.114753 -0.0404,0.282631 v 1.209147 h -0.64814 v -2.375794 h 0.49089 l 0.0956,0.357007 h 0.0319 q 0.051,-0.09138 0.1105,-0.165753 0.0595,-0.07438 0.13175,-0.125378 0.0744,-0.05313 0.16576,-0.08075 0.0935,-0.02975 0.2125,-0.02975 z"
         id="path223" /></g><rect
       style="font-variation-settings:normal;opacity:1;vector-effect:none;fill:#fbc51b;fill-opacity:1;stroke:#e28717;stroke-width:0.79375;stroke-linecap:butt;stroke-linejoin:miter;stroke-miterlimit:4;stroke-dasharray:none;stroke-dashoffset:0;stroke-opacity:1;-inkscape-stroke:none;stop-color:#000000;stop-opacity:1"
       id="rect120"
       width="17.183376"
       height="10.921993"
       x="330.38242"
       y="89.094612"
       rx="0"
       ry="1.2637023" /><path
       style="font-weight:bold;font-size:4.35208px;font-family:'Droid Sans';-inkscape-font-specification:'Droid Sans';text-align:center;text-anchor:middle;fill:#1e1e1e;stroke-width:0.529166"
       d="m 332.65808,92.678868 h 0.90952 q 0.29325,0 0.51426,0.0425 0.221,0.04038 0.36975,0.133877 0.14876,0.09138 0.22313,0.242255 0.0765,0.148752 0.0765,0.367631 0,0.131753 -0.0319,0.246505 -0.0319,0.114752 -0.0935,0.201879 -0.0616,0.08713 -0.15088,0.146627 -0.0871,0.05738 -0.20188,0.0765 v 0.02125 q 0.11688,0.0255 0.21676,0.07438 0.102,0.04675 0.17637,0.131752 0.0765,0.08288 0.11901,0.210379 0.0446,0.127502 0.0446,0.310256 0,0.212503 -0.0744,0.380381 -0.0744,0.165754 -0.21462,0.282631 -0.13813,0.114752 -0.33789,0.176378 -0.19762,0.06163 -0.44838,0.06163 h -1.09652 z m 0.65876,1.230398 h 0.34213 q 0.12326,0 0.20613,-0.02125 0.0829,-0.02338 0.13388,-0.068 0.051,-0.04463 0.0722,-0.110502 0.0234,-0.068 0.0234,-0.157253 0,-0.178503 -0.11263,-0.255005 -0.1105,-0.07863 -0.35276,-0.07863 h -0.31238 z m 0,0.522759 v 0.80964 h 0.38676 q 0.12963,0 0.21675,-0.02975 0.0893,-0.02975 0.14238,-0.085 0.0553,-0.05525 0.0786,-0.133877 0.0234,-0.07863 0.0234,-0.174254 0,-0.08713 -0.0234,-0.157253 -0.0234,-0.07225 -0.0808,-0.123252 -0.0553,-0.051 -0.14663,-0.07863 -0.0914,-0.02763 -0.22738,-0.02763 z m 1.61237,-1.022144 h 0.70976 l 0.38251,1.33665 q 0.034,0.110502 0.0489,0.235879 0.017,0.125378 0.0213,0.225254 h 0.0127 q 0.004,-0.04887 0.0106,-0.108377 0.008,-0.0595 0.0191,-0.121127 0.0106,-0.06163 0.0234,-0.121127 0.0149,-0.06163 0.0297,-0.110502 l 0.37401,-1.33665 h 0.71401 l -0.93927,2.679675 q -0.13175,0.376132 -0.35913,0.558885 -0.22738,0.182753 -0.56951,0.182753 -0.1105,0 -0.19125,-0.01275 -0.0808,-0.01063 -0.13813,-0.02338 v -0.51426 q 0.0446,0.01062 0.11263,0.01912 0.068,0.0085 0.14238,0.0085 0.102,0 0.17425,-0.02763 0.0722,-0.02763 0.12325,-0.07863 0.0531,-0.04888 0.0892,-0.119002 0.0383,-0.07013 0.0659,-0.157253 l 0.0404,-0.119003 z m 3.80328,2.418295 q -0.11688,0 -0.21038,-0.0255 -0.0914,-0.0255 -0.16363,-0.068 -0.0722,-0.0425 -0.1275,-0.09563 -0.0553,-0.05525 -0.0999,-0.114752 h -0.034 q 0.008,0.07438 0.017,0.140253 0.006,0.05525 0.0106,0.114752 0.006,0.05738 0.006,0.08925 v 0.962642 h -0.64813 v -3.421313 h 0.52701 l 0.0914,0.308131 h 0.0297 q 0.0446,-0.07225 0.10201,-0.136002 0.0574,-0.06375 0.13175,-0.110502 0.0765,-0.04888 0.17213,-0.0765 0.0956,-0.02975 0.2125,-0.02975 0.18488,0 0.33576,0.07863 0.15087,0.07863 0.25925,0.233754 0.10838,0.155128 0.16788,0.384632 0.0595,0.229505 0.0595,0.53126 0,0.303881 -0.0616,0.53551 -0.0616,0.229504 -0.17425,0.386757 -0.1105,0.155128 -0.26563,0.233754 -0.153,0.07863 -0.33788,0.07863 z m -0.20188,-1.944411 q -0.10838,0 -0.18488,0.04038 -0.0744,0.03825 -0.12112,0.116877 -0.0468,0.07863 -0.068,0.199754 -0.0213,0.119002 -0.0255,0.27838 v 0.07013 q 0,0.172128 0.0191,0.306006 0.0212,0.133877 0.068,0.225254 0.0467,0.08925 0.12325,0.136002 0.0786,0.04675 0.19338,0.04675 0.19338,0 0.28263,-0.182753 0.0914,-0.184879 0.0914,-0.53551 0,-0.350631 -0.0914,-0.524885 -0.0892,-0.176378 -0.28688,-0.176378 z m 2.77874,1.90191 -0.12537,-0.323006 h -0.0191 q -0.0701,0.09563 -0.14025,0.165753 -0.0701,0.068 -0.15301,0.112627 -0.0829,0.04463 -0.187,0.06588 -0.102,0.02125 -0.238,0.02125 -0.14451,0 -0.26776,-0.04463 -0.12325,-0.04675 -0.21463,-0.138128 -0.0892,-0.0935 -0.14025,-0.233754 -0.051,-0.142377 -0.051,-0.335756 0,-0.378257 0.24225,-0.55676 0.24226,-0.180629 0.72464,-0.199754 l 0.37826,-0.01275 v -0.178503 q 0,-0.146628 -0.085,-0.216754 -0.085,-0.07013 -0.23801,-0.07013 -0.153,0 -0.29963,0.04463 -0.1445,0.04463 -0.29113,0.119002 l -0.21038,-0.429258 q 0.17851,-0.09988 0.39526,-0.157252 0.21675,-0.05738 0.45476,-0.05738 0.44413,0 0.68001,0.208253 0.23801,0.208254 0.23801,0.633262 v 1.583154 z m -0.19125,-1.10077 -0.21463,0.0085 q -0.12963,0.0042 -0.21888,0.034 -0.0892,0.02975 -0.1445,0.08075 -0.0531,0.04888 -0.0786,0.119002 -0.0234,0.068 -0.0234,0.153003 0,0.148753 0.0722,0.212504 0.0722,0.06163 0.18913,0.06163 0.0892,0 0.16575,-0.02975 0.0765,-0.03188 0.13175,-0.09138 0.0574,-0.06163 0.0893,-0.148753 0.0319,-0.08925 0.0319,-0.204004 z m 2.69587,0.395257 q 0,0.187004 -0.068,0.327256 -0.068,0.140253 -0.19337,0.233754 -0.12538,0.0935 -0.30389,0.140253 -0.1785,0.04675 -0.3995,0.04675 -0.11688,0 -0.21676,-0.0085 -0.0999,-0.0064 -0.18912,-0.02338 -0.0893,-0.017 -0.17213,-0.0425 -0.0829,-0.0255 -0.16788,-0.06375 v -0.53551 q 0.0892,0.04463 0.187,0.08075 0.0999,0.03613 0.19763,0.06375 0.0978,0.0255 0.18913,0.04038 0.0935,0.01488 0.17213,0.01488 0.0871,0 0.14875,-0.01488 0.0616,-0.017 0.0999,-0.04463 0.0404,-0.02975 0.0574,-0.068 0.0191,-0.04038 0.0191,-0.085 0,-0.04463 -0.0149,-0.07863 -0.0127,-0.03613 -0.0616,-0.07438 -0.0489,-0.04037 -0.14451,-0.08925 -0.0935,-0.051 -0.25288,-0.123252 -0.15512,-0.07013 -0.26988,-0.138128 -0.11262,-0.07013 -0.187,-0.155128 -0.0722,-0.085 -0.10838,-0.193378 -0.0361,-0.110502 -0.0361,-0.26138 0,-0.165753 0.0637,-0.289006 0.0638,-0.125377 0.18063,-0.208253 0.11688,-0.08288 0.2805,-0.123253 0.16576,-0.0425 0.36764,-0.0425 0.2125,0 0.40375,0.04888 0.19126,0.04888 0.39313,0.146627 l -0.1955,0.459009 q -0.1615,-0.0765 -0.30813,-0.125378 -0.14663,-0.04888 -0.29325,-0.04888 -0.13176,0 -0.19126,0.04675 -0.0574,0.04675 -0.0574,0.127503 0,0.0425 0.0149,0.0765 0.0149,0.03188 0.0595,0.068 0.0446,0.034 0.12538,0.0765 0.0808,0.04037 0.21038,0.09988 0.15088,0.06588 0.272,0.131752 0.12113,0.06375 0.20826,0.146628 0.0871,0.08288 0.13387,0.193378 0.0468,0.110502 0.0468,0.267755 z m 1.96087,0 q 0,0.187004 -0.068,0.327256 -0.068,0.140253 -0.19338,0.233754 -0.12538,0.0935 -0.30388,0.140253 -0.17851,0.04675 -0.39951,0.04675 -0.11688,0 -0.21675,-0.0085 -0.0999,-0.0064 -0.18913,-0.02338 -0.0893,-0.017 -0.17213,-0.0425 -0.0829,-0.0255 -0.16788,-0.06375 v -0.53551 q 0.0892,0.04463 0.187,0.08075 0.0999,0.03613 0.19763,0.06375 0.0978,0.0255 0.18913,0.04038 0.0935,0.01488 0.17213,0.01488 0.0871,0 0.14875,-0.01488 0.0616,-0.017 0.0999,-0.04463 0.0404,-0.02975 0.0574,-0.068 0.0191,-0.04038 0.0191,-0.085 0,-0.04463 -0.0149,-0.07863 -0.0127,-0.03613 -0.0616,-0.07438 -0.0489,-0.04037 -0.1445,-0.08925 -0.0935,-0.051 -0.25288,-0.123252 -0.15513,-0.07013 -0.26988,-0.138128 -0.11263,-0.07013 -0.18701,-0.155128 -0.0722,-0.085 -0.10837,-0.193378 -0.0361,-0.110502 -0.0361,-0.26138 0,-0.165753 0.0637,-0.289006 0.0638,-0.125377 0.18063,-0.208253 0.11688,-0.08288 0.28051,-0.123253 0.16575,-0.0425 0.36763,-0.0425 0.2125,0 0.40375,0.04888 0.19126,0.04888 0.39314,0.146627 l -0.19551,0.459009 q -0.1615,-0.0765 -0.30813,-0.125378 -0.14663,-0.04888 -0.29325,-0.04888 -0.13176,0 -0.19126,0.04675 -0.0574,0.04675 -0.0574,0.127503 0,0.0425 0.0149,0.0765 0.0149,0.03188 0.0595,0.068 0.0446,0.034 0.12538,0.0765 0.0808,0.04037 0.21038,0.09988 0.15088,0.06588 0.272,0.131752 0.12113,0.06375 0.20826,0.146628 0.0871,0.08288 0.13388,0.193378 0.0467,0.110502 0.0467,0.267755 z"
       id="text120"
       aria-label="Bypass" /><rect
       style="font-variation-settings:normal;opacity:1;vector-effect:none;fill:#fbc51b;fill-opacity:1;stroke:#e28717;stroke-width:0.79375;stroke-linecap:butt;stroke-linejoin:miter;stroke-miterlimit:4;stroke-dasharray:none;stroke-dashoffset:0;stroke-opacity:1;-inkscape-stroke:none;stop-color:#000000;stop-opacity:1"
       id="rect121"
       width="17.183376"
       height="10.921993"
       x="330.38242"
       y="109.63857"
       rx="0"
       ry="1.2637023" /><path
       style="font-weight:bold;font-size:4.35208px;font-family:'Droid Sans';-inkscape-font-specification:'Droid Sans';text-align:center;text-anchor:middle;fill:#1e1e1e;stroke-width:0.529166"
       d="m 334.60581,116.32964 -0.68213,-2.43742 h -0.0191 q 0.0128,0.19551 0.0213,0.37826 0.004,0.0786 0.006,0.1615 0.004,0.0829 0.006,0.16363 0.004,0.0808 0.004,0.15513 0.002,0.0744 0.002,0.13388 v 1.44502 h -0.58864 v -3.1068 h 0.89677 l 0.67151,2.37579 h 0.0127 l 0.71401,-2.37579 h 0.89677 v 3.1068 h -0.61414 v -1.47052 q 0,-0.0553 0,-0.12538 0.002,-0.0701 0.004,-0.14875 0.002,-0.0786 0.004,-0.15938 0.004,-0.0808 0.006,-0.15725 0.008,-0.17851 0.0149,-0.37189 h -0.017 l -0.73526,2.43317 z m 3.78787,0 -0.12538,-0.323 h -0.0191 q -0.0701,0.0956 -0.14025,0.16575 -0.0701,0.068 -0.15301,0.11263 -0.0829,0.0446 -0.187,0.0659 -0.102,0.0212 -0.23801,0.0212 -0.1445,0 -0.26775,-0.0446 -0.12325,-0.0468 -0.21463,-0.13813 -0.0893,-0.0935 -0.14025,-0.23375 -0.051,-0.14238 -0.051,-0.33576 0,-0.37826 0.24225,-0.55676 0.24226,-0.18063 0.72464,-0.19975 l 0.37826,-0.0127 v -0.17851 q 0,-0.14662 -0.085,-0.21675 -0.085,-0.0701 -0.23801,-0.0701 -0.153,0 -0.29963,0.0446 -0.1445,0.0446 -0.29113,0.119 l -0.21038,-0.42926 q 0.1785,-0.0999 0.39526,-0.15725 0.21675,-0.0574 0.45476,-0.0574 0.44413,0 0.68001,0.20826 0.238,0.20825 0.238,0.63326 v 1.58315 z m -0.19125,-1.10077 -0.21463,0.008 q -0.12963,0.004 -0.21888,0.034 -0.0892,0.0297 -0.1445,0.0808 -0.0531,0.0489 -0.0786,0.119 -0.0234,0.068 -0.0234,0.153 0,0.14875 0.0723,0.2125 0.0722,0.0616 0.18912,0.0616 0.0893,0 0.16576,-0.0297 0.0765,-0.0319 0.13175,-0.0914 0.0574,-0.0616 0.0892,-0.14875 0.0319,-0.0893 0.0319,-0.204 z m 2.03471,1.14327 q -0.25501,0 -0.46114,-0.0701 -0.204,-0.0701 -0.35063,-0.21676 -0.1445,-0.14875 -0.22313,-0.37825 -0.0765,-0.23163 -0.0765,-0.55251 0,-0.35488 0.0786,-0.59289 0.0808,-0.24013 0.22525,-0.38463 0.14663,-0.1445 0.35063,-0.20613 0.20613,-0.0616 0.45689,-0.0616 0.18275,0 0.36338,0.0446 0.18063,0.0446 0.34,0.12538 l -0.187,0.49301 q -0.14025,-0.0616 -0.26988,-0.0999 -0.12963,-0.0404 -0.2465,-0.0404 -0.23588,0 -0.34214,0.18063 -0.10625,0.17851 -0.10625,0.53764 0,0.357 0.10625,0.52701 0.10626,0.17 0.33364,0.17 0.18487,0 0.33575,-0.0468 0.15088,-0.0489 0.30813,-0.12325 v 0.53976 q -0.0786,0.0382 -0.153,0.068 -0.0744,0.0297 -0.15088,0.0489 -0.0744,0.0191 -0.15725,0.0276 -0.0807,0.0106 -0.17425,0.0106 z m 2.29025,-2.46292 q 0.0255,0 0.0553,0.002 0.0319,0 0.0595,0.004 0.0298,0.002 0.0531,0.006 0.0255,0.002 0.0383,0.006 v 0.60776 q -0.017,-0.004 -0.0467,-0.008 -0.0298,-0.004 -0.0638,-0.006 -0.0319,-0.004 -0.0638,-0.004 -0.0319,-0.002 -0.0531,-0.002 -0.12538,0 -0.23163,0.0319 -0.10413,0.0319 -0.18063,0.10412 -0.0744,0.0701 -0.11688,0.18701 -0.0404,0.11475 -0.0404,0.28263 v 1.20914 h -0.64814 v -2.37579 h 0.49088 l 0.0956,0.35701 h 0.0319 q 0.051,-0.0914 0.1105,-0.16576 0.0595,-0.0744 0.13175,-0.12537 0.0744,-0.0531 0.16575,-0.0808 0.0935,-0.0297 0.21251,-0.0297 z m 0.99158,1.22828 q 0,0.35488 0.0999,0.53551 0.0999,0.1785 0.32513,0.1785 0.22313,0 0.32301,-0.18063 0.0999,-0.18063 0.0999,-0.53338 0,-0.35489 -0.0999,-0.52914 -0.0999,-0.17638 -0.32726,-0.17638 -0.22313,0 -0.32301,0.17638 -0.0977,0.17425 -0.0977,0.52914 z m 1.50878,0 q 0,0.2975 -0.0765,0.52701 -0.0744,0.2295 -0.21675,0.38675 -0.14026,0.15726 -0.34426,0.24013 -0.20188,0.0807 -0.45476,0.0807 -0.23588,0 -0.43351,-0.0807 -0.19763,-0.0829 -0.34213,-0.24013 -0.14238,-0.15725 -0.22313,-0.38675 -0.0808,-0.22951 -0.0808,-0.52701 0,-0.29538 0.0744,-0.52489 0.0765,-0.2295 0.21675,-0.38463 0.14238,-0.15725 0.34426,-0.238 0.20188,-0.0808 0.45688,-0.0808 0.23588,0 0.43351,0.0808 0.19763,0.0807 0.34001,0.238 0.1445,0.15513 0.22525,0.38463 0.0808,0.22951 0.0808,0.52489 z"
       id="text121"
       aria-label="Macro" /><rect
       style="font-variation-settings:normal;opacity:1;vector-effect:none;fill:#fbc51b;fill-opacity:1;stroke:#e28717;stroke-width:0.79375;stroke-linecap:butt;stroke-linejoin:miter;stroke-miterlimit:4;stroke-dasharray:none;stroke-dashoffset:0;stroke-opacity:1;-inkscape-stroke:none;stop-color:#000000;stop-opacity:1"
       id="rect122"
       width="17.183376"
       height="10.921993"
       x="330.38242"
       y="130.05682"
       rx="0"
       ry="1.2637023" /><path
       style="font-weight:bold;font-size:4.35208px;font-family:'Droid Sans';-inkscape-font-specification:'Droid Sans';text-align:center;text-anchor:middle;fill:#1e1e1e;stroke-width:0.529166"
       d="m 335.41744,136.74789 v -3.1068 h 0.65877 v 2.56279 h 1.13052 v 0.54401 z m 2.05198,-2.98993 q 0,-0.0914 0.0276,-0.15087 0.0276,-0.0616 0.0744,-0.0978 0.0489,-0.0383 0.11262,-0.0531 0.0659,-0.0149 0.13813,-0.0149 0.0722,0 0.136,0.0149 0.0637,0.0149 0.1105,0.0531 0.0489,0.0361 0.0765,0.0978 0.0297,0.0595 0.0297,0.15087 0,0.0893 -0.0297,0.15088 -0.0276,0.0616 -0.0765,0.0999 -0.0467,0.0361 -0.1105,0.0531 -0.0638,0.0149 -0.136,0.0149 -0.0722,0 -0.13813,-0.0149 -0.0638,-0.017 -0.11262,-0.0531 -0.0468,-0.0383 -0.0744,-0.0999 -0.0276,-0.0616 -0.0276,-0.15088 z m 0.67577,2.98993 h -0.64814 v -2.37579 h 0.64814 z m 2.47671,0 h -0.64813 v -1.38765 q 0,-0.25713 -0.0786,-0.38463 -0.0765,-0.12963 -0.24651,-0.12963 -0.1275,0 -0.2125,0.051 -0.085,0.051 -0.136,0.15087 -0.0489,0.0999 -0.0701,0.24651 -0.0213,0.14663 -0.0213,0.33575 v 1.11777 h -0.64814 v -2.37579 h 0.49514 l 0.0871,0.30388 h 0.0361 q 0.051,-0.0914 0.12325,-0.15725 0.0744,-0.0659 0.16151,-0.10838 0.0871,-0.0425 0.18487,-0.0616 0.0978,-0.0213 0.19976,-0.0213 0.17425,0 0.31663,0.051 0.14238,0.0489 0.24438,0.15512 0.102,0.10626 0.15725,0.27201 0.0553,0.16363 0.0553,0.39313 z m 0.95917,-1.29202 0.23801,-0.36126 0.58013,-0.72251 h 0.73102 l -0.85852,1.03064 0.91377,1.34515 h -0.74802 l -0.57801,-0.91376 -0.25288,0.17425 v 0.73951 h -0.64813 v -3.30656 h 0.64813 v 1.47478 l -0.034,0.53976 z"
       id="text122"
       aria-label="Link" /><rect
       style="font-variation-settings:normal;opacity:1;vector-effect:none;fill:#e25f28;fill-opacity:1;stroke:#af2f20;stroke-width:0.79375;stroke-linecap:butt;stroke-linejoin:miter;stroke-miterlimit:4;stroke-dasharray:none;stroke-dashoffset:0;stroke-opacity:1;-inkscape-stroke:none;stop-color:#000000;stop-opacity:1"
       id="rect123"
       width="17.183376"
       height="10.921993"
       x="330.38242"
       y="68.485916"
       rx="0"
       ry="1.2637023" /><g
       id="text123"
       style="font-size:4.35208px;font-family:'Droid Sans';-inkscape-font-specification:'Droid Sans';fill:#1e1e1e;stroke-width:0.529166"
       aria-label="Mute&#10;Clear"><path
         style="font-weight:bold;text-align:center;text-anchor:middle"
         d="m 335.65983,73.306854 -0.68213,-2.437419 h -0.0191 q 0.0127,0.195503 0.0213,0.378256 0.004,0.07863 0.006,0.161503 0.004,0.08288 0.006,0.163628 0.004,0.08075 0.004,0.155128 0.002,0.07438 0.002,0.133878 v 1.445026 h -0.58864 v -3.106807 h 0.89677 l 0.67151,2.375794 h 0.0127 l 0.71401,-2.375794 h 0.89677 v 3.106807 h -0.61414 v -1.470527 q 0,-0.05525 0,-0.125377 0.002,-0.07013 0.004,-0.148753 0.002,-0.07863 0.004,-0.159378 0.004,-0.08075 0.006,-0.157253 0.009,-0.178503 0.0149,-0.371881 h -0.017 l -0.73526,2.433169 z m 3.82983,0 -0.0871,-0.30388 h -0.034 q -0.0531,0.09138 -0.1275,0.157253 -0.0722,0.06375 -0.15938,0.106252 -0.0871,0.0425 -0.18487,0.06163 -0.0978,0.02125 -0.19976,0.02125 -0.17425,0 -0.31663,-0.04888 -0.14238,-0.051 -0.24438,-0.157253 -0.102,-0.106252 -0.15725,-0.26988 -0.0553,-0.163628 -0.0553,-0.393132 v -1.549153 h 0.64813 v 1.38765 q 0,0.25713 0.0765,0.386757 0.0786,0.127503 0.24863,0.127503 0.1275,0 0.2125,-0.051 0.085,-0.051 0.13388,-0.150878 0.051,-0.09988 0.0722,-0.246505 0.0213,-0.146627 0.0213,-0.335756 v -1.11777 h 0.64814 v 2.375793 z m 1.94148,-0.473883 q 0.0956,0 0.18063,-0.02125 0.0871,-0.02125 0.17637,-0.05313 v 0.482384 q -0.0914,0.04675 -0.22737,0.0765 -0.13388,0.03188 -0.29326,0.03188 -0.15513,0 -0.28901,-0.03613 -0.13387,-0.03613 -0.23162,-0.125377 -0.0978,-0.09138 -0.15513,-0.242254 -0.0553,-0.153003 -0.0553,-0.382507 v -1.145396 h -0.31026 v -0.27413 l 0.35701,-0.216754 0.187,-0.50151 h 0.41438 v 0.50576 h 0.57801 v 0.486634 h -0.57801 v 1.145396 q 0,0.138127 0.068,0.204003 0.068,0.06588 0.17851,0.06588 z m 1.5332,-1.485403 q -0.17213,0 -0.28688,0.121128 -0.11263,0.121127 -0.12963,0.380381 h 0.82664 q -0.002,-0.108376 -0.0276,-0.199753 -0.0255,-0.09138 -0.0765,-0.157253 -0.051,-0.068 -0.1275,-0.106252 -0.0765,-0.03825 -0.1785,-0.03825 z m 0.0829,2.001787 q -0.255,0 -0.46963,-0.07438 -0.21463,-0.07438 -0.36976,-0.223129 -0.15512,-0.150878 -0.24225,-0.378257 -0.085,-0.229505 -0.085,-0.537635 0,-0.312381 0.0786,-0.546135 0.0786,-0.233755 0.21888,-0.388882 0.14238,-0.157253 0.34001,-0.23588 0.19975,-0.07863 0.44201,-0.07863 0.23588,0 0.42501,0.07225 0.19125,0.07013 0.323,0.208254 0.13388,0.138128 0.20401,0.340006 0.0722,0.199754 0.0722,0.459009 v 0.314505 h -1.44928 q 0.004,0.136003 0.0425,0.246505 0.0404,0.108377 0.1105,0.184878 0.0722,0.07438 0.17213,0.114752 0.102,0.04038 0.23163,0.04038 0.10838,0 0.204,-0.01063 0.0978,-0.01275 0.18913,-0.03613 0.0914,-0.02338 0.18063,-0.05738 0.0892,-0.03612 0.18275,-0.08288 v 0.501509 q -0.085,0.04463 -0.17212,0.0765 -0.085,0.02975 -0.18063,0.051 -0.0956,0.02125 -0.20613,0.02975 -0.1105,0.01063 -0.24226,0.01063 z"
         id="path220" /><path
         style="font-weight:bold;text-align:center;text-anchor:middle"
         d="m 335.83662,74.820865 q -0.18913,0 -0.33576,0.07438 -0.1445,0.07225 -0.24438,0.210379 -0.0978,0.136002 -0.14875,0.333631 -0.051,0.195504 -0.051,0.439883 0,0.24863 0.0446,0.442008 0.0467,0.193379 0.14026,0.327256 0.0956,0.131753 0.24225,0.201879 0.14875,0.068 0.35276,0.068 0.18912,0 0.37825,-0.0425 0.19126,-0.0425 0.41439,-0.121127 v 0.55251 q -0.10201,0.0425 -0.20188,0.07225 -0.0999,0.02975 -0.20401,0.04888 -0.10412,0.01913 -0.21463,0.02763 -0.10837,0.01063 -0.23375,0.01063 -0.35913,0 -0.62264,-0.114752 -0.2635,-0.114752 -0.43563,-0.323006 -0.17213,-0.208254 -0.255,-0.501509 -0.0829,-0.293255 -0.0829,-0.652387 0,-0.352756 0.0956,-0.646012 0.0956,-0.29538 0.2805,-0.507884 0.18488,-0.212504 0.45689,-0.329381 0.272,-0.119002 0.62476,-0.119002 0.23163,0 0.46325,0.0595 0.23376,0.05738 0.44626,0.159378 l -0.2125,0.535509 q -0.17425,-0.08288 -0.35063,-0.144502 -0.17638,-0.06163 -0.34638,-0.06163 z m 1.85222,2.603172 h -0.64814 v -3.30656 h 0.64814 z m 1.37595,-1.959285 q -0.17213,0 -0.28688,0.121127 -0.11263,0.121127 -0.12963,0.380382 h 0.82664 q -0.002,-0.108377 -0.0276,-0.199754 -0.0255,-0.09138 -0.0765,-0.157253 -0.051,-0.068 -0.1275,-0.106252 -0.0765,-0.03825 -0.1785,-0.03825 z m 0.0829,2.001786 q -0.255,0 -0.46963,-0.07438 -0.21463,-0.07438 -0.36976,-0.223129 -0.15512,-0.150878 -0.24225,-0.378257 -0.085,-0.229504 -0.085,-0.537635 0,-0.312381 0.0786,-0.546135 0.0786,-0.233754 0.21888,-0.388882 0.14238,-0.157253 0.34001,-0.23588 0.19975,-0.07863 0.44201,-0.07863 0.23588,0 0.42501,0.07225 0.19125,0.07013 0.323,0.208254 0.13388,0.138128 0.20401,0.340006 0.0722,0.199754 0.0722,0.459009 v 0.314506 h -1.44928 q 0.004,0.136002 0.0425,0.246504 0.0404,0.108377 0.1105,0.184879 0.0722,0.07438 0.17213,0.114752 0.102,0.04037 0.23163,0.04037 0.10838,0 0.204,-0.01063 0.0978,-0.01275 0.18913,-0.03612 0.0914,-0.02338 0.18063,-0.05738 0.0892,-0.03612 0.18275,-0.08288 v 0.501509 q -0.085,0.04463 -0.17212,0.0765 -0.085,0.02975 -0.18063,0.051 -0.0956,0.02125 -0.20613,0.02975 -0.1105,0.01063 -0.24226,0.01063 z m 2.66612,-0.0425 -0.12538,-0.323005 h -0.0191 q -0.0701,0.09563 -0.14026,0.165753 -0.0701,0.068 -0.153,0.112627 -0.0829,0.04462 -0.187,0.06588 -0.102,0.02125 -0.23801,0.02125 -0.1445,0 -0.26775,-0.04463 -0.12325,-0.04675 -0.21463,-0.138127 -0.0892,-0.0935 -0.14025,-0.233754 -0.051,-0.142378 -0.051,-0.335757 0,-0.378257 0.24225,-0.55676 0.24226,-0.180628 0.72464,-0.199753 l 0.37826,-0.01275 v -0.178503 q 0,-0.146628 -0.085,-0.216754 -0.085,-0.07013 -0.238,-0.07013 -0.153,0 -0.29963,0.04463 -0.1445,0.04462 -0.29113,0.119002 l -0.21038,-0.429258 q 0.1785,-0.09988 0.39526,-0.157253 0.21675,-0.05738 0.45476,-0.05738 0.44413,0 0.68001,0.208254 0.238,0.208254 0.238,0.633261 v 1.583154 z m -0.19125,-1.10077 -0.21463,0.0085 q -0.12963,0.0042 -0.21888,0.034 -0.0893,0.02975 -0.1445,0.08075 -0.0531,0.04887 -0.0786,0.119002 -0.0234,0.068 -0.0234,0.153003 0,0.148752 0.0723,0.212503 0.0722,0.06163 0.18912,0.06163 0.0893,0 0.16576,-0.02975 0.0765,-0.03188 0.13175,-0.09138 0.0574,-0.06163 0.0892,-0.148752 0.0319,-0.08925 0.0319,-0.204004 z m 2.15317,-1.319649 q 0.0255,0 0.0553,0.0021 0.0319,0 0.0595,0.0042 0.0298,0.0021 0.0531,0.0064 0.0255,0.0021 0.0383,0.0064 v 0.607762 q -0.017,-0.0043 -0.0467,-0.0085 -0.0298,-0.0042 -0.0638,-0.0064 -0.0319,-0.0042 -0.0638,-0.0042 -0.0319,-0.0021 -0.0531,-0.0021 -0.12538,0 -0.23163,0.03188 -0.10413,0.03187 -0.18063,0.104127 -0.0744,0.07013 -0.11688,0.187003 -0.0404,0.114752 -0.0404,0.28263 v 1.209147 h -0.64814 v -2.375793 h 0.49088 l 0.0956,0.357006 h 0.0319 q 0.051,-0.09138 0.1105,-0.165753 0.0595,-0.07438 0.13175,-0.125377 0.0744,-0.05313 0.16575,-0.08075 0.0935,-0.02975 0.21251,-0.02975 z"
         id="path221" /></g><g
       id="g126"
       inkscape:label="Timecode"
       transform="translate(86.227598,40.868796)"><rect
         style="fill:#2c2b30;fill-opacity:1;stroke:none;stroke-width:0.79375;stroke-opacity:1"
         id="rect125"
         width="17.197912"
         height="4.4979167"
         x="244.15866"
         y="60.655727" /><path
         style="font-size:3.58405px;font-family:'Droid Sans';-inkscape-font-specification:'Droid Sans';text-align:center;text-anchor:middle;fill:#dddde0;stroke-width:0.529167"
         d="m 252.67261,64.074097 -0.28,-0.792761 h -0.95377 l -0.2835,0.792761 h -0.329 l 0.93976,-2.569036 h 0.2975 l 0.94152,2.569036 z m -0.38325,-1.081515 -0.25901,-0.742011 q -0.0105,-0.0315 -0.0263,-0.077 -0.014,-0.0455 -0.0298,-0.098 -0.0157,-0.0525 -0.0315,-0.108502 -0.0157,-0.05775 -0.0298,-0.112001 -0.0122,0.05425 -0.028,0.112001 -0.0157,0.05775 -0.0315,0.112002 -0.0157,0.0525 -0.0315,0.098 -0.014,0.04375 -0.0245,0.0735 l -0.25375,0.742011 z m 1.24522,1.081515 h -0.3185 v -2.723038 h 0.3185 z m 0.83397,0 h -0.3185 v -2.723038 h 0.3185 z"
         id="text126"
         aria-label="All" /></g><g
       id="g127"
       inkscape:label="Timecode"
       transform="translate(86.067424,61.487513)"><rect
         style="fill:#2c2b30;fill-opacity:1;stroke:none;stroke-width:0.79375;stroke-opacity:1"
         id="rect126"
         width="17.197912"
         height="4.4979167"
         x="244.15866"
         y="60.655727" /><path
         style="font-size:3.58405px;font-family:'Droid Sans';-inkscape-font-specification:'Droid Sans';text-align:center;text-anchor:middle;fill:#dddde0;stroke-width:0.529167"
         d="m 251.16734,62.791329 q 0,0.295754 -0.0718,0.539007 -0.07,0.243254 -0.21,0.416506 -0.14,0.173253 -0.34825,0.267754 -0.20651,0.0945 -0.47776,0.0945 -0.28525,0 -0.49526,-0.0945 -0.20825,-0.0945 -0.3465,-0.267754 -0.1365,-0.173252 -0.20301,-0.416506 -0.0665,-0.245003 -0.0665,-0.542507 0,-0.297504 0.0665,-0.539008 0.0665,-0.243253 0.20476,-0.414756 0.13825,-0.171502 0.34825,-0.264253 0.21001,-0.0945 0.49526,-0.0945 0.27125,0 0.47601,0.0945 0.2065,0.09275 0.3465,0.266003 0.14,0.171503 0.21,0.414756 0.0718,0.241504 0.0718,0.540758 z m -1.87427,0 q 0,0.239753 0.0455,0.432256 0.0455,0.190752 0.13825,0.325504 0.0945,0.133002 0.238,0.204753 0.14526,0.07 0.34476,0.07 0.1995,0 0.343,-0.07 0.14526,-0.07175 0.23801,-0.204753 0.0945,-0.134752 0.13825,-0.325504 0.0437,-0.192503 0.0437,-0.432256 0,-0.241504 -0.0437,-0.432256 -0.0437,-0.190753 -0.1365,-0.322005 -0.0927,-0.133002 -0.23626,-0.203003 -0.1435,-0.07175 -0.343,-0.07175 -0.1995,0 -0.34476,0.07175 -0.14525,0.07 -0.23975,0.203003 -0.0945,0.131252 -0.14,0.322005 -0.0455,0.190752 -0.0455,0.432256 z m 2.98841,1.317768 q -0.10325,0 -0.18725,-0.02275 -0.084,-0.02275 -0.15225,-0.0595 -0.0665,-0.0385 -0.11901,-0.08925 -0.0507,-0.05075 -0.091,-0.106752 h -0.021 q 0.005,0.0595 0.0105,0.113752 0.004,0.0455 0.007,0.0945 0.004,0.04725 0.004,0.07525 v 0.820762 h -0.3185 V 62.15257 h 0.259 l 0.0455,0.259004 h 0.014 q 0.0403,-0.06125 0.091,-0.113752 0.0508,-0.05425 0.11726,-0.09275 0.0682,-0.04025 0.15225,-0.063 0.084,-0.0245 0.189,-0.0245 0.1645,0 0.29926,0.063 0.13475,0.063 0.22925,0.189003 0.0962,0.124252 0.14875,0.309754 0.0525,0.185503 0.0525,0.430506 0,0.246754 -0.0525,0.434006 -0.0525,0.185503 -0.14875,0.311505 -0.0945,0.126001 -0.22925,0.190752 -0.13476,0.063 -0.29926,0.063 z m -0.0613,-1.727274 q -0.133,0 -0.22575,0.04025 -0.091,0.04025 -0.14875,0.122501 -0.056,0.08225 -0.084,0.204753 -0.0263,0.122502 -0.0298,0.288754 v 0.07175 q 0,0.176753 0.0228,0.315005 0.0245,0.136502 0.0805,0.231003 0.0577,0.09275 0.15225,0.141752 0.0945,0.04725 0.23625,0.04725 0.23625,0 0.34651,-0.190752 0.112,-0.190753 0.112,-0.547758 0,-0.364005 -0.112,-0.544257 -0.11026,-0.180253 -0.35001,-0.180253 z m 1.86569,1.727274 q -0.1925,0 -0.35175,-0.06475 -0.15926,-0.06475 -0.27476,-0.189002 -0.11375,-0.124252 -0.17675,-0.308005 -0.063,-0.183752 -0.063,-0.420006 0,-0.238003 0.0577,-0.425255 0.0577,-0.187253 0.16275,-0.316755 0.105,-0.131252 0.25025,-0.199503 0.14701,-0.06825 0.32376,-0.06825 0.17325,0 0.3115,0.063 0.13826,0.06125 0.23451,0.175003 0.0962,0.112001 0.147,0.271254 0.0525,0.157502 0.0525,0.350004 v 0.197753 h -1.21102 q 0.009,0.337755 0.14175,0.497007 0.13476,0.159252 0.39901,0.159252 0.0893,0 0.1645,-0.0087 0.077,-0.0087 0.147,-0.0245 0.0718,-0.0175 0.13826,-0.042 0.0665,-0.02625 0.13475,-0.05775 v 0.283504 q -0.07,0.03325 -0.13825,0.05775 -0.0665,0.0245 -0.13826,0.04025 -0.07,0.01575 -0.147,0.02275 -0.0752,0.007 -0.1645,0.007 z m -0.0787,-1.727274 q -0.1995,0 -0.31676,0.136502 -0.1155,0.136502 -0.13475,0.397256 h 0.86101 q 0,-0.119002 -0.0245,-0.217003 -0.0228,-0.09975 -0.0735,-0.169753 -0.049,-0.07 -0.126,-0.108501 -0.077,-0.0385 -0.1855,-0.0385 z m 2.15715,1.692274 v -1.237268 q 0,-0.227503 -0.0927,-0.341254 -0.091,-0.113752 -0.28701,-0.113752 -0.14175,0 -0.238,0.0455 -0.0962,0.0455 -0.15575,0.134752 -0.0577,0.08925 -0.084,0.218753 -0.0245,0.129501 -0.0245,0.297504 v 0.995764 H 254.9638 V 62.15257 h 0.25901 l 0.0455,0.259004 h 0.0175 q 0.0437,-0.07525 0.10325,-0.129502 0.0613,-0.056 0.133,-0.09275 0.0717,-0.03675 0.15225,-0.05425 0.0805,-0.0175 0.16451,-0.0175 0.32025,0 0.48125,0.168003 0.16275,0.166252 0.16275,0.533757 V 64.0741 Z"
         id="text127"
         aria-label="Open" /></g><g
       id="g128"
       inkscape:label="Timecode"
       transform="translate(86.067424,81.93354)"><rect
         style="fill:#2c2b30;fill-opacity:1;stroke:none;stroke-width:0.79375;stroke-opacity:1"
         id="rect127"
         width="17.197912"
         height="4.4979167"
         x="244.15866"
         y="60.655727" /><path
         style="font-size:3.58405px;font-family:'Droid Sans';-inkscape-font-specification:'Droid Sans';text-align:center;text-anchor:middle;fill:#dddde0;stroke-width:0.529167"
         d="m 249.73183,64.074097 v -2.558536 h 0.32551 v 2.268032 h 1.00276 v 0.290504 z m 3.12336,-0.964264 q 0,0.239754 -0.0595,0.427006 -0.0577,0.185503 -0.168,0.313255 -0.10851,0.126001 -0.26426,0.192502 -0.15575,0.0665 -0.35,0.0665 -0.18026,0 -0.33251,-0.0665 -0.15225,-0.0665 -0.26425,-0.192502 -0.11025,-0.127752 -0.17325,-0.313255 -0.0612,-0.187252 -0.0612,-0.427006 0,-0.238003 0.0577,-0.421756 0.0595,-0.185502 0.168,-0.311504 0.1085,-0.127752 0.26425,-0.192503 0.1575,-0.0665 0.35176,-0.0665 0.18025,0 0.3325,0.0665 0.15225,0.06475 0.26251,0.192503 0.112,0.126002 0.17325,0.311504 0.063,0.183753 0.063,0.421756 z m -1.34402,0 q 0,0.365755 0.119,0.551258 0.12075,0.183752 0.39026,0.183752 0.2695,0 0.38675,-0.183752 0.119,-0.185503 0.119,-0.551258 0,-0.365755 -0.12075,-0.546007 -0.119,-0.182003 -0.3885,-0.182003 -0.26951,0 -0.38851,0.182003 -0.11725,0.180252 -0.11725,0.546007 z m 2.3942,0.999264 q -0.17676,0 -0.33076,-0.05425 -0.154,-0.056 -0.26775,-0.175002 -0.11375,-0.120752 -0.1785,-0.306254 -0.0647,-0.187253 -0.0647,-0.449757 0,-0.274753 0.0665,-0.465506 0.0665,-0.192503 0.182,-0.311504 0.11725,-0.120752 0.273,-0.175003 0.15575,-0.05425 0.33426,-0.05425 0.1365,0 0.266,0.02975 0.13125,0.02975 0.21875,0.0735 l -0.0945,0.269504 q -0.0402,-0.0175 -0.0892,-0.03325 -0.049,-0.0175 -0.1015,-0.02975 -0.0525,-0.014 -0.10325,-0.021 -0.0508,-0.0087 -0.0963,-0.0087 -0.27476,0 -0.40076,0.176753 -0.126,0.175002 -0.126,0.546007 0,0.369256 0.126,0.540758 0.12775,0.169752 0.38676,0.169752 0.14175,0 0.2555,-0.0315 0.1155,-0.03325 0.21,-0.077 v 0.283504 q -0.0945,0.05075 -0.203,0.077 -0.10675,0.02625 -0.2625,0.02625 z m 1.03093,-1.027264 0.23625,-0.297504 0.51276,-0.631759 h 0.36925 l -0.70176,0.831261 0.74901,1.090266 h -0.36575 l -0.58801,-0.882013 -0.19075,0.143502 v 0.738511 h -0.31501 v -2.723038 h 0.31501 v 1.249517 l -0.028,0.481257 z"
         id="text128"
         aria-label="Lock" /></g></g></svg>
