<?xml version="1.0" encoding="UTF-8" standalone="no"?>
<!-- Created with Inkscape (http://www.inkscape.org/) -->

<svg
   width="31.220833mm"
   height="88.106255mm"
   viewBox="0 0 31.220833 88.106254"
   version="1.1"
   id="svg1"
   xml:space="preserve"
   inkscape:version="1.4 (e7c3feb100, 2024-10-09)"
   sodipodi:docname="presonus-faderport8.svg"
   inkscape:export-filename="fp8_shift_large.svg"
   inkscape:export-xdpi="96"
   inkscape:export-ydpi="96"
   xmlns:inkscape="http://www.inkscape.org/namespaces/inkscape"
   xmlns:sodipodi="http://sodipodi.sourceforge.net/DTD/sodipodi-0.dtd"
   xmlns="http://www.w3.org/2000/svg"
   xmlns:svg="http://www.w3.org/2000/svg"><sodipodi:namedview
     id="namedview1"
     pagecolor="#ffffff"
     bordercolor="#000000"
     borderopacity="0.25"
     inkscape:showpageshadow="2"
     inkscape:pageopacity="0.0"
     inkscape:pagecheckerboard="0"
     inkscape:deskcolor="#d1d1d1"
     inkscape:document-units="mm"
     showguides="true"
     inkscape:zoom="1.4142136"
     inkscape:cx="954.2406"
     inkscape:cy="66.114484"
     inkscape:window-width="1280"
     inkscape:window-height="683"
     inkscape:window-x="0"
     inkscape:window-y="0"
     inkscape:window-maximized="1"
     inkscape:current-layer="layer1"><sodipodi:guide
       position="-189.83782,55.501924"
       orientation="1,0"
       id="guide5"
       inkscape:locked="false" /><sodipodi:guide
       position="-218.05135,63.165966"
       orientation="1,0"
       id="guide6"
       inkscape:locked="false" /><sodipodi:guide
       position="-161.58598,64.562576"
       orientation="1,0"
       id="guide7"
       inkscape:locked="false" /><sodipodi:guide
       position="-147.96742,41.510908"
       orientation="1,0"
       id="guide8"
       inkscape:locked="false" /><sodipodi:guide
       position="-228.54682,28.886601"
       orientation="0,-1"
       id="guide9"
       inkscape:locked="false" /><sodipodi:guide
       position="-232.04738,32.387156"
       orientation="1,0"
       id="guide10"
       inkscape:locked="false" /><sodipodi:guide
       position="-100.33484,43.255253"
       orientation="1,0"
       id="guide11"
       inkscape:locked="false" /><sodipodi:guide
       position="-34.655793,43.293681"
       orientation="0,-1"
       id="guide12"
       inkscape:locked="false" /><sodipodi:guide
       position="-60.589893,25.121462"
       orientation="0,-1"
       id="guide13"
       inkscape:locked="false" /><sodipodi:guide
       position="-71.921733,43.255253"
       orientation="1,0"
       id="guide14"
       inkscape:locked="false" /><sodipodi:guide
       position="-44.128643,43.235912"
       orientation="1,0"
       id="guide15"
       inkscape:locked="false" /><sodipodi:guide
       position="24.41497,81.645047"
       orientation="1,0"
       id="guide16"
       inkscape:locked="false" /><inkscape:page
       x="0"
       y="1.5383634e-24"
       width="31.220833"
       height="88.106247"
       id="page21"
       margin="0"
       bleed="0"
       inkscape:label="fp8_fadermode"
       inkscape:export-filename="fp8_fadermode.png"
       inkscape:export-xdpi="96"
       inkscape:export-ydpi="96" /><sodipodi:guide
       position="-16.67867,43.293681"
       orientation="1,0"
       id="guide24"
       inkscape:locked="false" /><sodipodi:guide
       position="24.31537,81.334395"
       orientation="0,-1"
       id="guide25"
       inkscape:locked="false" /><sodipodi:guide
       position="24.41497,60.575454"
       orientation="0,-1"
       id="guide26"
       inkscape:locked="false" /><sodipodi:guide
       position="24.41497,40.233088"
       orientation="0,-1"
       id="guide27"
       inkscape:locked="false" /><sodipodi:guide
       position="24.41497,19.627956"
       orientation="0,-1"
       id="guide28"
       inkscape:locked="false" /><sodipodi:guide
       position="67.13021,81.334396"
       orientation="1,0"
       id="guide29"
       inkscape:locked="false" /><sodipodi:guide
       position="67.13021,-0.71329279"
       orientation="0,-1"
       id="guide32"
       inkscape:locked="false" /><sodipodi:guide
       position="-122.33041,0.66146523"
       orientation="1,0"
       id="guide33"
       inkscape:locked="false" /><sodipodi:guide
       position="-10.94081,0.66146331"
       orientation="1,0"
       id="guide34"
       inkscape:locked="false" /><sodipodi:guide
       position="-87.994153,-18.808229"
       orientation="1,0"
       id="guide35"
       inkscape:locked="false" /><sodipodi:guide
       position="-55.161133,-30.898168"
       orientation="1,0"
       id="guide36"
       inkscape:locked="false" /><sodipodi:guide
       position="-22.466094,-31.441098"
       orientation="1,0"
       id="guide37"
       inkscape:locked="false" /><sodipodi:guide
       position="-22.466094,-18.262491"
       orientation="0,-1"
       id="guide38"
       inkscape:locked="false" /><sodipodi:guide
       position="-22.466094,-43.025851"
       orientation="0,-1"
       id="guide39"
       inkscape:locked="false" /><sodipodi:guide
       position="-110.64655,-23.25243"
       orientation="1,0"
       id="guide40"
       inkscape:locked="false" /><sodipodi:guide
       position="-78.039463,-30.000114"
       orientation="1,0"
       id="guide41"
       inkscape:locked="false" /><sodipodi:guide
       position="-45.294993,-28.870339"
       orientation="1,0"
       id="guide42"
       inkscape:locked="false" /><sodipodi:guide
       position="-100.33484,-110.54348"
       orientation="0,-1"
       id="guide43"
       inkscape:locked="false" /><sodipodi:guide
       position="6.4156505,78.537946"
       orientation="1,0"
       id="guide69"
       inkscape:locked="false" /><sodipodi:guide
       position="20.76328,74.239746"
       orientation="0,-1"
       id="guide70"
       inkscape:locked="false" /><sodipodi:guide
       position="14.72466,77.355278"
       orientation="0,-1"
       id="guide71"
       inkscape:locked="false" /><sodipodi:guide
       position="-31.019753,73.093169"
       orientation="1,0"
       id="guide93"
       inkscape:locked="false" /><sodipodi:guide
       position="87.69376,82.814587"
       orientation="1,0"
       id="guide117"
       inkscape:locked="false" /><sodipodi:guide
       position="116.18756,85.162249"
       orientation="1,0"
       id="guide118"
       inkscape:locked="false" /><sodipodi:guide
       position="92.71264,69.949385"
       orientation="1,0"
       id="guide119"
       inkscape:locked="false" /><sodipodi:guide
       position="110.68976,69.949385"
       orientation="1,0"
       id="guide120"
       inkscape:locked="false" /><sodipodi:guide
       position="116.18756,44.601492"
       orientation="0,-1"
       id="guide128"
       inkscape:locked="false" /><sodipodi:guide
       position="118.02293,42.548058"
       orientation="0,-1"
       id="guide129"
       inkscape:locked="false" /><sodipodi:guide
       position="114.53482,-19.427241"
       orientation="0,-1"
       id="guide130"
       inkscape:locked="false" /><sodipodi:guide
       position="228.9698,71.352672"
       orientation="1,0"
       id="guide140"
       inkscape:locked="false" /><sodipodi:guide
       position="200.04379,-15.655244"
       orientation="0,-1"
       id="guide217"
       inkscape:locked="false" /></sodipodi:namedview><defs
     id="defs1" /><g
     inkscape:label="Layer 1"
     inkscape:groupmode="layer"
     id="layer1"
     transform="translate(-237.27287,-40.811978)"><rect
       style="font-variation-settings:normal;display:inline;opacity:1;vector-effect:none;fill:#2c2b30;fill-opacity:1;stroke:none;stroke-width:0.79375;stroke-linecap:round;stroke-linejoin:round;stroke-miterlimit:4;stroke-dasharray:none;stroke-dashoffset:0;stroke-opacity:1;-inkscape-stroke:none"
       id="rect69"
       width="31.220835"
       height="88.106247"
       x="237.27287"
       y="40.811977"
       inkscape:label="fp8_fadermode_bg" /><rect
       style="font-variation-settings:normal;display:inline;opacity:1;vector-effect:none;fill:#516070;fill-opacity:1;stroke:none;stroke-width:0.79375;stroke-linecap:butt;stroke-linejoin:miter;stroke-miterlimit:4;stroke-dasharray:none;stroke-dashoffset:0;stroke-opacity:1;-inkscape-stroke:none;stop-color:#000000;stop-opacity:1"
       id="rect74"
       width="28.426168"
       height="85.352928"
       x="238.61459"
       y="42.167965"
       ry="1.8355469"
       rx="1.8355469"
       inkscape:label="fp8_fadermode_bg2" /><g
       id="g93"><rect
         style="fill:#6dd0f5;fill-opacity:1;stroke:#4c93d5;stroke-width:0.79375;stroke-opacity:1"
         id="rect42-2"
         width="17.183376"
         height="10.921993"
         x="244.08539"
         y="47.980713"
         rx="0"
         ry="1.2637023" /><path
         style="font-weight:bold;font-size:4.35208px;font-family:'Droid Sans';-inkscape-font-specification:'Droid Sans';text-align:center;text-anchor:middle;fill:#1e1e1e;stroke-width:0.529166"
         d="m 249.07088,54.671783 h -0.65663 v -2.558547 h -0.77989 v -0.54826 h 2.21429 v 0.54826 h -0.77777 z m 2.24536,-2.420419 q 0.0255,0 0.0553,0.0021 0.0319,0 0.0595,0.0042 0.0297,0.0021 0.0531,0.0064 0.0255,0.0021 0.0383,0.0064 v 0.607762 q -0.017,-0.0043 -0.0468,-0.0085 -0.0297,-0.0043 -0.0637,-0.0064 -0.0319,-0.0042 -0.0637,-0.0042 -0.0319,-0.0021 -0.0531,-0.0021 -0.12538,0 -0.23163,0.03188 -0.10413,0.03187 -0.18063,0.104127 -0.0744,0.07013 -0.11687,0.187003 -0.0404,0.114752 -0.0404,0.28263 v 1.209147 h -0.64814 V 52.29599 h 0.49089 l 0.0956,0.357006 h 0.0319 q 0.051,-0.09138 0.1105,-0.165753 0.0595,-0.07438 0.13175,-0.125377 0.0744,-0.05313 0.16576,-0.08075 0.0935,-0.02975 0.2125,-0.02975 z m 1.69868,2.420419 -0.12537,-0.323005 h -0.0191 q -0.0701,0.09563 -0.14025,0.165753 -0.0701,0.068 -0.153,0.112627 -0.0829,0.04462 -0.18701,0.06588 -0.102,0.02125 -0.238,0.02125 -0.14451,0 -0.26776,-0.04463 -0.12325,-0.04675 -0.21463,-0.138127 -0.0892,-0.0935 -0.14025,-0.233754 -0.051,-0.142378 -0.051,-0.335757 0,-0.378257 0.24225,-0.55676 0.24226,-0.180628 0.72464,-0.199753 l 0.37826,-0.01275 v -0.178503 q 0,-0.146628 -0.085,-0.216754 -0.085,-0.07013 -0.23801,-0.07013 -0.153,0 -0.29963,0.04463 -0.1445,0.04462 -0.29113,0.119002 l -0.21038,-0.429258 q 0.17851,-0.09988 0.39526,-0.157253 0.21676,-0.05738 0.45476,-0.05738 0.44413,0 0.68001,0.208254 0.23801,0.208254 0.23801,0.633261 v 1.583154 z m -0.19125,-1.10077 -0.21463,0.0085 q -0.12963,0.0042 -0.21888,0.034 -0.0893,0.02975 -0.1445,0.08075 -0.0531,0.04888 -0.0786,0.119002 -0.0234,0.068 -0.0234,0.153002 0,0.148753 0.0722,0.212504 0.0722,0.06163 0.18913,0.06163 0.0892,0 0.16575,-0.02975 0.0765,-0.03188 0.13175,-0.09138 0.0574,-0.06163 0.0892,-0.148752 0.0319,-0.08925 0.0319,-0.204004 z m 2.03471,1.143271 q -0.25501,0 -0.46113,-0.07013 -0.20401,-0.07013 -0.35064,-0.216754 -0.1445,-0.148753 -0.22313,-0.378257 -0.0765,-0.231629 -0.0765,-0.55251 0,-0.354882 0.0786,-0.592886 0.0807,-0.240129 0.22525,-0.384632 0.14663,-0.144503 0.35064,-0.206129 0.20612,-0.06163 0.45688,-0.06163 0.18275,0 0.36338,0.04463 0.18063,0.04463 0.34001,0.125377 l -0.18701,0.493009 q -0.14025,-0.06163 -0.26988,-0.09988 -0.12962,-0.04037 -0.2465,-0.04037 -0.23588,0 -0.34213,0.180628 -0.10625,0.178503 -0.10625,0.537635 0,0.357006 0.10625,0.527009 0.10625,0.170004 0.33363,0.170004 0.18488,0 0.33575,-0.04675 0.15088,-0.04888 0.30814,-0.123253 v 0.53976 q -0.0786,0.03825 -0.15301,0.068 -0.0744,0.02975 -0.15088,0.04888 -0.0744,0.01912 -0.15725,0.02763 -0.0808,0.01062 -0.17425,0.01062 z m 1.60784,-1.334524 0.23801,-0.361257 0.58013,-0.722513 h 0.73102 l -0.85852,1.030644 0.91377,1.345149 h -0.74801 l -0.57802,-0.913766 -0.25288,0.174253 v 0.739513 h -0.64813 v -3.30656 h 0.64813 V 52.84 l -0.034,0.53976 z"
         id="text42-6"
         aria-label="Track" /></g><g
       id="g74"
       inkscape:label="Timecode"><rect
         style="fill:#2c2b30;fill-opacity:1;stroke:none;stroke-width:0.79375;stroke-opacity:1"
         id="rect49-5"
         width="17.197912"
         height="4.4979167"
         x="244.15866"
         y="60.655727" /><path
         style="font-size:3.58405px;font-family:'Droid Sans';-inkscape-font-specification:'Droid Sans';text-align:center;text-anchor:middle;fill:#dddde0;stroke-width:0.529167"
         d="m 246.3759,64.074097 h -0.32725 v -2.271532 h -0.73151 v -0.287004 h 1.78852 v 0.287004 h -0.72976 z m 1.38952,0 h -0.3185 V 62.15257 h 0.3185 z m -0.343,-2.441284 q 0,-0.105002 0.0525,-0.152252 0.0542,-0.04725 0.133,-0.04725 0.0385,0 0.0717,0.01225 0.035,0.0105 0.0595,0.035 0.0263,0.0245 0.0402,0.063 0.0158,0.03675 0.0158,0.08925 0,0.101501 -0.056,0.152252 -0.0542,0.049 -0.13125,0.049 -0.0788,0 -0.133,-0.049 -0.0525,-0.049 -0.0525,-0.152252 z m 3.121,2.441284 v -1.237268 q 0,-0.227503 -0.0875,-0.341254 -0.0875,-0.113752 -0.27125,-0.113752 -0.12776,0 -0.21701,0.042 -0.0892,0.04025 -0.147,0.120751 -0.056,0.07875 -0.0823,0.197753 -0.0262,0.117252 -0.0262,0.271254 v 1.060515 h -0.32025 v -1.237268 q 0,-0.227503 -0.0875,-0.341254 -0.0857,-0.113752 -0.2695,-0.113752 -0.13475,0 -0.22575,0.0455 -0.091,0.0455 -0.14701,0.134752 -0.0542,0.08925 -0.0787,0.218753 -0.0228,0.129501 -0.0228,0.297504 v 0.995764 h -0.3185 V 62.15257 h 0.259 l 0.0455,0.259004 h 0.0175 q 0.042,-0.07525 0.0998,-0.129502 0.0578,-0.056 0.12601,-0.09275 0.07,-0.03675 0.147,-0.05425 0.0787,-0.0175 0.15925,-0.0175 0.21,0 0.34826,0.077 0.14,0.077 0.2065,0.241504 h 0.014 q 0.0455,-0.08225 0.1085,-0.141752 0.0647,-0.0595 0.14,-0.098 0.077,-0.04025 0.161,-0.0595 0.084,-0.01925 0.17151,-0.01925 0.30625,0 0.46025,0.168003 0.15576,0.166252 0.15576,0.533757 v 1.254768 z m 1.53723,0.035 q -0.1925,0 -0.35175,-0.06475 -0.15925,-0.06475 -0.27476,-0.189002 -0.11375,-0.124252 -0.17675,-0.308005 -0.063,-0.183752 -0.063,-0.420006 0,-0.238003 0.0577,-0.425255 0.0577,-0.187253 0.16275,-0.316755 0.105,-0.131252 0.25026,-0.199503 0.147,-0.06825 0.32375,-0.06825 0.17325,0 0.31151,0.063 0.13825,0.06125 0.2345,0.175003 0.0962,0.112001 0.147,0.271254 0.0525,0.157502 0.0525,0.350004 v 0.197753 h -1.21101 q 0.009,0.337755 0.14175,0.497007 0.13475,0.159252 0.399,0.159252 0.0892,0 0.1645,-0.0087 0.077,-0.0087 0.14701,-0.0245 0.0718,-0.0175 0.13825,-0.042 0.0665,-0.02625 0.13475,-0.05775 v 0.283504 q -0.07,0.03325 -0.13825,0.05775 -0.0665,0.0245 -0.13825,0.04025 -0.07,0.01575 -0.14701,0.02275 -0.0752,0.007 -0.1645,0.007 z m -0.0787,-1.727274 q -0.1995,0 -0.31675,0.136502 -0.1155,0.136502 -0.13475,0.397256 h 0.86101 q 0,-0.119002 -0.0245,-0.217003 -0.0228,-0.09975 -0.0735,-0.169753 -0.049,-0.07 -0.12601,-0.108501 -0.077,-0.0385 -0.1855,-0.0385 z m 1.90613,1.727274 q -0.17675,0 -0.33075,-0.05425 -0.154,-0.056 -0.26776,-0.175002 -0.11375,-0.120752 -0.1785,-0.306254 -0.0648,-0.187253 -0.0648,-0.449757 0,-0.274753 0.0665,-0.465506 0.0665,-0.192503 0.182,-0.311504 0.11726,-0.120752 0.27301,-0.175003 0.15575,-0.05425 0.33425,-0.05425 0.13651,0 0.26601,0.02975 0.13125,0.02975 0.21875,0.0735 l -0.0945,0.269504 q -0.0402,-0.0175 -0.0892,-0.03325 -0.049,-0.0175 -0.1015,-0.02975 -0.0525,-0.014 -0.10326,-0.021 -0.0507,-0.0087 -0.0962,-0.0087 -0.27475,0 -0.40075,0.176753 -0.126,0.175002 -0.126,0.546007 0,0.369256 0.126,0.540758 0.12775,0.169752 0.38675,0.169752 0.14176,0 0.25551,-0.0315 0.1155,-0.03325 0.21,-0.077 v 0.283504 q -0.0945,0.05075 -0.203,0.077 -0.10675,0.02625 -0.26251,0.02625 z m 2.358,-0.999264 q 0,0.239754 -0.0595,0.427006 -0.0578,0.185503 -0.16801,0.313255 -0.1085,0.126001 -0.26425,0.192502 -0.15575,0.0665 -0.35001,0.0665 -0.18025,0 -0.3325,-0.0665 -0.15225,-0.0665 -0.26425,-0.192502 -0.11026,-0.127752 -0.17326,-0.313255 -0.0613,-0.187252 -0.0613,-0.427006 0,-0.238003 0.0577,-0.421756 0.0595,-0.185502 0.16801,-0.311504 0.1085,-0.127752 0.26425,-0.192503 0.1575,-0.0665 0.35175,-0.0665 0.18026,0 0.33251,0.0665 0.15225,0.06475 0.2625,0.192503 0.112,0.126002 0.17326,0.311504 0.063,0.183753 0.063,0.421756 z m -1.34402,0 q 0,0.365755 0.119,0.551258 0.12075,0.183752 0.39025,0.183752 0.26951,0 0.38676,-0.183752 0.119,-0.185503 0.119,-0.551258 0,-0.365755 -0.12075,-0.546007 -0.119,-0.182003 -0.38851,-0.182003 -0.2695,0 -0.3885,0.182003 -0.11725,0.180252 -0.11725,0.546007 z m 2.9005,0.70701 h -0.014 q -0.0385,0.0595 -0.091,0.113752 -0.0507,0.0525 -0.119,0.09275 -0.0665,0.04025 -0.15051,0.063 -0.084,0.02275 -0.189,0.02275 -0.16275,0 -0.2975,-0.063 -0.13476,-0.063 -0.23101,-0.187252 -0.0962,-0.126002 -0.14875,-0.311505 -0.0525,-0.185502 -0.0525,-0.430506 0,-0.246753 0.0525,-0.432256 0.0525,-0.187252 0.14875,-0.313254 0.0962,-0.126002 0.23101,-0.189003 0.13475,-0.06475 0.2975,-0.06475 0.10325,0 0.18725,0.02275 0.084,0.02275 0.15051,0.06125 0.0682,0.0385 0.12075,0.08925 0.0525,0.05075 0.091,0.106751 h 0.021 q -0.005,-0.0595 -0.0105,-0.113751 -0.003,-0.0455 -0.007,-0.09275 -0.003,-0.049 -0.003,-0.077 v -0.76301 h 0.3185 v 2.723038 h -0.25725 z m -0.50226,0.028 q 0.133,0 0.224,-0.04025 0.0928,-0.04025 0.14876,-0.122502 0.0577,-0.08225 0.084,-0.204753 0.028,-0.124251 0.0315,-0.288754 v -0.07175 q 0,-0.176752 -0.0245,-0.313254 -0.0228,-0.138252 -0.0805,-0.231003 -0.056,-0.0945 -0.15051,-0.141752 -0.0945,-0.049 -0.23625,-0.049 -0.23625,0 -0.34825,0.190753 -0.11026,0.190752 -0.11026,0.547757 0,0.365755 0.11026,0.546008 0.112,0.178502 0.35175,0.178502 z m 2.04299,0.264254 q -0.1925,0 -0.35176,-0.06475 -0.15925,-0.06475 -0.27475,-0.189002 -0.11375,-0.124252 -0.17675,-0.308005 -0.063,-0.183752 -0.063,-0.420006 0,-0.238003 0.0577,-0.425255 0.0577,-0.187253 0.16275,-0.316755 0.105,-0.131252 0.25025,-0.199503 0.14701,-0.06825 0.32376,-0.06825 0.17325,0 0.3115,0.063 0.13825,0.06125 0.23451,0.175003 0.0962,0.112001 0.147,0.271254 0.0525,0.157502 0.0525,0.350004 v 0.197753 h -1.21102 q 0.009,0.337755 0.14175,0.497007 0.13476,0.159252 0.39901,0.159252 0.0892,0 0.1645,-0.0087 0.077,-0.0087 0.147,-0.0245 0.0718,-0.0175 0.13826,-0.042 0.0665,-0.02625 0.13475,-0.05775 v 0.283504 q -0.07,0.03325 -0.13825,0.05775 -0.0665,0.0245 -0.13826,0.04025 -0.07,0.01575 -0.147,0.02275 -0.0752,0.007 -0.1645,0.007 z m -0.0788,-1.727274 q -0.1995,0 -0.31676,0.136502 -0.1155,0.136502 -0.13475,0.397256 h 0.86101 q 0,-0.119002 -0.0245,-0.217003 -0.0227,-0.09975 -0.0735,-0.169753 -0.049,-0.07 -0.126,-0.108501 -0.077,-0.0385 -0.1855,-0.0385 z"
         id="text49-9"
         aria-label="Timecode" /></g><rect
       style="fill:#6dd0f5;fill-opacity:1;stroke:#4c93d5;stroke-width:0.79375;stroke-opacity:1"
       id="rect71"
       width="17.183376"
       height="10.921993"
       x="244.08539"
       y="68.739655"
       rx="0"
       ry="1.2637023" /><g
       id="text71"
       style="font-size:4.35208px;font-family:'Droid Sans';-inkscape-font-specification:'Droid Sans';fill:#1e1e1e;stroke-width:0.529166"
       aria-label="Edit&#10;Plugins"><path
         style="font-weight:bold;text-align:center;text-anchor:middle"
         d="m 251.11409,73.70517 h -1.78928 v -3.106807 h 1.78928 v 0.53976 h -1.13052 v 0.682137 h 1.0519 v 0.53976 h -1.0519 v 0.80114 h 1.13052 z m 1.09784,0.0425 q -0.18276,0 -0.33363,-0.07863 -0.15088,-0.07863 -0.25926,-0.231629 -0.10837,-0.155128 -0.17,-0.384632 -0.0595,-0.229505 -0.0595,-0.53126 0,-0.306006 0.0595,-0.53551 0.0616,-0.231629 0.17213,-0.386757 0.11262,-0.157253 0.26775,-0.235879 0.15513,-0.07863 0.34213,-0.07863 0.11476,0 0.21038,0.02763 0.0956,0.0255 0.17213,0.07438 0.0765,0.04675 0.136,0.110502 0.0616,0.06163 0.10838,0.136003 h 0.0212 q -0.0127,-0.08288 -0.0234,-0.167878 -0.0106,-0.07225 -0.0191,-0.153003 -0.006,-0.08288 -0.006,-0.153003 V 70.39861 h 0.64814 v 3.306561 h -0.49513 l -0.12538,-0.308131 h -0.0276 q -0.0446,0.07225 -0.102,0.138128 -0.0574,0.06375 -0.13387,0.110502 -0.0744,0.04675 -0.17001,0.07438 -0.0935,0.02763 -0.2125,0.02763 z m 0.23588,-0.516384 q 0.11475,0 0.1955,-0.03825 0.0807,-0.04037 0.12963,-0.119002 0.051,-0.08075 0.0744,-0.199754 0.0255,-0.119002 0.0276,-0.27838 v -0.07013 q 0,-0.172128 -0.0213,-0.306006 -0.0213,-0.133877 -0.0701,-0.223129 -0.0489,-0.09138 -0.13175,-0.138127 -0.0829,-0.04675 -0.20825,-0.04675 -0.20401,0 -0.29963,0.184878 -0.0956,0.182754 -0.0956,0.533385 0,0.350632 0.0956,0.52701 0.0977,0.174253 0.30388,0.174253 z m 1.48459,-2.516046 q 0,-0.09138 0.0276,-0.150878 0.0276,-0.06163 0.0744,-0.09775 0.0489,-0.03825 0.11263,-0.05313 0.0659,-0.01488 0.13813,-0.01488 0.0722,0 0.136,0.01488 0.0638,0.01488 0.1105,0.05313 0.0489,0.03613 0.0765,0.09775 0.0298,0.0595 0.0298,0.150878 0,0.08925 -0.0298,0.150878 -0.0276,0.06163 -0.0765,0.09988 -0.0467,0.03613 -0.1105,0.05313 -0.0637,0.01488 -0.136,0.01488 -0.0722,0 -0.13813,-0.01488 -0.0637,-0.017 -0.11263,-0.05313 -0.0468,-0.03825 -0.0744,-0.09988 -0.0276,-0.06163 -0.0276,-0.150878 z m 0.67576,2.98993 h -0.64813 v -2.375794 h 0.64813 z m 1.57864,-0.473884 q 0.0956,0 0.18063,-0.02125 0.0871,-0.02125 0.17637,-0.05313 v 0.482383 q -0.0914,0.04675 -0.22738,0.0765 -0.13387,0.03187 -0.29325,0.03187 -0.15513,0 -0.28901,-0.03612 -0.13387,-0.03613 -0.23162,-0.125378 -0.0978,-0.09138 -0.15513,-0.242254 -0.0553,-0.153003 -0.0553,-0.382507 v -1.14539 h -0.31026 v -0.27413 l 0.35701,-0.216754 0.187,-0.501509 h 0.41438 v 0.505759 h 0.57801 v 0.486634 h -0.57801 v 1.145396 q 0,0.138128 0.068,0.204004 0.068,0.06588 0.17851,0.06588 z"
         id="path224" /><path
         style="font-weight:bold;text-align:center;text-anchor:middle"
         d="m 246.88157,75.846844 h 0.12963 q 0.27838,0 0.41863,-0.110502 0.14238,-0.110502 0.14238,-0.359132 0,-0.231629 -0.12751,-0.342131 -0.12537,-0.110502 -0.39525,-0.110502 h -0.16788 z m 1.3579,-0.493009 q 0,0.204004 -0.0616,0.391007 -0.0616,0.187004 -0.204,0.329381 -0.14025,0.142378 -0.37188,0.227379 -0.22951,0.085 -0.56951,0.085 h -0.15088 v 1.10502 h -0.65876 v -3.106807 h 0.86276 q 0.29963,0 0.51639,0.068 0.21888,0.06588 0.35913,0.191254 0.14238,0.123252 0.21038,0.303881 0.068,0.178503 0.068,0.405882 z m 0.91906,2.137789 h -0.64813 v -3.30656 h 0.64813 z m 1.96884,0 -0.0871,-0.30388 h -0.034 q -0.0531,0.09138 -0.1275,0.157253 -0.0723,0.06375 -0.15938,0.106251 -0.0871,0.0425 -0.18488,0.06163 -0.0977,0.02125 -0.19975,0.02125 -0.17426,0 -0.31663,-0.04888 -0.14238,-0.051 -0.24438,-0.157253 -0.10201,-0.106252 -0.15726,-0.26988 -0.0553,-0.163628 -0.0553,-0.393132 V 75.11583 h 0.64814 v 1.38765 q 0,0.25713 0.0765,0.386757 0.0786,0.127503 0.24863,0.127503 0.1275,0 0.2125,-0.051 0.085,-0.051 0.13388,-0.150878 0.051,-0.09988 0.0722,-0.246505 0.0212,-0.146627 0.0212,-0.335756 v -1.11777 h 0.64814 v 2.375793 z m 2.94237,-2.371543 v 0.352756 l -0.34639,0.108377 q 0.0425,0.07225 0.0595,0.150878 0.017,0.0765 0.017,0.165753 0,0.180628 -0.0574,0.331506 -0.0574,0.148753 -0.17,0.255005 -0.11263,0.106252 -0.28263,0.165753 -0.17001,0.05738 -0.39526,0.05738 -0.0489,0 -0.10625,-0.0042 -0.0574,-0.0064 -0.085,-0.01275 -0.0425,0.03612 -0.068,0.0765 -0.0234,0.03825 -0.0234,0.0935 0,0.04462 0.0276,0.07225 0.0276,0.0255 0.0723,0.0425 0.0446,0.01488 0.10412,0.02125 0.0595,0.0042 0.12325,0.0042 h 0.36976 q 0.17213,0 0.30813,0.04038 0.136,0.03825 0.22951,0.119002 0.0956,0.08075 0.14662,0.206129 0.051,0.123252 0.051,0.29538 0,0.201879 -0.0808,0.363382 -0.0807,0.163628 -0.24225,0.276255 -0.15938,0.114752 -0.39738,0.174253 -0.23801,0.06163 -0.55039,0.06163 -0.24225,0 -0.42288,-0.04675 -0.18063,-0.04463 -0.30176,-0.131753 -0.12112,-0.085 -0.18275,-0.206129 -0.0595,-0.121127 -0.0595,-0.27413 0,-0.129627 0.0446,-0.225254 0.0446,-0.09563 0.119,-0.163628 0.0744,-0.068 0.16788,-0.110502 0.0956,-0.0425 0.1955,-0.06588 -0.0446,-0.01912 -0.0893,-0.05313 -0.0425,-0.034 -0.0786,-0.07863 -0.034,-0.04463 -0.0574,-0.09775 -0.0212,-0.05525 -0.0212,-0.114752 0,-0.068 0.0191,-0.123253 0.0213,-0.05525 0.0595,-0.102001 0.0383,-0.04888 0.0956,-0.09138 0.0574,-0.0425 0.12962,-0.08713 -0.187,-0.08075 -0.2975,-0.259255 -0.10838,-0.178503 -0.10838,-0.420757 0,-0.191254 0.0595,-0.342132 0.0595,-0.150877 0.17426,-0.255004 0.11475,-0.106252 0.28475,-0.161503 0.17001,-0.05525 0.39101,-0.05525 0.0425,0 0.0956,0.0064 0.0531,0.0042 0.10412,0.01275 0.0531,0.0064 0.0978,0.01488 0.0446,0.0085 0.0701,0.01488 z m -1.70004,2.707299 q 0,0.05313 0.0213,0.102002 0.0234,0.051 0.0744,0.08925 0.051,0.03825 0.13388,0.0595 0.0829,0.02338 0.204,0.02338 0.33151,0 0.49939,-0.0935 0.16787,-0.0935 0.16787,-0.250755 0,-0.133877 -0.10412,-0.178503 -0.10413,-0.04463 -0.32301,-0.04463 h -0.29963 q -0.0574,0 -0.12325,0.01275 -0.0659,0.01488 -0.12113,0.04888 -0.0552,0.034 -0.0935,0.08925 -0.0361,0.05738 -0.0361,0.142377 z m 0.23376,-1.933785 q 0,0.193378 0.0722,0.29963 0.0722,0.106252 0.21888,0.106252 0.153,0 0.221,-0.106252 0.068,-0.106252 0.068,-0.29963 0,-0.191254 -0.068,-0.303881 -0.0659,-0.112627 -0.221,-0.112627 -0.29113,0 -0.29113,0.416508 z m 1.80814,-1.391901 q 0,-0.09138 0.0276,-0.150877 0.0276,-0.06163 0.0744,-0.09775 0.0489,-0.03825 0.11263,-0.05313 0.0659,-0.01488 0.13812,-0.01488 0.0722,0 0.13601,0.01488 0.0637,0.01488 0.1105,0.05313 0.0489,0.03612 0.0765,0.09775 0.0298,0.0595 0.0298,0.150877 0,0.08925 -0.0298,0.150878 -0.0276,0.06163 -0.0765,0.09988 -0.0468,0.03613 -0.1105,0.05313 -0.0638,0.01487 -0.13601,0.01487 -0.0722,0 -0.13812,-0.01487 -0.0638,-0.017 -0.11263,-0.05313 -0.0468,-0.03825 -0.0744,-0.09988 -0.0276,-0.06163 -0.0276,-0.150878 z m 0.67576,2.98993 h -0.64814 v -2.375793 h 0.64814 z m 2.47672,0 h -0.64814 v -1.38765 q 0,-0.25713 -0.0786,-0.384632 -0.0765,-0.129628 -0.2465,-0.129628 -0.1275,0 -0.21251,0.051 -0.085,0.051 -0.136,0.150878 -0.0489,0.09988 -0.0701,0.246505 -0.0213,0.146627 -0.0213,0.335756 v 1.11777 h -0.64814 V 75.11583 h 0.49513 l 0.0871,0.30388 h 0.0361 q 0.051,-0.09138 0.12325,-0.157253 0.0744,-0.06588 0.1615,-0.108377 0.0871,-0.0425 0.18488,-0.06163 0.0978,-0.02125 0.19975,-0.02125 0.17426,0 0.31663,0.051 0.14238,0.04888 0.24438,0.155128 0.102,0.106252 0.15726,0.272005 0.0553,0.163628 0.0553,0.393132 z m 2.05198,-0.705513 q 0,0.187004 -0.068,0.327256 -0.068,0.140253 -0.19337,0.233755 -0.12538,0.0935 -0.30389,0.140252 -0.1785,0.04675 -0.3995,0.04675 -0.11688,0 -0.21676,-0.0085 -0.0999,-0.0064 -0.18913,-0.02338 -0.0892,-0.017 -0.17212,-0.0425 -0.0829,-0.0255 -0.16788,-0.06375 v -0.535509 q 0.0892,0.04462 0.187,0.08075 0.0999,0.03613 0.19763,0.06375 0.0978,0.0255 0.18913,0.04038 0.0935,0.01488 0.17213,0.01488 0.0871,0 0.14875,-0.01488 0.0616,-0.017 0.0999,-0.04463 0.0404,-0.02975 0.0574,-0.068 0.0191,-0.04038 0.0191,-0.085 0,-0.04462 -0.0149,-0.07863 -0.0128,-0.03613 -0.0616,-0.07438 -0.0489,-0.04038 -0.14451,-0.08925 -0.0935,-0.051 -0.25288,-0.123252 -0.15512,-0.07013 -0.26988,-0.138128 -0.11262,-0.07013 -0.187,-0.155128 -0.0722,-0.085 -0.10838,-0.193378 -0.0361,-0.110502 -0.0361,-0.26138 0,-0.165753 0.0638,-0.289005 0.0638,-0.125378 0.18063,-0.208254 0.11688,-0.08288 0.2805,-0.123252 0.16576,-0.0425 0.36763,-0.0425 0.21251,0 0.40376,0.04888 0.19126,0.04888 0.39313,0.146627 l -0.1955,0.459009 q -0.1615,-0.0765 -0.30813,-0.125377 -0.14663,-0.04888 -0.29326,-0.04888 -0.13175,0 -0.19125,0.04675 -0.0574,0.04675 -0.0574,0.127503 0,0.0425 0.0149,0.0765 0.0149,0.03188 0.0595,0.068 0.0446,0.034 0.12538,0.0765 0.0807,0.04038 0.21038,0.09988 0.15088,0.06588 0.272,0.131752 0.12113,0.06375 0.20826,0.146628 0.0871,0.08288 0.13387,0.193378 0.0468,0.110502 0.0468,0.267755 z"
         id="path225" /></g><circle
       style="fill:#f43917;fill-opacity:1;stroke:#ffffff;stroke-width:0.529167;stroke-opacity:1;-inkscape-stroke:none"
       id="circle22"
       cx="261.68784"
       cy="68.342781"
       r="3.5005553" /><path
       style="font-weight:bold;font-size:4.30526px;font-family:'Droid Sans';-inkscape-font-specification:'Droid Sans Bold';fill:#ffffff;stroke-width:2.11667"
       d="m 238.69639,76.810776 h -2.06223 V 76.358808 L 237.3573,75.5789 q 0.13665,-0.147153 0.24806,-0.271181 0.11142,-0.124029 0.1913,-0.241751 0.0799,-0.117722 0.12403,-0.239648 0.0441,-0.121926 0.0441,-0.262772 0,-0.155561 -0.0946,-0.241751 -0.0925,-0.08619 -0.25016,-0.08619 -0.16608,0 -0.31953,0.08199 -0.15346,0.08199 -0.32164,0.233342 l -0.35316,-0.418334 q 0.0946,-0.08619 0.1976,-0.16397 0.10301,-0.07988 0.22704,-0.140846 0.12403,-0.06096 0.27328,-0.0967 0.14925,-0.03784 0.33425,-0.03784 0.22072,0 0.39521,0.06096 0.17658,0.06096 0.30061,0.174481 0.12403,0.111415 0.18919,0.271181 0.0673,0.159765 0.0673,0.359472 0,0.180788 -0.0631,0.34686 -0.0631,0.16397 -0.17238,0.323735 -0.10931,0.157663 -0.25436,0.315327 -0.14295,0.155561 -0.30692,0.317429 l -0.36999,0.372085 v 0.02943 h 1.2529 z"
       id="text22"
       transform="scale(1.1010968,0.90818536)"
       aria-label="2" /><rect
       style="fill:#6dd0f5;fill-opacity:1;stroke:#4c93d5;stroke-width:0.79375;stroke-opacity:1"
       id="rect72"
       width="17.183376"
       height="10.921993"
       x="244.08539"
       y="89.082016"
       rx="0"
       ry="1.2637023" /><path
       style="font-weight:bold;font-size:4.35208px;font-family:'Droid Sans';-inkscape-font-specification:'Droid Sans';text-align:center;text-anchor:middle;fill:#1e1e1e;stroke-width:0.529166"
       d="m 249.26471,94.910321 q 0,0.208254 -0.0722,0.376132 -0.0701,0.165753 -0.20825,0.284755 -0.13601,0.116877 -0.33576,0.180628 -0.19763,0.06375 -0.45476,0.06375 -0.22525,0 -0.43563,-0.04675 -0.20825,-0.04675 -0.38676,-0.140252 v -0.612011 q 0.102,0.04888 0.20613,0.09563 0.10413,0.04463 0.21038,0.08075 0.10838,0.03613 0.21463,0.05738 0.10838,0.02125 0.21463,0.02125 0.10838,0 0.18488,-0.02337 0.0786,-0.0255 0.12537,-0.068 0.0489,-0.04463 0.0701,-0.104127 0.0234,-0.06163 0.0234,-0.133878 0,-0.08713 -0.0383,-0.153003 -0.0361,-0.068 -0.10412,-0.125377 -0.0659,-0.0595 -0.16151,-0.114752 -0.0935,-0.05525 -0.21037,-0.116877 -0.0978,-0.051 -0.21888,-0.123252 -0.12113,-0.07225 -0.22951,-0.178504 -0.10625,-0.108377 -0.1785,-0.259254 -0.0722,-0.153003 -0.0722,-0.365507 0,-0.208254 0.068,-0.371882 0.0701,-0.165753 0.19763,-0.27838 0.1275,-0.114752 0.30813,-0.174253 0.18275,-0.0595 0.40801,-0.0595 0.11262,0 0.21888,0.01487 0.10837,0.01488 0.2125,0.0425 0.10625,0.02763 0.2125,0.068 0.10625,0.04038 0.21888,0.0935 l -0.2125,0.512134 q -0.0956,-0.04463 -0.17851,-0.07863 -0.0829,-0.034 -0.1615,-0.05738 -0.0786,-0.02338 -0.15513,-0.034 -0.0744,-0.01275 -0.15087,-0.01275 -0.16576,0 -0.25501,0.08925 -0.0871,0.08713 -0.0871,0.233755 0,0.07863 0.0255,0.140252 0.0276,0.0595 0.085,0.112627 0.0595,0.05313 0.15087,0.108377 0.0935,0.05525 0.22526,0.125378 0.15938,0.085 0.29325,0.174253 0.13388,0.08713 0.22951,0.195503 0.0977,0.106252 0.15088,0.242255 0.0531,0.136002 0.0531,0.318756 z m 1.2069,-1.09652 q -0.17213,0 -0.28688,0.121127 -0.11263,0.121127 -0.12963,0.380382 h 0.82664 q -0.002,-0.108377 -0.0276,-0.199754 -0.0255,-0.09138 -0.0765,-0.157253 -0.051,-0.068 -0.1275,-0.106252 -0.0765,-0.03825 -0.1785,-0.03825 z m 0.0829,2.001786 q -0.255,0 -0.46963,-0.07438 -0.21463,-0.07438 -0.36976,-0.223129 -0.15513,-0.150878 -0.24225,-0.378257 -0.085,-0.229504 -0.085,-0.537635 0,-0.312381 0.0786,-0.546135 0.0786,-0.233754 0.21888,-0.388882 0.14238,-0.157253 0.34001,-0.235879 0.19975,-0.07863 0.44201,-0.07863 0.23588,0 0.425,0.07225 0.19126,0.07013 0.32301,0.208254 0.13388,0.138128 0.204,0.340007 0.0723,0.199753 0.0723,0.459008 v 0.314506 h -1.44928 q 0.004,0.136002 0.0425,0.246504 0.0404,0.108377 0.1105,0.184879 0.0722,0.07438 0.17213,0.114752 0.102,0.04037 0.23163,0.04037 0.10838,0 0.204,-0.01063 0.0977,-0.01275 0.18913,-0.03612 0.0914,-0.02338 0.18063,-0.05738 0.0893,-0.03613 0.18275,-0.08288 v 0.501509 q -0.085,0.04463 -0.17213,0.0765 -0.085,0.02975 -0.18062,0.051 -0.0956,0.02125 -0.20613,0.02975 -0.1105,0.01062 -0.24226,0.01062 z m 3.26606,-0.0425 h -0.64814 v -1.387651 q 0,-0.25713 -0.0786,-0.384632 -0.0765,-0.129627 -0.24651,-0.129627 -0.1275,0 -0.2125,0.051 -0.085,0.051 -0.136,0.150877 -0.0489,0.09988 -0.0701,0.246505 -0.0213,0.146628 -0.0213,0.335756 v 1.117771 h -0.64814 v -2.375794 h 0.49514 l 0.0871,0.303881 h 0.0361 q 0.051,-0.09138 0.12325,-0.157253 0.0744,-0.06588 0.1615,-0.108377 0.0871,-0.0425 0.18488,-0.06163 0.0977,-0.02125 0.19976,-0.02125 0.17425,0 0.31663,0.051 0.14237,0.04888 0.24438,0.155128 0.102,0.106252 0.15725,0.272005 0.0553,0.163628 0.0553,0.393132 z m 1.11317,0.0425 q -0.18276,0 -0.33364,-0.07863 -0.15087,-0.07863 -0.25925,-0.231629 -0.10838,-0.155128 -0.17,-0.384632 -0.0595,-0.229505 -0.0595,-0.53126 0,-0.306006 0.0595,-0.53551 0.0616,-0.231629 0.17213,-0.386757 0.11262,-0.157253 0.26775,-0.235879 0.15513,-0.07863 0.34213,-0.07863 0.11475,0 0.21038,0.02763 0.0956,0.0255 0.17213,0.07438 0.0765,0.04675 0.136,0.110502 0.0616,0.06163 0.10838,0.136003 h 0.0212 q -0.0127,-0.08288 -0.0234,-0.167879 -0.0106,-0.07225 -0.0191,-0.153002 -0.006,-0.08288 -0.006,-0.153003 v -0.760764 h 0.64814 v 3.306561 h -0.49513 l -0.12538,-0.308131 h -0.0276 q -0.0446,0.07225 -0.102,0.138127 -0.0574,0.06375 -0.13388,0.110502 -0.0744,0.04675 -0.17,0.07438 -0.0935,0.02763 -0.2125,0.02763 z m 0.23588,-0.516384 q 0.11475,0 0.1955,-0.03825 0.0807,-0.04038 0.12963,-0.119002 0.051,-0.08075 0.0744,-0.199754 0.0255,-0.119002 0.0276,-0.27838 v -0.07013 q 0,-0.172128 -0.0213,-0.306006 -0.0213,-0.133877 -0.0701,-0.223129 -0.0489,-0.09138 -0.13175,-0.138127 -0.0829,-0.04675 -0.20825,-0.04675 -0.20401,0 -0.29964,0.184878 -0.0956,0.182754 -0.0956,0.533385 0,0.350631 0.0956,0.52701 0.0978,0.174253 0.30389,0.174253 z m 3.10672,-0.231629 q 0,0.187003 -0.068,0.327256 -0.068,0.140252 -0.19338,0.233754 -0.12538,0.0935 -0.30388,0.140252 -0.17851,0.04675 -0.39951,0.04675 -0.11688,0 -0.21675,-0.0085 -0.0999,-0.0064 -0.18913,-0.02338 -0.0892,-0.017 -0.17213,-0.0425 -0.0829,-0.0255 -0.16788,-0.06375 v -0.53551 q 0.0892,0.04463 0.187,0.08075 0.0999,0.03613 0.19763,0.06375 0.0977,0.0255 0.18913,0.04038 0.0935,0.01488 0.17213,0.01488 0.0871,0 0.14875,-0.01488 0.0616,-0.017 0.0999,-0.04463 0.0404,-0.02975 0.0574,-0.068 0.0191,-0.04037 0.0191,-0.085 0,-0.04463 -0.0149,-0.07863 -0.0127,-0.03612 -0.0616,-0.07438 -0.0489,-0.04038 -0.1445,-0.08925 -0.0935,-0.051 -0.25288,-0.123252 -0.15513,-0.07013 -0.26988,-0.138128 -0.11263,-0.07013 -0.18701,-0.155127 -0.0722,-0.085 -0.10837,-0.193379 -0.0361,-0.110502 -0.0361,-0.26138 0,-0.165753 0.0638,-0.289005 0.0637,-0.125377 0.18063,-0.208254 0.11688,-0.08288 0.28051,-0.123252 0.16575,-0.0425 0.36763,-0.0425 0.2125,0 0.40375,0.04888 0.19126,0.04888 0.39314,0.146628 l -0.19551,0.459008 q -0.1615,-0.0765 -0.30813,-0.125377 -0.14663,-0.04888 -0.29325,-0.04888 -0.13176,0 -0.19126,0.04675 -0.0574,0.04675 -0.0574,0.127502 0,0.0425 0.0149,0.0765 0.0149,0.03187 0.0595,0.068 0.0446,0.034 0.12538,0.0765 0.0808,0.04038 0.21038,0.09988 0.15088,0.06588 0.272,0.131752 0.12113,0.06375 0.20826,0.146628 0.0871,0.08288 0.13388,0.193379 0.0468,0.110502 0.0468,0.267755 z"
       id="text73"
       aria-label="Sends" /><circle
       style="fill:#f43917;fill-opacity:1;stroke:#ffffff;stroke-width:0.529167;stroke-opacity:1;-inkscape-stroke:none"
       id="circle23"
       cx="261.68784"
       cy="88.724533"
       r="3.5005553" /><path
       style="font-weight:bold;font-size:4.30526px;font-family:'Droid Sans';-inkscape-font-specification:'Droid Sans Bold';fill:#ffffff;stroke-width:2.11667"
       d="m 238.61336,96.802703 q 0,0.159766 -0.0526,0.287998 -0.0505,0.126131 -0.14084,0.222831 -0.0883,0.0946 -0.21022,0.159766 -0.11983,0.06306 -0.26067,0.0967 v 0.01261 q 0.37208,0.04625 0.56338,0.227035 0.1913,0.178685 0.1913,0.483501 0,0.201809 -0.0736,0.374188 -0.0715,0.170276 -0.22283,0.296407 -0.14925,0.126131 -0.37839,0.197605 -0.22703,0.06937 -0.53605,0.06937 -0.24806,0 -0.46669,-0.04204 -0.21862,-0.03994 -0.40782,-0.124029 v -0.552872 q 0.0946,0.05045 0.19971,0.08829 0.10511,0.03784 0.21021,0.06517 0.10511,0.02523 0.20602,0.03784 0.103,0.01261 0.1934,0.01261 0.18079,0 0.30061,-0.03363 0.11982,-0.03364 0.1913,-0.0946 0.0715,-0.06096 0.1009,-0.14505 0.0315,-0.08619 0.0315,-0.187094 0,-0.0946 -0.0399,-0.170276 -0.0378,-0.07778 -0.12613,-0.130335 -0.0862,-0.05466 -0.22703,-0.08409 -0.14085,-0.02943 -0.34686,-0.02943 h -0.21863 v -0.456173 h 0.21442 q 0.1934,0 0.32164,-0.03363 0.12823,-0.03574 0.20391,-0.0946 0.0778,-0.06096 0.10931,-0.140846 0.0315,-0.07988 0.0315,-0.170277 0,-0.16397 -0.103,-0.256466 -0.10091,-0.09249 -0.32164,-0.09249 -0.1009,0 -0.18919,0.02102 -0.0862,0.01892 -0.16187,0.05045 -0.0736,0.02943 -0.13664,0.06727 -0.061,0.03574 -0.11142,0.07147 l -0.32794,-0.433048 q 0.0883,-0.06517 0.1913,-0.119824 0.10511,-0.05466 0.22704,-0.0946 0.12192,-0.04204 0.26277,-0.06517 0.14085,-0.02312 0.30061,-0.02312 0.22704,0 0.41203,0.05045 0.18709,0.04835 0.31953,0.142949 0.13244,0.09249 0.20391,0.229137 0.0736,0.134539 0.0736,0.30902 z"
       id="text23"
       transform="scale(1.1010968,0.90818536)"
       aria-label="3" /><rect
       style="fill:#6dd0f5;fill-opacity:1;stroke:#4c93d5;stroke-width:0.79375;stroke-opacity:1"
       id="rect73"
       width="17.183376"
       height="10.921993"
       x="244.08539"
       y="109.68715"
       rx="0"
       ry="1.2637023" /><circle
       style="fill:#f43917;fill-opacity:1;stroke:#ffffff;stroke-width:0.529167;stroke-opacity:1;-inkscape-stroke:none"
       id="circle24"
       cx="261.68784"
       cy="109.29028"
       r="3.5005553" /><path
       style="font-weight:bold;font-size:4.30526px;font-family:'Droid Sans';-inkscape-font-specification:'Droid Sans Bold';fill:#ffffff;stroke-width:2.11667"
       d="m 238.54766,121.19663 h -0.36998 v 0.63696 h -0.63276 v -0.63696 h -1.26971 v -0.45197 l 1.30545,-1.98446 h 0.59702 v 1.93191 h 0.36998 z m -1.00274,-0.50452 v -0.52135 q 0,-0.0273 0,-0.0778 0.002,-0.0525 0.004,-0.11772 0.002,-0.0652 0.004,-0.13454 0.004,-0.0694 0.006,-0.13243 0.004,-0.0631 0.006,-0.10932 0.004,-0.0483 0.006,-0.0694 h -0.0189 q -0.0378,0.0883 -0.0862,0.18709 -0.0462,0.0988 -0.10721,0.19761 l -0.51293,0.77781 z"
       id="text24"
       transform="scale(1.1010968,0.90818536)"
       aria-label="4" /><path
       style="font-weight:bold;font-size:4.35208px;font-family:'Droid Sans';-inkscape-font-specification:'Droid Sans';text-align:center;text-anchor:middle;fill:#1e1e1e;stroke-width:0.529166"
       d="m 250.27404,114.73344 h 0.12963 q 0.27838,0 0.41863,-0.1105 0.14238,-0.1105 0.14238,-0.35913 0,-0.23163 -0.1275,-0.34214 -0.12538,-0.1105 -0.39526,-0.1105 h -0.16788 z m 1.3579,-0.49301 q 0,0.204 -0.0616,0.39101 -0.0616,0.187 -0.20401,0.32938 -0.14025,0.14238 -0.37188,0.22738 -0.2295,0.085 -0.56951,0.085 h -0.15088 v 1.10502 h -0.65876 v -3.10681 h 0.86277 q 0.29963,0 0.51638,0.068 0.21888,0.0659 0.35913,0.19126 0.14238,0.12325 0.21038,0.30388 0.068,0.1785 0.068,0.40588 z m 1.58393,2.13779 -0.12537,-0.32301 h -0.0191 q -0.0701,0.0956 -0.14025,0.16576 -0.0701,0.068 -0.153,0.11262 -0.0829,0.0446 -0.18701,0.0659 -0.102,0.0213 -0.238,0.0213 -0.1445,0 -0.26776,-0.0446 -0.12325,-0.0468 -0.21463,-0.13812 -0.0892,-0.0935 -0.14025,-0.23376 -0.051,-0.14237 -0.051,-0.33575 0,-0.37826 0.24226,-0.55676 0.24225,-0.18063 0.72463,-0.19976 l 0.37826,-0.0127 v -0.1785 q 0,-0.14663 -0.085,-0.21675 -0.085,-0.0701 -0.23801,-0.0701 -0.153,0 -0.29963,0.0446 -0.1445,0.0446 -0.29113,0.11901 l -0.21037,-0.42926 q 0.1785,-0.0999 0.39525,-0.15725 0.21676,-0.0574 0.45476,-0.0574 0.44413,0 0.68001,0.20825 0.23801,0.20826 0.23801,0.63327 v 1.58315 z m -0.19125,-1.10077 -0.21463,0.008 q -0.12963,0.004 -0.21888,0.034 -0.0892,0.0297 -0.1445,0.0807 -0.0531,0.0489 -0.0786,0.119 -0.0234,0.068 -0.0234,0.15301 0,0.14875 0.0723,0.2125 0.0722,0.0616 0.18913,0.0616 0.0893,0 0.16575,-0.0297 0.0765,-0.0319 0.13175,-0.0914 0.0574,-0.0616 0.0893,-0.14875 0.0319,-0.0892 0.0319,-0.20401 z m 3.04171,1.10077 h -0.64814 v -1.38765 q 0,-0.25713 -0.0786,-0.38463 -0.0765,-0.12963 -0.24651,-0.12963 -0.1275,0 -0.2125,0.051 -0.085,0.051 -0.13601,0.15088 -0.0489,0.0999 -0.0701,0.2465 -0.0213,0.14663 -0.0213,0.33576 v 1.11777 h -0.64814 v -2.37579 h 0.49513 l 0.0871,0.30388 h 0.0361 q 0.051,-0.0914 0.12325,-0.15726 0.0744,-0.0659 0.1615,-0.10837 0.0871,-0.0425 0.18488,-0.0616 0.0977,-0.0212 0.19975,-0.0212 0.17426,0 0.31664,0.051 0.14237,0.0489 0.24437,0.15513 0.10201,0.10625 0.15726,0.272 0.0553,0.16363 0.0553,0.39314 z"
       id="text74"
       aria-label="Pan" /><circle
       style="fill:#f43917;fill-opacity:1;stroke:#ffffff;stroke-width:0.529167;stroke-opacity:1;-inkscape-stroke:none"
       id="circle21"
       cx="261.58823"
       cy="47.583836"
       r="3.5005553" /><path
       style="font-weight:bold;font-size:4.30526px;font-family:'Droid Sans';-inkscape-font-specification:'Droid Sans Bold';fill:#ffffff;stroke-width:2.11667"
       d="m 237.91507,53.88879 h -0.64958 v -1.778442 q 0,-0.05466 0,-0.130335 0.002,-0.07778 0.004,-0.159766 0.004,-0.08409 0.006,-0.168174 0.004,-0.08409 0.006,-0.153459 -0.0105,0.01261 -0.0357,0.03784 -0.0252,0.02523 -0.0568,0.05676 -0.0315,0.02943 -0.0652,0.06096 -0.0336,0.03153 -0.0652,0.05676 l -0.35317,0.283794 -0.31532,-0.391005 0.99012,-0.788317 h 0.53396 z"
       id="text21"
       transform="scale(1.1010968,0.90818536)"
       aria-label="1" /></g></svg>
