<?xml version="1.0" encoding="UTF-8" standalone="no"?>
<!-- Created with Inkscape (http://www.inkscape.org/) -->

<svg
   width="31.220833mm"
   height="109.00834mm"
   viewBox="0 0 31.220833 109.00834"
   version="1.1"
   id="svg1"
   xml:space="preserve"
   inkscape:version="1.4 (e7c3feb100, 2024-10-09)"
   sodipodi:docname="presonus-faderport8.svg"
   inkscape:export-filename="fp8_shift_large.svg"
   inkscape:export-xdpi="96"
   inkscape:export-ydpi="96"
   xmlns:inkscape="http://www.inkscape.org/namespaces/inkscape"
   xmlns:sodipodi="http://sodipodi.sourceforge.net/DTD/sodipodi-0.dtd"
   xmlns="http://www.w3.org/2000/svg"
   xmlns:svg="http://www.w3.org/2000/svg"><sodipodi:namedview
     id="namedview1"
     pagecolor="#ffffff"
     bordercolor="#000000"
     borderopacity="0.25"
     inkscape:showpageshadow="2"
     inkscape:pageopacity="0.0"
     inkscape:pagecheckerboard="0"
     inkscape:deskcolor="#d1d1d1"
     inkscape:document-units="mm"
     showguides="true"
     inkscape:zoom="1.4142136"
     inkscape:cx="725.138"
     inkscape:cy="464.2156"
     inkscape:window-width="1280"
     inkscape:window-height="683"
     inkscape:window-x="0"
     inkscape:window-y="0"
     inkscape:window-maximized="1"
     inkscape:current-layer="layer1"><sodipodi:guide
       position="-232.18994,55.501924"
       orientation="1,0"
       id="guide5"
       inkscape:locked="false" /><sodipodi:guide
       position="-260.40347,63.165966"
       orientation="1,0"
       id="guide6"
       inkscape:locked="false" /><sodipodi:guide
       position="-203.9381,64.562576"
       orientation="1,0"
       id="guide7"
       inkscape:locked="false" /><sodipodi:guide
       position="-190.31954,41.510908"
       orientation="1,0"
       id="guide8"
       inkscape:locked="false" /><sodipodi:guide
       position="-270.89894,28.886601"
       orientation="0,-1"
       id="guide9"
       inkscape:locked="false" /><sodipodi:guide
       position="-274.3995,32.387156"
       orientation="1,0"
       id="guide10"
       inkscape:locked="false" /><sodipodi:guide
       position="-142.68696,43.255253"
       orientation="1,0"
       id="guide11"
       inkscape:locked="false" /><sodipodi:guide
       position="-77.007912,43.293681"
       orientation="0,-1"
       id="guide12"
       inkscape:locked="false" /><sodipodi:guide
       position="-102.94201,25.121462"
       orientation="0,-1"
       id="guide13"
       inkscape:locked="false" /><sodipodi:guide
       position="-114.27385,43.255253"
       orientation="1,0"
       id="guide14"
       inkscape:locked="false" /><sodipodi:guide
       position="-86.480762,43.235912"
       orientation="1,0"
       id="guide15"
       inkscape:locked="false" /><sodipodi:guide
       position="-17.937149,81.645047"
       orientation="1,0"
       id="guide16"
       inkscape:locked="false" /><sodipodi:guide
       position="-59.030789,43.293681"
       orientation="1,0"
       id="guide24"
       inkscape:locked="false" /><sodipodi:guide
       position="-18.036749,81.334395"
       orientation="0,-1"
       id="guide25"
       inkscape:locked="false" /><sodipodi:guide
       position="-17.937149,60.575454"
       orientation="0,-1"
       id="guide26"
       inkscape:locked="false" /><sodipodi:guide
       position="-17.937149,40.233088"
       orientation="0,-1"
       id="guide27"
       inkscape:locked="false" /><sodipodi:guide
       position="-17.937149,19.627956"
       orientation="0,-1"
       id="guide28"
       inkscape:locked="false" /><inkscape:page
       x="0"
       y="5.5948929e-25"
       width="31.220833"
       height="109.00833"
       id="page28"
       margin="0"
       bleed="0"
       inkscape:label="fp8_mixmanage"
       inkscape:export-filename="fp8_fadermode.png"
       inkscape:export-xdpi="96"
       inkscape:export-ydpi="96" /><sodipodi:guide
       position="24.778091,81.334396"
       orientation="1,0"
       id="guide29"
       inkscape:locked="false" /><sodipodi:guide
       position="24.778091,-0.71329279"
       orientation="0,-1"
       id="guide32"
       inkscape:locked="false" /><sodipodi:guide
       position="-164.68253,0.66146523"
       orientation="1,0"
       id="guide33"
       inkscape:locked="false" /><sodipodi:guide
       position="-53.292929,0.66146331"
       orientation="1,0"
       id="guide34"
       inkscape:locked="false" /><sodipodi:guide
       position="-130.34627,-18.808229"
       orientation="1,0"
       id="guide35"
       inkscape:locked="false" /><sodipodi:guide
       position="-97.513252,-30.898168"
       orientation="1,0"
       id="guide36"
       inkscape:locked="false" /><sodipodi:guide
       position="-64.818213,-31.441098"
       orientation="1,0"
       id="guide37"
       inkscape:locked="false" /><sodipodi:guide
       position="-64.818213,-18.262491"
       orientation="0,-1"
       id="guide38"
       inkscape:locked="false" /><sodipodi:guide
       position="-64.818213,-43.025851"
       orientation="0,-1"
       id="guide39"
       inkscape:locked="false" /><sodipodi:guide
       position="-152.99867,-23.25243"
       orientation="1,0"
       id="guide40"
       inkscape:locked="false" /><sodipodi:guide
       position="-120.39158,-30.000114"
       orientation="1,0"
       id="guide41"
       inkscape:locked="false" /><sodipodi:guide
       position="-87.647112,-28.870339"
       orientation="1,0"
       id="guide42"
       inkscape:locked="false" /><sodipodi:guide
       position="-142.68696,-110.54348"
       orientation="0,-1"
       id="guide43"
       inkscape:locked="false" /><sodipodi:guide
       position="-35.936468,78.537946"
       orientation="1,0"
       id="guide69"
       inkscape:locked="false" /><sodipodi:guide
       position="-21.588839,74.239746"
       orientation="0,-1"
       id="guide70"
       inkscape:locked="false" /><sodipodi:guide
       position="-27.627459,77.355278"
       orientation="0,-1"
       id="guide71"
       inkscape:locked="false" /><sodipodi:guide
       position="-73.371872,73.093169"
       orientation="1,0"
       id="guide93"
       inkscape:locked="false" /><sodipodi:guide
       position="45.341641,82.814587"
       orientation="1,0"
       id="guide117"
       inkscape:locked="false" /><sodipodi:guide
       position="73.835441,85.162249"
       orientation="1,0"
       id="guide118"
       inkscape:locked="false" /><sodipodi:guide
       position="50.360521,69.949385"
       orientation="1,0"
       id="guide119"
       inkscape:locked="false" /><sodipodi:guide
       position="68.337641,69.949385"
       orientation="1,0"
       id="guide120"
       inkscape:locked="false" /><sodipodi:guide
       position="73.835441,44.601492"
       orientation="0,-1"
       id="guide128"
       inkscape:locked="false" /><sodipodi:guide
       position="75.670811,42.548058"
       orientation="0,-1"
       id="guide129"
       inkscape:locked="false" /><sodipodi:guide
       position="72.182701,-19.427241"
       orientation="0,-1"
       id="guide130"
       inkscape:locked="false" /><sodipodi:guide
       position="186.61768,71.352672"
       orientation="1,0"
       id="guide140"
       inkscape:locked="false" /><sodipodi:guide
       position="157.69167,-15.655244"
       orientation="0,-1"
       id="guide217"
       inkscape:locked="false" /></sodipodi:namedview><defs
     id="defs1" /><g
     inkscape:label="Layer 1"
     inkscape:groupmode="layer"
     id="layer1"
     transform="translate(-279.62499,-40.811978)"><g
       id="g75"><rect
         style="font-variation-settings:normal;opacity:1;vector-effect:none;fill:#2c2b30;fill-opacity:1;stroke:none;stroke-width:0.79375;stroke-linecap:round;stroke-linejoin:round;stroke-miterlimit:4;stroke-dasharray:none;stroke-dashoffset:0;stroke-opacity:1;-inkscape-stroke:none;stop-color:#000000;stop-opacity:1"
         id="rect75"
         width="31.220835"
         height="109.00833"
         x="279.625"
         y="40.811977"
         rx="0"
         ry="0" /><rect
         style="font-variation-settings:normal;display:inline;vector-effect:none;fill:#516070;fill-opacity:1;stroke:none;stroke-width:0.79375;stroke-linecap:butt;stroke-linejoin:miter;stroke-miterlimit:4;stroke-dasharray:none;stroke-dashoffset:0;stroke-opacity:1;-inkscape-stroke:none;stop-color:#000000"
         id="rect74-6"
         width="28.426178"
         height="105.92226"
         x="280.91486"
         y="42.300259"
         ry="1.8355469"
         rx="1.8355469"
         inkscape:label="fp8_fadermode_bg2" /></g><rect
       style="fill:#6dd0f5;fill-opacity:1;stroke:#4c93d5;stroke-width:0.79375;stroke-opacity:1"
       id="rect84"
       width="17.183376"
       height="10.921993"
       x="286.82288"
       y="130.00858"
       rx="0"
       ry="1.2637023" /><rect
       style="fill:#6dd0f5;fill-opacity:1;stroke:#4c93d5;stroke-width:0.79375;stroke-opacity:1"
       id="rect82"
       width="17.183376"
       height="10.921993"
       x="286.82285"
       y="109.52415"
       rx="0"
       ry="1.2637023" /><rect
       style="fill:#6dd0f5;fill-opacity:1;stroke:#4c93d5;stroke-width:0.79375;stroke-opacity:1"
       id="rect76"
       width="17.183376"
       height="10.921993"
       x="286.82281"
       y="47.649979"
       rx="0"
       ry="1.2637023" /><circle
       style="fill:#f43917;fill-opacity:1;stroke:#ffffff;stroke-width:0.529167;stroke-opacity:1;-inkscape-stroke:none"
       id="circle29"
       cx="304.40308"
       cy="47.583836"
       r="3.5005553" /><path
       style="font-weight:bold;font-size:4.35208px;font-family:'Droid Sans';-inkscape-font-specification:'Droid Sans';text-align:center;text-anchor:middle;fill:#1e1e1e;stroke-width:0.529166"
       d="m 292.1697,54.341049 -0.2125,-0.739513 h -1.07102 l -0.21463,0.739513 h -0.66514 l 1.00939,-3.119557 h 0.80539 l 1.01365,3.119557 z m -0.36551,-1.292024 -0.19975,-0.680012 q -0.0127,-0.03825 -0.0383,-0.125377 -0.0255,-0.08713 -0.0553,-0.191254 -0.0276,-0.106252 -0.0531,-0.212504 -0.0255,-0.106252 -0.0361,-0.180628 -0.009,0.04675 -0.0234,0.110502 -0.0127,0.06375 -0.0319,0.136003 -0.017,0.07013 -0.0361,0.142377 -0.0191,0.07225 -0.0361,0.136003 -0.017,0.06375 -0.0319,0.112627 -0.0128,0.04888 -0.0191,0.07225 l -0.19762,0.680012 z m 2.65947,1.292024 -0.0871,-0.30388 h -0.034 q -0.0531,0.09138 -0.1275,0.157253 -0.0723,0.06375 -0.15938,0.106251 -0.0871,0.0425 -0.18488,0.06163 -0.0978,0.02125 -0.19975,0.02125 -0.17426,0 -0.31664,-0.04888 -0.14237,-0.051 -0.24438,-0.157253 -0.102,-0.106252 -0.15725,-0.26988 -0.0553,-0.163628 -0.0553,-0.393132 v -1.549153 h 0.64814 v 1.38765 q 0,0.25713 0.0765,0.386757 0.0786,0.127502 0.24863,0.127502 0.1275,0 0.2125,-0.051 0.085,-0.051 0.13388,-0.150878 0.051,-0.09988 0.0722,-0.246505 0.0213,-0.146627 0.0213,-0.335756 v -1.11777 h 0.64814 v 2.375793 z m 1.60971,0.0425 q -0.18276,0 -0.33364,-0.07863 -0.15087,-0.07863 -0.25925,-0.23163 -0.10838,-0.155128 -0.17,-0.384632 -0.0595,-0.229504 -0.0595,-0.53126 0,-0.306005 0.0595,-0.535509 0.0616,-0.23163 0.17212,-0.386757 0.11263,-0.157253 0.26776,-0.23588 0.15513,-0.07863 0.34213,-0.07863 0.11475,0 0.21038,0.02763 0.0956,0.0255 0.17213,0.07438 0.0765,0.04675 0.136,0.110502 0.0616,0.06163 0.10838,0.136002 h 0.0213 q -0.0127,-0.08288 -0.0234,-0.167878 -0.0106,-0.07225 -0.0191,-0.153003 -0.006,-0.08288 -0.006,-0.153003 v -0.760763 h 0.64814 v 3.30656 h -0.49514 l -0.12537,-0.30813 h -0.0276 q -0.0446,0.07225 -0.102,0.138127 -0.0574,0.06375 -0.13388,0.110502 -0.0744,0.04675 -0.17,0.07438 -0.0935,0.02763 -0.2125,0.02763 z m 0.23587,-0.516385 q 0.11476,0 0.19551,-0.03825 0.0808,-0.04038 0.12963,-0.119002 0.051,-0.08075 0.0744,-0.199754 0.0255,-0.119002 0.0276,-0.27838 v -0.07013 q 0,-0.172129 -0.0213,-0.306006 -0.0213,-0.133878 -0.0701,-0.223129 -0.0489,-0.09138 -0.13175,-0.138128 -0.0829,-0.04675 -0.20826,-0.04675 -0.204,0 -0.29963,0.184879 -0.0956,0.182753 -0.0956,0.533385 0,0.350631 0.0956,0.527009 0.0978,0.174253 0.30388,0.174253 z m 1.41845,-2.516046 q 0,-0.09138 0.0276,-0.150877 0.0276,-0.06163 0.0744,-0.09775 0.0489,-0.03825 0.11263,-0.05313 0.0659,-0.01487 0.13813,-0.01487 0.0722,0 0.136,0.01487 0.0637,0.01488 0.1105,0.05313 0.0489,0.03612 0.0765,0.09775 0.0298,0.0595 0.0298,0.150877 0,0.08925 -0.0298,0.150878 -0.0276,0.06163 -0.0765,0.09988 -0.0468,0.03613 -0.1105,0.05313 -0.0638,0.01487 -0.136,0.01487 -0.0722,0 -0.13813,-0.01487 -0.0637,-0.017 -0.11263,-0.05313 -0.0468,-0.03825 -0.0744,-0.09988 -0.0276,-0.06163 -0.0276,-0.150878 z m 0.67576,2.98993 h -0.64813 v -2.375793 h 0.64813 z m 0.95519,-1.192147 q 0,0.354882 0.0999,0.53551 0.0999,0.178503 0.32513,0.178503 0.22313,0 0.32301,-0.180628 0.0999,-0.180628 0.0999,-0.533385 0,-0.354881 -0.0999,-0.529134 -0.0999,-0.176379 -0.32726,-0.176379 -0.22313,0 -0.323,0.176379 -0.0978,0.174253 -0.0978,0.529134 z m 1.50878,0 q 0,0.297506 -0.0765,0.52701 -0.0744,0.229504 -0.21675,0.386757 -0.14026,0.157253 -0.34426,0.240129 -0.20188,0.08075 -0.45476,0.08075 -0.23588,0 -0.43351,-0.08075 -0.19762,-0.08288 -0.34213,-0.240129 -0.14238,-0.157253 -0.22313,-0.386757 -0.0808,-0.229504 -0.0808,-0.52701 0,-0.29538 0.0744,-0.524884 0.0765,-0.229505 0.21675,-0.384632 0.14238,-0.157253 0.34426,-0.238005 0.20188,-0.08075 0.45688,-0.08075 0.23588,0 0.43351,0.08075 0.19763,0.08075 0.34001,0.238005 0.1445,0.155127 0.22525,0.384632 0.0807,0.229504 0.0807,0.524884 z"
       id="text76"
       aria-label="Audio" /><path
       style="font-weight:bold;font-size:4.30526px;font-family:'Droid Sans';-inkscape-font-specification:'Droid Sans Bold';fill:#ffffff;stroke-width:2.11667"
       d="m 276.79887,53.88879 h -0.64957 v -1.778442 q 0,-0.05466 0,-0.130335 0.002,-0.07778 0.004,-0.159766 0.004,-0.08409 0.006,-0.168174 0.004,-0.08409 0.006,-0.153459 -0.0105,0.01261 -0.0357,0.03784 -0.0252,0.02523 -0.0568,0.05676 -0.0315,0.02943 -0.0652,0.06096 -0.0336,0.03153 -0.0652,0.05676 l -0.35316,0.283794 -0.31533,-0.391005 0.99013,-0.788317 h 0.53395 z"
       id="text29"
       transform="scale(1.1010968,0.90818536)"
       aria-label="1" /><rect
       style="fill:#6dd0f5;fill-opacity:1;stroke:#4c93d5;stroke-width:0.79375;stroke-opacity:1"
       id="rect78"
       width="17.183376"
       height="10.921993"
       x="286.82285"
       y="68.254402"
       rx="0"
       ry="1.2637023" /><circle
       style="fill:#f43917;fill-opacity:1;stroke:#ffffff;stroke-width:0.529167;stroke-opacity:1;-inkscape-stroke:none"
       id="circle30"
       cx="304.40308"
       cy="68.342781"
       r="3.5005553" /><path
       style="font-weight:bold;font-size:4.35208px;font-family:'Droid Sans';-inkscape-font-specification:'Droid Sans';text-align:center;text-anchor:middle;fill:#1e1e1e;stroke-width:0.529166"
       d="m 295.36151,71.838658 h 0.66514 l -0.96902,3.106807 h -0.71827 l -0.96689,-3.106807 h 0.66514 l 0.52701,1.870034 q 0.0106,0.03613 0.0276,0.121128 0.0191,0.085 0.0383,0.187003 0.0213,0.102002 0.0404,0.204004 0.0191,0.102002 0.0298,0.172128 0.0106,-0.07013 0.0297,-0.172128 0.0191,-0.102002 0.0404,-0.201879 0.0212,-0.102002 0.0404,-0.187003 0.0213,-0.085 0.0319,-0.123253 z m 2.21854,3.106807 h -1.41315 v -0.374007 l 0.37825,-0.174253 v -2.010287 l -0.37825,-0.174253 v -0.374007 h 1.41315 v 0.374007 l -0.37826,0.174253 v 2.010287 l 0.37826,0.174253 z"
       id="text78"
       aria-label="VI" /><path
       style="font-weight:bold;font-size:4.30526px;font-family:'Droid Sans';-inkscape-font-specification:'Droid Sans Bold';fill:#ffffff;stroke-width:2.11667"
       d="m 277.48974,76.810776 h -2.06223 v -0.451968 l 0.72314,-0.779908 q 0.13665,-0.147153 0.24806,-0.271181 0.11142,-0.124029 0.1913,-0.241751 0.0799,-0.117722 0.12403,-0.239648 0.0441,-0.121926 0.0441,-0.262772 0,-0.155561 -0.0946,-0.241751 -0.0925,-0.08619 -0.25016,-0.08619 -0.16608,0 -0.31953,0.08199 -0.15346,0.08199 -0.32164,0.233342 l -0.35316,-0.418334 q 0.0946,-0.08619 0.1976,-0.16397 0.10301,-0.07988 0.22704,-0.140846 0.12403,-0.06096 0.27328,-0.0967 0.14925,-0.03784 0.33425,-0.03784 0.22072,0 0.39521,0.06096 0.17658,0.06096 0.30061,0.174481 0.12403,0.111415 0.18919,0.271181 0.0673,0.159765 0.0673,0.359472 0,0.180788 -0.0631,0.34686 -0.0631,0.16397 -0.17238,0.323735 -0.10931,0.157663 -0.25436,0.315327 -0.14295,0.155561 -0.30692,0.317429 l -0.36999,0.372085 v 0.02943 h 1.2529 z"
       id="text30"
       transform="scale(1.1010968,0.90818536)"
       aria-label="2" /><rect
       style="fill:#6dd0f5;fill-opacity:1;stroke:#4c93d5;stroke-width:0.79375;stroke-opacity:1"
       id="rect80"
       width="17.183376"
       height="10.921993"
       x="286.82285"
       y="88.905418"
       rx="0"
       ry="1.2637023" /><g
       id="g79"
       inkscape:label="Timecode"
       transform="translate(42.401606,20.217782)"><rect
         style="fill:#2c2b30;fill-opacity:1;stroke:none;stroke-width:0.79375;stroke-opacity:1"
         id="rect79"
         width="17.197912"
         height="4.4979167"
         x="244.15866"
         y="60.655727" /><path
         style="font-size:3.58405px;font-family:'Droid Sans';-inkscape-font-specification:'Droid Sans';text-align:center;text-anchor:middle;fill:#dddde0;stroke-width:0.529167"
         d="m 250.28758,64.074097 -0.77527,-2.240032 h -0.014 q 0.0105,0.129502 0.0175,0.257254 0.007,0.110252 0.0105,0.232753 0.005,0.120752 0.005,0.220503 v 1.529522 h -0.301 v -2.558536 h 0.48301 l 0.72101,2.086029 h 0.0105 l 0.72451,-2.086029 h 0.483 v 2.558536 h -0.3255 v -1.552272 q 0,-0.091 0.004,-0.208253 0.004,-0.117251 0.009,-0.224003 0.007,-0.124252 0.0122,-0.252003 h -0.014 l -0.78226,2.236531 z m 2.71814,0 h -0.92751 v -0.178503 l 0.301,-0.07175 v -2.058028 l -0.301,-0.07175 v -0.178503 h 0.92751 v 0.178503 l -0.30101,0.07175 v 2.058028 l 0.30101,0.07175 z m 2.31039,-1.303768 q 0,0.323754 -0.084,0.568757 -0.084,0.243254 -0.24325,0.407756 -0.15925,0.162752 -0.392,0.245004 -0.23101,0.08225 -0.52501,0.08225 h -0.64051 V 61.51556 h 0.71226 q 0.26775,0 0.48476,0.0805 0.217,0.0805 0.36925,0.239753 0.15225,0.157503 0.2345,0.392006 0.084,0.234503 0.084,0.542508 z m -0.34476,0.0105 q 0,-0.255504 -0.0577,-0.441006 -0.0577,-0.187253 -0.168,-0.308005 -0.11025,-0.120751 -0.27126,-0.178502 -0.161,-0.0595 -0.36575,-0.0595 h -0.35176 v 2.000278 h 0.28351 q 0.462,0 0.69651,-0.255504 0.2345,-0.255503 0.2345,-0.75776 z m 1.50223,1.293268 h -0.92751 v -0.178503 l 0.301,-0.07175 v -2.058028 l -0.301,-0.07175 v -0.178503 h 0.92751 v 0.178503 l -0.301,0.07175 v 2.058028 l 0.301,0.07175 z"
         id="text79"
         aria-label="MIDI" /></g><circle
       style="fill:#f43917;fill-opacity:1;stroke:#ffffff;stroke-width:0.529167;stroke-opacity:1;-inkscape-stroke:none"
       id="circle31"
       cx="304.40308"
       cy="88.724533"
       r="3.5005553" /><path
       style="font-weight:bold;font-size:4.35208px;font-family:'Droid Sans';-inkscape-font-specification:'Droid Sans';text-align:center;text-anchor:middle;fill:#1e1e1e;stroke-width:0.529166"
       d="m 292.36318,92.489674 h 0.90952 q 0.29326,0 0.51426,0.0425 0.22101,0.04038 0.36976,0.133878 0.14875,0.09138 0.22313,0.242254 0.0765,0.148753 0.0765,0.367632 0,0.131752 -0.0319,0.246504 -0.0319,0.114752 -0.0935,0.201879 -0.0616,0.08713 -0.15088,0.146628 -0.0871,0.05738 -0.20188,0.0765 v 0.02125 q 0.11688,0.0255 0.21676,0.07438 0.102,0.04675 0.17638,0.131752 0.0765,0.08288 0.119,0.210379 0.0446,0.127502 0.0446,0.310256 0,0.212504 -0.0744,0.380382 -0.0744,0.165753 -0.21463,0.28263 -0.13813,0.114752 -0.33788,0.176378 -0.19763,0.06163 -0.44839,0.06163 h -1.09652 z m 0.65877,1.230398 h 0.34213 q 0.12325,0 0.20613,-0.02125 0.0829,-0.02338 0.13387,-0.068 0.051,-0.04463 0.0723,-0.110502 0.0234,-0.068 0.0234,-0.157253 0,-0.178503 -0.11263,-0.255004 -0.1105,-0.07863 -0.35275,-0.07863 h -0.31238 z m 0,0.522759 v 0.80964 h 0.38675 q 0.12963,0 0.21676,-0.02975 0.0893,-0.02975 0.14238,-0.085 0.0553,-0.05525 0.0786,-0.133877 0.0234,-0.07863 0.0234,-0.174253 0,-0.08713 -0.0234,-0.157253 -0.0234,-0.07225 -0.0807,-0.123253 -0.0553,-0.051 -0.14663,-0.07863 -0.0914,-0.02763 -0.22738,-0.02763 z m 3.35743,1.35365 -0.0871,-0.30388 h -0.034 q -0.0531,0.09138 -0.1275,0.157253 -0.0722,0.06375 -0.15938,0.106252 -0.0871,0.0425 -0.18488,0.06163 -0.0978,0.02125 -0.19975,0.02125 -0.17425,0 -0.31663,-0.04888 -0.14238,-0.051 -0.24438,-0.157253 -0.102,-0.106252 -0.15725,-0.26988 -0.0553,-0.163628 -0.0553,-0.393132 v -1.549153 h 0.64813 v 1.38765 q 0,0.25713 0.0765,0.386757 0.0786,0.127503 0.24862,0.127503 0.12751,0 0.21251,-0.051 0.085,-0.051 0.13388,-0.150878 0.051,-0.09988 0.0722,-0.246505 0.0213,-0.146627 0.0213,-0.335756 v -1.11777 h 0.64813 v 2.375793 z m 2.57121,-0.705513 q 0,0.187004 -0.068,0.327256 -0.068,0.140253 -0.19338,0.233755 -0.12537,0.0935 -0.30388,0.140252 -0.1785,0.04675 -0.39951,0.04675 -0.11687,0 -0.21675,-0.0085 -0.0999,-0.0064 -0.18913,-0.02338 -0.0893,-0.017 -0.17213,-0.0425 -0.0829,-0.0255 -0.16787,-0.06375 v -0.53551 q 0.0892,0.04463 0.187,0.08075 0.0999,0.03613 0.19763,0.06375 0.0978,0.0255 0.18913,0.04038 0.0935,0.01488 0.17212,0.01488 0.0871,0 0.14876,-0.01488 0.0616,-0.017 0.0999,-0.04463 0.0404,-0.02975 0.0574,-0.068 0.0191,-0.04038 0.0191,-0.085 0,-0.04463 -0.0149,-0.07863 -0.0128,-0.03613 -0.0616,-0.07438 -0.0489,-0.04038 -0.1445,-0.08925 -0.0935,-0.051 -0.25288,-0.123252 -0.15513,-0.07013 -0.26988,-0.138128 -0.11263,-0.07013 -0.187,-0.155128 -0.0723,-0.085 -0.10838,-0.193378 -0.0361,-0.110502 -0.0361,-0.26138 0,-0.165753 0.0638,-0.289005 0.0637,-0.125378 0.18063,-0.208254 0.11687,-0.08288 0.2805,-0.123252 0.16575,-0.0425 0.36763,-0.0425 0.21251,0 0.40376,0.04888 0.19125,0.04888 0.39313,0.146627 l -0.1955,0.459009 q -0.1615,-0.0765 -0.30813,-0.125377 -0.14663,-0.04888 -0.29326,-0.04888 -0.13175,0 -0.19125,0.04675 -0.0574,0.04675 -0.0574,0.127502 0,0.0425 0.0149,0.0765 0.0149,0.03188 0.0595,0.068 0.0446,0.034 0.12538,0.0765 0.0807,0.04038 0.21038,0.09988 0.15087,0.06588 0.272,0.131752 0.12113,0.06375 0.20825,0.146628 0.0871,0.08288 0.13388,0.193378 0.0467,0.110502 0.0467,0.267755 z"
       id="text80"
       aria-label="Bus" /><path
       style="font-weight:bold;font-size:4.30526px;font-family:'Droid Sans';-inkscape-font-specification:'Droid Sans Bold';fill:#ffffff;stroke-width:2.11667"
       d="m 277.40672,96.802703 q 0,0.159766 -0.0525,0.287998 -0.0505,0.126131 -0.14085,0.222831 -0.0883,0.0946 -0.21022,0.159766 -0.11982,0.06306 -0.26067,0.0967 v 0.01261 q 0.37209,0.04625 0.56339,0.227035 0.1913,0.178685 0.1913,0.483501 0,0.201809 -0.0736,0.374188 -0.0715,0.170276 -0.22283,0.296407 -0.14926,0.126131 -0.37839,0.197605 -0.22704,0.06937 -0.53606,0.06937 -0.24806,0 -0.46668,-0.04204 -0.21863,-0.03994 -0.40782,-0.124029 v -0.552872 q 0.0946,0.05045 0.1997,0.08829 0.10511,0.03784 0.21022,0.06517 0.10511,0.02523 0.20601,0.03784 0.10301,0.01261 0.1934,0.01261 0.18079,0 0.30062,-0.03363 0.11982,-0.03364 0.19129,-0.0946 0.0715,-0.06096 0.10091,-0.14505 0.0315,-0.08619 0.0315,-0.187094 0,-0.0946 -0.0399,-0.170276 -0.0378,-0.07778 -0.12613,-0.130335 -0.0862,-0.05466 -0.22704,-0.08409 -0.14084,-0.02943 -0.34686,-0.02943 h -0.21862 v -0.456173 h 0.21442 q 0.1934,0 0.32163,-0.03363 0.12824,-0.03574 0.20391,-0.0946 0.0778,-0.06096 0.10932,-0.140846 0.0315,-0.07988 0.0315,-0.170277 0,-0.16397 -0.10301,-0.256466 -0.1009,-0.09249 -0.32163,-0.09249 -0.1009,0 -0.1892,0.02102 -0.0862,0.01892 -0.16186,0.05045 -0.0736,0.02943 -0.13665,0.06727 -0.061,0.03574 -0.11141,0.07147 l -0.32794,-0.433048 q 0.0883,-0.06517 0.1913,-0.119824 0.10511,-0.05466 0.22703,-0.0946 0.12193,-0.04204 0.26278,-0.06517 0.14084,-0.02312 0.30061,-0.02312 0.22703,0 0.41202,0.05045 0.1871,0.04835 0.31953,0.142949 0.13244,0.09249 0.20392,0.229137 0.0736,0.134539 0.0736,0.30902 z"
       id="text31"
       transform="scale(1.1010968,0.90818536)"
       aria-label="3" /><g
       id="g81"
       inkscape:label="Timecode"
       transform="translate(42.401606,40.868796)"><rect
         style="fill:#2c2b30;fill-opacity:1;stroke:none;stroke-width:0.79375;stroke-opacity:1"
         id="rect81"
         width="17.197912"
         height="4.4979167"
         x="244.15866"
         y="60.655727" /><path
         style="font-size:3.58405px;font-family:'Droid Sans';-inkscape-font-specification:'Droid Sans';text-align:center;text-anchor:middle;fill:#dddde0;stroke-width:0.529167"
         d="m 249.00129,62.791329 q 0,0.295754 -0.0718,0.539007 -0.07,0.243254 -0.21,0.416506 -0.14,0.173253 -0.34826,0.267754 -0.2065,0.0945 -0.47775,0.0945 -0.28526,0 -0.49526,-0.0945 -0.20825,-0.0945 -0.3465,-0.267754 -0.13651,-0.173252 -0.20301,-0.416506 -0.0665,-0.245003 -0.0665,-0.542507 0,-0.297504 0.0665,-0.539008 0.0665,-0.243253 0.20476,-0.414756 0.13825,-0.171502 0.34825,-0.264253 0.21,-0.0945 0.49526,-0.0945 0.27125,0 0.476,0.0945 0.20651,0.09275 0.34651,0.266003 0.14,0.171503 0.21,0.414756 0.0718,0.241504 0.0718,0.540758 z m -1.87427,0 q 0,0.239753 0.0455,0.432256 0.0455,0.190752 0.13825,0.325504 0.0945,0.133002 0.238,0.204753 0.14525,0.07 0.34476,0.07 0.1995,0 0.343,-0.07 0.14525,-0.07175 0.23801,-0.204753 0.0945,-0.134752 0.13825,-0.325504 0.0438,-0.192503 0.0438,-0.432256 0,-0.241504 -0.0438,-0.432256 -0.0437,-0.190753 -0.1365,-0.322005 -0.0928,-0.133002 -0.23626,-0.203003 -0.1435,-0.07175 -0.343,-0.07175 -0.1995,0 -0.34476,0.07175 -0.14525,0.07 -0.23975,0.203003 -0.0945,0.131252 -0.14,0.322005 -0.0455,0.190752 -0.0455,0.432256 z m 3.45821,1.282768 -0.0472,-0.257254 h -0.0175 q -0.0437,0.07525 -0.105,0.131252 -0.0595,0.05425 -0.13126,0.091 -0.0718,0.035 -0.15225,0.0525 -0.0805,0.0175 -0.1645,0.0175 -0.15925,0 -0.28,-0.04025 -0.12076,-0.04025 -0.20126,-0.126002 -0.0805,-0.08575 -0.1225,-0.218753 -0.0402,-0.133002 -0.0402,-0.316755 V 62.15257 h 0.31851 v 1.237267 q 0,0.227503 0.0928,0.341255 0.0927,0.113751 0.287,0.113751 0.14175,0 0.238,-0.0455 0.0963,-0.0455 0.15401,-0.133002 0.0595,-0.08925 0.084,-0.218753 0.0263,-0.129502 0.0263,-0.297504 V 62.15257 h 0.3185 v 1.921527 z m 1.35373,-0.225753 q 0.0315,0 0.07,-0.0035 0.0402,-0.0035 0.077,-0.0087 0.0368,-0.0052 0.0665,-0.01225 0.0315,-0.007 0.0473,-0.01225 v 0.241503 q -0.0228,0.0105 -0.0577,0.021 -0.035,0.0105 -0.077,0.0175 -0.042,0.0088 -0.0875,0.01225 -0.0455,0.0053 -0.0893,0.0053 -0.1085,0 -0.20125,-0.028 -0.0927,-0.028 -0.161,-0.09625 -0.0665,-0.06825 -0.105,-0.183752 -0.0385,-0.117252 -0.0385,-0.294004 v -1.114766 h -0.27126 v -0.141752 l 0.27126,-0.136502 0.1365,-0.402505 h 0.18375 v 0.441006 h 0.48301 v 0.239753 h -0.48301 v 1.114766 q 0,0.169752 0.0542,0.255503 0.056,0.08575 0.18201,0.08575 z m 1.40797,0.260753 q -0.10325,0 -0.18725,-0.02275 -0.084,-0.02275 -0.15225,-0.0595 -0.0665,-0.0385 -0.119,-0.08925 -0.0508,-0.05075 -0.091,-0.106752 h -0.021 q 0.005,0.0595 0.0105,0.113752 0.004,0.0455 0.007,0.0945 0.003,0.04725 0.003,0.07525 v 0.820762 h -0.3185 V 62.15257 h 0.259 l 0.0455,0.259004 h 0.014 q 0.0403,-0.06125 0.091,-0.113752 0.0507,-0.05425 0.11725,-0.09275 0.0682,-0.04025 0.15225,-0.063 0.084,-0.0245 0.189,-0.0245 0.1645,0 0.29926,0.063 0.13475,0.063 0.22925,0.189003 0.0962,0.124252 0.14875,0.309754 0.0525,0.185503 0.0525,0.430506 0,0.246754 -0.0525,0.434006 -0.0525,0.185503 -0.14875,0.311505 -0.0945,0.126001 -0.22925,0.190752 -0.13476,0.063 -0.29926,0.063 z m -0.0612,-1.727274 q -0.133,0 -0.22575,0.04025 -0.091,0.04025 -0.14875,0.122501 -0.056,0.08225 -0.084,0.204753 -0.0263,0.122502 -0.0298,0.288754 v 0.07175 q 0,0.176753 0.0228,0.315005 0.0245,0.136502 0.0805,0.231003 0.0577,0.09275 0.15225,0.141752 0.0945,0.04725 0.23625,0.04725 0.23625,0 0.34651,-0.190752 0.112,-0.190753 0.112,-0.547758 0,-0.364005 -0.112,-0.544257 -0.11026,-0.180253 -0.35001,-0.180253 z m 2.39722,1.692274 -0.0472,-0.257254 h -0.0175 q -0.0438,0.07525 -0.105,0.131252 -0.0595,0.05425 -0.13125,0.091 -0.0718,0.035 -0.15226,0.0525 -0.0805,0.0175 -0.1645,0.0175 -0.15925,0 -0.28,-0.04025 -0.12075,-0.04025 -0.20126,-0.126002 -0.0805,-0.08575 -0.1225,-0.218753 -0.0402,-0.133002 -0.0402,-0.316755 V 62.15257 h 0.31851 v 1.237267 q 0,0.227503 0.0927,0.341255 0.0927,0.113751 0.287,0.113751 0.14175,0 0.238,-0.0455 0.0963,-0.0455 0.15401,-0.133002 0.0595,-0.08925 0.084,-0.218753 0.0262,-0.129502 0.0262,-0.297504 V 62.15257 h 0.3185 v 1.921527 z m 1.35373,-0.225753 q 0.0315,0 0.07,-0.0035 0.0403,-0.0035 0.077,-0.0087 0.0367,-0.0052 0.0665,-0.01225 0.0315,-0.007 0.0472,-0.01225 v 0.241503 q -0.0227,0.0105 -0.0577,0.021 -0.035,0.0105 -0.077,0.0175 -0.042,0.0088 -0.0875,0.01225 -0.0455,0.0053 -0.0893,0.0053 -0.1085,0 -0.20125,-0.028 -0.0928,-0.028 -0.161,-0.09625 -0.0665,-0.06825 -0.105,-0.183752 -0.0385,-0.117252 -0.0385,-0.294004 v -1.114766 h -0.27126 v -0.141752 l 0.27126,-0.136502 0.1365,-0.402505 h 0.18375 v 0.441006 h 0.48301 v 0.239753 h -0.48301 v 1.114766 q 0,0.169752 0.0543,0.255503 0.056,0.08575 0.18201,0.08575 z m 1.7365,-0.301005 q 0,0.140002 -0.0507,0.245004 -0.0507,0.105001 -0.14701,0.176752 -0.0945,0.07 -0.22925,0.105002 -0.13475,0.035 -0.30275,0.035 -0.19076,0 -0.32726,-0.0315 -0.1365,-0.02975 -0.23975,-0.08925 v -0.290504 q 0.0543,0.028 0.12075,0.056 0.0665,0.02625 0.14,0.04725 0.0735,0.021 0.15051,0.035 0.0787,0.01225 0.15575,0.01225 0.11375,0 0.1925,-0.01925 0.0805,-0.01925 0.1295,-0.05425 0.0507,-0.03675 0.0735,-0.0875 0.0227,-0.0525 0.0227,-0.115501 0,-0.05425 -0.0175,-0.098 -0.0175,-0.04375 -0.0648,-0.08575 -0.0455,-0.04375 -0.126,-0.0875 -0.0805,-0.04375 -0.2065,-0.098 -0.126,-0.05425 -0.22751,-0.106752 -0.0998,-0.0525 -0.16975,-0.117252 -0.07,-0.06475 -0.1085,-0.148752 -0.0367,-0.08575 -0.0367,-0.203002 0,-0.122502 0.0472,-0.217004 0.049,-0.09625 0.1365,-0.161002 0.0875,-0.06475 0.21001,-0.098 0.1225,-0.03325 0.273,-0.03325 0.16975,0 0.30975,0.03675 0.14176,0.03675 0.26776,0.09625 l -0.11025,0.257254 q -0.11376,-0.05075 -0.23451,-0.0875 -0.119,-0.0385 -0.24325,-0.0385 -0.1785,0 -0.26425,0.0595 -0.0858,0.05775 -0.0858,0.166252 0,0.06125 0.0192,0.106752 0.021,0.0455 0.07,0.08575 0.049,0.04025 0.13125,0.08225 0.0822,0.04025 0.20475,0.091 0.126,0.0525 0.224,0.105002 0.0997,0.0525 0.16976,0.119001 0.07,0.06475 0.10675,0.148753 0.0367,0.084 0.0367,0.201252 z"
         id="text81"
         aria-label="Outputs" /></g><circle
       style="fill:#f43917;fill-opacity:1;stroke:#ffffff;stroke-width:0.529167;stroke-opacity:1;-inkscape-stroke:none"
       id="circle32"
       cx="304.40308"
       cy="109.29028"
       r="3.5005553" /><path
       style="font-weight:bold;font-size:4.35208px;font-family:'Droid Sans';-inkscape-font-specification:'Droid Sans';text-align:center;text-anchor:middle;fill:#1e1e1e;stroke-width:0.529166"
       d="m 293.71155,113.10843 h 0.66514 l -0.96902,3.1068 h -0.71826 l -0.96689,-3.1068 h 0.66513 l 0.52701,1.87003 q 0.0106,0.0361 0.0276,0.12113 0.0191,0.085 0.0383,0.187 0.0213,0.102 0.0404,0.204 0.0191,0.10201 0.0298,0.17213 0.0106,-0.0701 0.0297,-0.17213 0.0191,-0.102 0.0404,-0.20187 0.0213,-0.10201 0.0404,-0.18701 0.0212,-0.085 0.0319,-0.12325 z m 1.95485,0.50363 q -0.18913,0 -0.33576,0.0744 -0.1445,0.0722 -0.24438,0.21038 -0.0977,0.136 -0.14875,0.33363 -0.051,0.1955 -0.051,0.43988 0,0.24863 0.0446,0.44201 0.0468,0.19338 0.14026,0.32725 0.0956,0.13176 0.24225,0.20188 0.14875,0.068 0.35276,0.068 0.18913,0 0.37826,-0.0425 0.19125,-0.0425 0.41438,-0.12112 v 0.55251 q -0.102,0.0425 -0.20188,0.0722 -0.0999,0.0298 -0.204,0.0489 -0.10413,0.0191 -0.21463,0.0276 -0.10838,0.0106 -0.23376,0.0106 -0.35913,0 -0.62263,-0.11475 -0.26351,-0.11475 -0.43564,-0.323 -0.17213,-0.20826 -0.255,-0.50151 -0.0829,-0.29326 -0.0829,-0.65239 0,-0.35276 0.0956,-0.64601 0.0956,-0.29538 0.2805,-0.50789 0.18488,-0.2125 0.45689,-0.32938 0.272,-0.119 0.62476,-0.119 0.23163,0 0.46326,0.0595 0.23375,0.0574 0.44625,0.15938 l -0.2125,0.53551 q -0.17425,-0.0829 -0.35063,-0.1445 -0.17638,-0.0616 -0.34638,-0.0616 z m 3.03872,2.60317 -0.21251,-0.73951 h -1.07102 l -0.21462,0.73951 h -0.66514 l 1.00939,-3.11955 h 0.80539 l 1.01365,3.11955 z m -0.36551,-1.29202 -0.19975,-0.68001 q -0.0127,-0.0383 -0.0383,-0.12538 -0.0255,-0.0871 -0.0553,-0.19125 -0.0276,-0.10626 -0.0531,-0.21251 -0.0255,-0.10625 -0.0361,-0.18063 -0.009,0.0468 -0.0234,0.11051 -0.0128,0.0637 -0.0319,0.136 -0.017,0.0701 -0.0361,0.14238 -0.0191,0.0722 -0.0361,0.136 -0.017,0.0637 -0.0319,0.11263 -0.0127,0.0489 -0.0191,0.0722 l -0.19763,0.68001 z"
       id="text82"
       aria-label="VCA" /><path
       style="font-weight:bold;font-size:4.30526px;font-family:'Droid Sans';-inkscape-font-specification:'Droid Sans Bold';fill:#ffffff;stroke-width:2.11667"
       d="m 277.34101,121.19662 h -0.36998 v 0.63696 h -0.63276 v -0.63696 h -1.26971 v -0.45197 l 1.30545,-1.98445 h 0.59702 v 1.9319 h 0.36998 z m -1.00274,-0.50452 v -0.52134 q 0,-0.0273 0,-0.0778 0.002,-0.0526 0.004,-0.11773 0.002,-0.0652 0.004,-0.13453 0.004,-0.0694 0.006,-0.13244 0.004,-0.0631 0.006,-0.10932 0.004,-0.0483 0.006,-0.0694 h -0.0189 q -0.0378,0.0883 -0.0862,0.1871 -0.0462,0.0988 -0.10721,0.1976 l -0.51293,0.77781 z"
       id="text32"
       transform="scale(1.1010968,0.90818536)"
       aria-label="4" /><g
       id="g83"
       inkscape:label="Timecode"
       transform="translate(42.401606,61.487513)"><rect
         style="fill:#2c2b30;fill-opacity:1;stroke:none;stroke-width:0.79375;stroke-opacity:1"
         id="rect83"
         width="17.197912"
         height="4.4979167"
         x="244.15866"
         y="60.655727" /><path
         style="font-size:3.58405px;font-family:'Droid Sans';-inkscape-font-specification:'Droid Sans';text-align:center;text-anchor:middle;fill:#dddde0;stroke-width:0.529167"
         d="m 251.60995,64.074097 h -0.3255 v -2.558536 h 1.32826 v 0.287004 h -1.00276 v 0.903013 h 0.93626 v 0.287004 h -0.93626 z m 2.95325,0 h -0.36926 l -0.61951,-1.111266 -0.64225,1.111266 h -0.32901 l 0.79276,-1.337019 -0.73851,-1.221517 h 0.34651 l 0.581,0.978264 0.58451,-0.978264 h 0.33251 l -0.73676,1.211017 z"
         id="text83"
         aria-label="FX" /></g><circle
       style="fill:#f43917;fill-opacity:1;stroke:#ffffff;stroke-width:0.529167;stroke-opacity:1;-inkscape-stroke:none"
       id="circle33"
       cx="304.40308"
       cy="129.63153"
       r="3.5005553" /><path
       style="font-weight:bold;font-size:4.35208px;font-family:'Droid Sans';-inkscape-font-specification:'Droid Sans';text-align:center;text-anchor:middle;fill:#1e1e1e;stroke-width:0.529166"
       d="m 295.27136,136.69966 -0.2125,-0.73951 h -1.07102 l -0.21463,0.73951 h -0.66514 l 1.0094,-3.11956 h 0.80539 l 1.01364,3.11956 z m -0.3655,-1.29202 -0.19976,-0.68001 q -0.0127,-0.0383 -0.0383,-0.12538 -0.0255,-0.0871 -0.0553,-0.19126 -0.0276,-0.10625 -0.0531,-0.2125 -0.0255,-0.10625 -0.0361,-0.18063 -0.008,0.0467 -0.0234,0.1105 -0.0128,0.0638 -0.0319,0.13601 -0.017,0.0701 -0.0361,0.14237 -0.0191,0.0723 -0.0361,0.13601 -0.017,0.0637 -0.0319,0.11262 -0.0127,0.0489 -0.0191,0.0723 l -0.19763,0.68001 z m 1.78492,1.29202 h -0.64813 v -3.30656 h 0.64813 z m 0.95397,0 h -0.64813 v -3.30656 h 0.64813 z"
       id="text84"
       aria-label="All" /><path
       style="font-weight:bold;font-size:4.30526px;font-family:'Droid Sans';-inkscape-font-specification:'Droid Sans Bold';fill:#ffffff;stroke-width:2.11667"
       d="m 276.5259,142.2891 q 0.19761,0 0.36788,0.061 0.17028,0.061 0.29641,0.17869 0.12613,0.11772 0.1976,0.2943 0.0715,0.17448 0.0715,0.40152 0,0.25016 -0.0778,0.44986 -0.0778,0.19761 -0.22914,0.33635 -0.15136,0.13664 -0.37629,0.21022 -0.22283,0.0736 -0.51293,0.0736 -0.11562,0 -0.22914,-0.0105 -0.11352,-0.0105 -0.21862,-0.0315 -0.10301,-0.0189 -0.19761,-0.0505 -0.0925,-0.0315 -0.16817,-0.0736 v -0.56128 q 0.0736,0.0421 0.17027,0.0799 0.0967,0.0357 0.19971,0.0631 0.10511,0.0252 0.21022,0.042 0.10511,0.0147 0.1997,0.0147 0.2817,0 0.42885,-0.11562 0.14715,-0.11772 0.14715,-0.37209 0,-0.22703 -0.14505,-0.34475 -0.14295,-0.11983 -0.44356,-0.11983 -0.0547,0 -0.11772,0.006 -0.061,0.006 -0.12193,0.0168 -0.0589,0.0105 -0.11351,0.0231 -0.0547,0.0105 -0.0946,0.0231 l -0.25857,-0.13875 0.11562,-1.56612 h 1.62288 v 0.55077 h -1.0595 l -0.0505,0.60332 q 0.0673,-0.0147 0.15556,-0.0294 0.0904,-0.0147 0.23124,-0.0147 z"
       id="text33"
       transform="scale(1.1010968,0.90818536)"
       aria-label="5" /><g
       id="g85"
       inkscape:label="Timecode"
       transform="translate(42.401605,81.97198)"><rect
         style="fill:#2c2b30;fill-opacity:1;stroke:none;stroke-width:0.79375;stroke-opacity:1"
         id="rect85"
         width="17.197912"
         height="4.4979167"
         x="244.15866"
         y="60.655727" /><path
         style="font-size:3.58405px;font-family:'Droid Sans';-inkscape-font-specification:'Droid Sans';text-align:center;text-anchor:middle;fill:#dddde0;stroke-width:0.529167"
         d="m 251.54559,61.512061 v 1.659023 q 0,0.199503 -0.0577,0.371005 -0.0577,0.171503 -0.175,0.297504 -0.11551,0.126002 -0.29226,0.197753 -0.175,0.07175 -0.413,0.07175 -0.22401,0 -0.39551,-0.0665 -0.1715,-0.06825 -0.28875,-0.192502 -0.1155,-0.124252 -0.17501,-0.297505 -0.0595,-0.175002 -0.0595,-0.388505 v -1.648523 h 0.32726 v 1.666023 q 0,0.306255 0.1505,0.474257 0.15225,0.168002 0.45851,0.168002 0.15575,0 0.26775,-0.04725 0.112,-0.04725 0.18375,-0.133002 0.0717,-0.08575 0.10675,-0.204753 0.035,-0.119002 0.0367,-0.260754 v -1.666023 z m 1.49739,2.035278 q 0,0.140002 -0.0507,0.245004 -0.0507,0.105001 -0.147,0.176752 -0.0945,0.07 -0.22925,0.105002 -0.13476,0.035 -0.30276,0.035 -0.19075,0 -0.32725,-0.0315 -0.13651,-0.02975 -0.23976,-0.08925 v -0.290504 q 0.0542,0.028 0.12075,0.056 0.0665,0.02625 0.14001,0.04725 0.0735,0.021 0.1505,0.035 0.0788,0.01225 0.15575,0.01225 0.11375,0 0.1925,-0.01925 0.0805,-0.01925 0.12951,-0.05425 0.0507,-0.03675 0.0735,-0.0875 0.0228,-0.0525 0.0228,-0.115501 0,-0.05425 -0.0175,-0.098 -0.0175,-0.04375 -0.0648,-0.08575 -0.0455,-0.04375 -0.12601,-0.0875 -0.0805,-0.04375 -0.2065,-0.098 -0.126,-0.05425 -0.2275,-0.106752 -0.0998,-0.0525 -0.16975,-0.117252 -0.07,-0.06475 -0.10851,-0.148752 -0.0367,-0.08575 -0.0367,-0.203002 0,-0.122502 0.0472,-0.217004 0.049,-0.09625 0.13651,-0.161002 0.0875,-0.06475 0.21,-0.098 0.1225,-0.03325 0.273,-0.03325 0.16976,0 0.30976,0.03675 0.14175,0.03675 0.26775,0.09625 l -0.11025,0.257254 q -0.11375,-0.05075 -0.2345,-0.0875 -0.11901,-0.0385 -0.24326,-0.0385 -0.1785,0 -0.26425,0.0595 -0.0858,0.05775 -0.0858,0.166252 0,0.06125 0.0192,0.106752 0.021,0.0455 0.07,0.08575 0.049,0.04025 0.13125,0.08225 0.0822,0.04025 0.20475,0.091 0.12601,0.0525 0.22401,0.105002 0.0998,0.0525 0.16975,0.119001 0.07,0.06475 0.10675,0.148753 0.0368,0.084 0.0368,0.201252 z m 1.03968,0.561758 q -0.1925,0 -0.35176,-0.06475 -0.15925,-0.06475 -0.27475,-0.189002 -0.11375,-0.124252 -0.17675,-0.308005 -0.063,-0.183752 -0.063,-0.420006 0,-0.238003 0.0577,-0.425255 0.0577,-0.187253 0.16275,-0.316755 0.105,-0.131252 0.25025,-0.199503 0.14701,-0.06825 0.32376,-0.06825 0.17325,0 0.3115,0.063 0.13825,0.06125 0.23451,0.175003 0.0962,0.112001 0.147,0.271254 0.0525,0.157502 0.0525,0.350004 v 0.197753 h -1.21102 q 0.009,0.337755 0.14175,0.497007 0.13476,0.159252 0.39901,0.159252 0.0892,0 0.1645,-0.0087 0.077,-0.0087 0.147,-0.0245 0.0718,-0.0175 0.13826,-0.042 0.0665,-0.02625 0.13475,-0.05775 v 0.283504 q -0.07,0.03325 -0.13825,0.05775 -0.0665,0.0245 -0.13826,0.04025 -0.07,0.01575 -0.147,0.02275 -0.0753,0.007 -0.1645,0.007 z m -0.0788,-1.727274 q -0.1995,0 -0.31676,0.136502 -0.1155,0.136502 -0.13475,0.397256 h 0.86101 q 0,-0.119002 -0.0245,-0.217003 -0.0228,-0.09975 -0.0735,-0.169753 -0.049,-0.07 -0.126,-0.108501 -0.077,-0.0385 -0.1855,-0.0385 z m 1.83467,-0.264254 q 0.0507,0 0.11375,0.0052 0.063,0.0035 0.1085,0.01225 l -0.042,0.294004 q -0.049,-0.0087 -0.1015,-0.014 -0.0507,-0.007 -0.0962,-0.007 -0.11026,0 -0.20126,0.0455 -0.091,0.04375 -0.1575,0.127752 -0.0648,0.08225 -0.1015,0.199503 -0.035,0.115501 -0.035,0.257253 v 1.036015 h -0.31851 V 62.15257 h 0.25901 l 0.0385,0.351755 h 0.014 q 0.0438,-0.07525 0.0928,-0.145252 0.0507,-0.07 0.112,-0.122502 0.063,-0.05425 0.14,-0.08575 0.077,-0.03325 0.17501,-0.03325 z"
         id="text85"
         aria-label="User" /></g><g
       id="g77"
       inkscape:label="Timecode"
       transform="translate(42.401607,-0.38664394)"><rect
         style="fill:#2c2b30;fill-opacity:1;stroke:none;stroke-width:0.79375;stroke-opacity:1"
         id="rect77"
         width="17.197912"
         height="4.4979167"
         x="244.15866"
         y="60.655727" /><path
         style="font-size:3.58405px;font-family:'Droid Sans';-inkscape-font-specification:'Droid Sans';text-align:center;text-anchor:middle;fill:#dddde0;stroke-width:0.529167"
         d="m 248.83558,64.074097 h -0.92752 v -0.178503 l 0.30101,-0.07175 v -2.058028 l -0.30101,-0.07175 v -0.178503 h 0.92752 v 0.178503 l -0.30101,0.07175 v 2.058028 l 0.30101,0.07175 z m 1.58237,0 v -1.237268 q 0,-0.227503 -0.0927,-0.341254 -0.091,-0.113752 -0.287,-0.113752 -0.14176,0 -0.23801,0.0455 -0.0962,0.0455 -0.15575,0.134752 -0.0577,0.08925 -0.084,0.218753 -0.0245,0.129501 -0.0245,0.297504 v 0.995764 h -0.3185 V 62.15257 h 0.259 l 0.0455,0.259004 h 0.0175 q 0.0437,-0.07525 0.10325,-0.129502 0.0613,-0.056 0.133,-0.09275 0.0718,-0.03675 0.15226,-0.05425 0.0805,-0.0175 0.1645,-0.0175 0.32025,0 0.48125,0.168003 0.16276,0.166252 0.16276,0.533757 V 64.0741 Z m 1.57959,0.035 q -0.10325,0 -0.18725,-0.02275 -0.084,-0.02275 -0.15226,-0.0595 -0.0665,-0.0385 -0.119,-0.08925 -0.0507,-0.05075 -0.091,-0.106752 h -0.021 q 0.005,0.0595 0.0105,0.113752 0.004,0.0455 0.007,0.0945 0.004,0.04725 0.004,0.07525 v 0.820762 h -0.3185 V 62.15257 h 0.259 l 0.0455,0.259004 h 0.014 q 0.0403,-0.06125 0.091,-0.113752 0.0507,-0.05425 0.11725,-0.09275 0.0683,-0.04025 0.15226,-0.063 0.084,-0.0245 0.189,-0.0245 0.1645,0 0.29925,0.063 0.13476,0.063 0.22926,0.189003 0.0962,0.124252 0.14875,0.309754 0.0525,0.185503 0.0525,0.430506 0,0.246754 -0.0525,0.434006 -0.0525,0.185503 -0.14875,0.311505 -0.0945,0.126001 -0.22926,0.190752 -0.13475,0.063 -0.29925,0.063 z m -0.0612,-1.727274 q -0.133,0 -0.22575,0.04025 -0.091,0.04025 -0.14876,0.122501 -0.056,0.08225 -0.084,0.204753 -0.0263,0.122502 -0.0298,0.288754 v 0.07175 q 0,0.176753 0.0228,0.315005 0.0245,0.136502 0.0805,0.231003 0.0577,0.09275 0.15226,0.141752 0.0945,0.04725 0.23625,0.04725 0.23625,0 0.3465,-0.190752 0.112,-0.190753 0.112,-0.547758 0,-0.364005 -0.112,-0.544257 -0.11025,-0.180253 -0.35,-0.180253 z m 2.47139,1.692274 -0.0472,-0.257254 h -0.0175 q -0.0437,0.07525 -0.105,0.131252 -0.0595,0.05425 -0.13126,0.091 -0.0718,0.035 -0.15225,0.0525 -0.0805,0.0175 -0.1645,0.0175 -0.15925,0 -0.28,-0.04025 -0.12076,-0.04025 -0.20126,-0.126002 -0.0805,-0.08575 -0.1225,-0.218753 -0.0403,-0.133002 -0.0403,-0.316755 V 62.15257 h 0.31851 v 1.237267 q 0,0.227503 0.0928,0.341255 0.0927,0.113751 0.287,0.113751 0.14175,0 0.238,-0.0455 0.0962,-0.0455 0.15401,-0.133002 0.0595,-0.08925 0.084,-0.218753 0.0263,-0.129502 0.0263,-0.297504 V 62.15257 h 0.3185 v 1.921527 z m 1.38112,-0.225753 q 0.0315,0 0.07,-0.0035 0.0402,-0.0035 0.077,-0.0087 0.0368,-0.0052 0.0665,-0.01225 0.0315,-0.007 0.0472,-0.01225 v 0.241503 q -0.0227,0.0105 -0.0577,0.021 -0.035,0.0105 -0.077,0.0175 -0.042,0.0088 -0.0875,0.01225 -0.0455,0.0053 -0.0893,0.0053 -0.1085,0 -0.20125,-0.028 -0.0927,-0.028 -0.161,-0.09625 -0.0665,-0.06825 -0.105,-0.183752 -0.0385,-0.117252 -0.0385,-0.294004 v -1.114766 h -0.27125 v -0.141752 l 0.27125,-0.136502 0.13651,-0.402505 h 0.18375 v 0.441006 h 0.48301 v 0.239753 h -0.48301 v 1.114766 q 0,0.169752 0.0542,0.255503 0.056,0.08575 0.182,0.08575 z m 1.78328,-0.301005 q 0,0.140002 -0.0508,0.245004 -0.0507,0.105001 -0.14701,0.176752 -0.0945,0.07 -0.22925,0.105002 -0.13475,0.035 -0.30275,0.035 -0.19076,0 -0.32726,-0.0315 -0.1365,-0.02975 -0.23975,-0.08925 v -0.290504 q 0.0543,0.028 0.12075,0.056 0.0665,0.02625 0.14,0.04725 0.0735,0.021 0.1505,0.035 0.0788,0.01225 0.15576,0.01225 0.11375,0 0.1925,-0.01925 0.0805,-0.01925 0.1295,-0.05425 0.0508,-0.03675 0.0735,-0.0875 0.0227,-0.0525 0.0227,-0.115501 0,-0.05425 -0.0175,-0.098 -0.0175,-0.04375 -0.0648,-0.08575 -0.0455,-0.04375 -0.126,-0.0875 -0.0805,-0.04375 -0.2065,-0.098 -0.126,-0.05425 -0.22751,-0.106752 -0.0998,-0.0525 -0.16975,-0.117252 -0.07,-0.06475 -0.1085,-0.148752 -0.0367,-0.08575 -0.0367,-0.203002 0,-0.122502 0.0472,-0.217004 0.049,-0.09625 0.1365,-0.161002 0.0875,-0.06475 0.21,-0.098 0.12251,-0.03325 0.27301,-0.03325 0.16975,0 0.30975,0.03675 0.14175,0.03675 0.26776,0.09625 l -0.11025,0.257254 q -0.11376,-0.05075 -0.23451,-0.0875 -0.119,-0.0385 -0.24325,-0.0385 -0.1785,0 -0.26426,0.0595 -0.0858,0.05775 -0.0858,0.166252 0,0.06125 0.0192,0.106752 0.021,0.0455 0.07,0.08575 0.049,0.04025 0.13126,0.08225 0.0823,0.04025 0.20475,0.091 0.126,0.0525 0.224,0.105002 0.0997,0.0525 0.16976,0.119001 0.07,0.06475 0.10675,0.148753 0.0368,0.084 0.0368,0.201252 z"
         id="text77"
         aria-label="Inputs" /></g></g></svg>
