<?xml version="1.0" encoding="UTF-8" standalone="no"?>
<!-- Created with Inkscape (http://www.inkscape.org/) -->

<svg
   width="32.063202mm"
   height="26.19376mm"
   viewBox="0 0 32.063202 26.19376"
   version="1.1"
   id="svg1"
   xml:space="preserve"
   inkscape:version="1.4 (e7c3feb100, 2024-10-09)"
   sodipodi:docname="presonus-faderport8.svg"
   inkscape:export-filename="fp8_shift_large.svg"
   inkscape:export-xdpi="96"
   inkscape:export-ydpi="96"
   xmlns:inkscape="http://www.inkscape.org/namespaces/inkscape"
   xmlns:sodipodi="http://sodipodi.sourceforge.net/DTD/sodipodi-0.dtd"
   xmlns="http://www.w3.org/2000/svg"
   xmlns:svg="http://www.w3.org/2000/svg"><sodipodi:namedview
     id="namedview1"
     pagecolor="#ffffff"
     bordercolor="#000000"
     borderopacity="0.25"
     inkscape:showpageshadow="2"
     inkscape:pageopacity="0.0"
     inkscape:pagecheckerboard="0"
     inkscape:deskcolor="#d1d1d1"
     inkscape:document-units="mm"
     showguides="true"
     inkscape:zoom="0.70710678"
     inkscape:cx="1577.5552"
     inkscape:cy="566.39253"
     inkscape:window-width="1280"
     inkscape:window-height="683"
     inkscape:window-x="0"
     inkscape:window-y="0"
     inkscape:window-maximized="1"
     inkscape:current-layer="layer1"><sodipodi:guide
       position="-275.58159,20.378483"
       orientation="1,0"
       id="guide5"
       inkscape:locked="false" /><sodipodi:guide
       position="-303.79512,28.042525"
       orientation="1,0"
       id="guide6"
       inkscape:locked="false" /><sodipodi:guide
       position="-247.32975,29.439135"
       orientation="1,0"
       id="guide7"
       inkscape:locked="false" /><sodipodi:guide
       position="-233.71119,6.3874672"
       orientation="1,0"
       id="guide8"
       inkscape:locked="false" /><sodipodi:guide
       position="-314.29059,-6.2368398"
       orientation="0,-1"
       id="guide9"
       inkscape:locked="false" /><sodipodi:guide
       position="-317.79115,-2.7362848"
       orientation="1,0"
       id="guide10"
       inkscape:locked="false" /><sodipodi:guide
       position="-186.07861,8.1318122"
       orientation="1,0"
       id="guide11"
       inkscape:locked="false" /><sodipodi:guide
       position="-120.39956,8.1702402"
       orientation="0,-1"
       id="guide12"
       inkscape:locked="false" /><sodipodi:guide
       position="-146.33366,-10.001979"
       orientation="0,-1"
       id="guide13"
       inkscape:locked="false" /><sodipodi:guide
       position="-157.6655,8.1318122"
       orientation="1,0"
       id="guide14"
       inkscape:locked="false" /><sodipodi:guide
       position="-129.87241,8.1124712"
       orientation="1,0"
       id="guide15"
       inkscape:locked="false" /><sodipodi:guide
       position="-61.328795,46.521606"
       orientation="1,0"
       id="guide16"
       inkscape:locked="false" /><sodipodi:guide
       position="-102.42244,8.1702402"
       orientation="1,0"
       id="guide24"
       inkscape:locked="false" /><sodipodi:guide
       position="-61.428395,46.210954"
       orientation="0,-1"
       id="guide25"
       inkscape:locked="false" /><sodipodi:guide
       position="-61.328795,25.452013"
       orientation="0,-1"
       id="guide26"
       inkscape:locked="false" /><sodipodi:guide
       position="-61.328795,5.1096472"
       orientation="0,-1"
       id="guide27"
       inkscape:locked="false" /><sodipodi:guide
       position="-61.328795,-15.495485"
       orientation="0,-1"
       id="guide28"
       inkscape:locked="false" /><sodipodi:guide
       position="-18.613555,46.210955"
       orientation="1,0"
       id="guide29"
       inkscape:locked="false" /><sodipodi:guide
       position="-18.613555,-35.836733"
       orientation="0,-1"
       id="guide32"
       inkscape:locked="false" /><sodipodi:guide
       position="-208.07418,-34.461975"
       orientation="1,0"
       id="guide33"
       inkscape:locked="false" /><sodipodi:guide
       position="-96.684575,-34.461977"
       orientation="1,0"
       id="guide34"
       inkscape:locked="false" /><sodipodi:guide
       position="-173.73792,-53.93167"
       orientation="1,0"
       id="guide35"
       inkscape:locked="false" /><sodipodi:guide
       position="-140.9049,-66.021609"
       orientation="1,0"
       id="guide36"
       inkscape:locked="false" /><sodipodi:guide
       position="-108.20986,-66.564539"
       orientation="1,0"
       id="guide37"
       inkscape:locked="false" /><sodipodi:guide
       position="-108.20986,-53.385932"
       orientation="0,-1"
       id="guide38"
       inkscape:locked="false" /><sodipodi:guide
       position="-108.20986,-78.149292"
       orientation="0,-1"
       id="guide39"
       inkscape:locked="false" /><sodipodi:guide
       position="-196.39032,-58.375871"
       orientation="1,0"
       id="guide40"
       inkscape:locked="false" /><sodipodi:guide
       position="-163.78323,-65.123555"
       orientation="1,0"
       id="guide41"
       inkscape:locked="false" /><sodipodi:guide
       position="-131.03876,-63.99378"
       orientation="1,0"
       id="guide42"
       inkscape:locked="false" /><sodipodi:guide
       position="-186.07861,-145.66692"
       orientation="0,-1"
       id="guide43"
       inkscape:locked="false" /><sodipodi:guide
       position="-79.328115,43.414505"
       orientation="1,0"
       id="guide69"
       inkscape:locked="false" /><sodipodi:guide
       position="-64.980485,39.116305"
       orientation="0,-1"
       id="guide70"
       inkscape:locked="false" /><sodipodi:guide
       position="-71.019105,42.231837"
       orientation="0,-1"
       id="guide71"
       inkscape:locked="false" /><sodipodi:guide
       position="-116.76352,37.969728"
       orientation="1,0"
       id="guide93"
       inkscape:locked="false" /><sodipodi:guide
       position="1.9499947,47.691146"
       orientation="1,0"
       id="guide117"
       inkscape:locked="false" /><sodipodi:guide
       position="30.443795,50.038808"
       orientation="1,0"
       id="guide118"
       inkscape:locked="false" /><sodipodi:guide
       position="6.9688747,34.825944"
       orientation="1,0"
       id="guide119"
       inkscape:locked="false" /><sodipodi:guide
       position="24.945995,34.825944"
       orientation="1,0"
       id="guide120"
       inkscape:locked="false" /><sodipodi:guide
       position="30.443795,9.4780512"
       orientation="0,-1"
       id="guide128"
       inkscape:locked="false" /><sodipodi:guide
       position="32.279165,7.4246172"
       orientation="0,-1"
       id="guide129"
       inkscape:locked="false" /><sodipodi:guide
       position="28.791055,-54.550682"
       orientation="0,-1"
       id="guide130"
       inkscape:locked="false" /><inkscape:page
       x="-2.0639993e-06"
       y="1.4994952e-06"
       width="32.063202"
       height="26.193758"
       id="page132"
       margin="0"
       bleed="0"
       inkscape:label="fp8_shift_large"
       inkscape:export-filename="fp8_shift_large.png"
       inkscape:export-xdpi="96"
       inkscape:export-ydpi="96" /><sodipodi:guide
       position="143.22603,36.229231"
       orientation="1,0"
       id="guide140"
       inkscape:locked="false" /><sodipodi:guide
       position="114.30002,-50.778685"
       orientation="0,-1"
       id="guide217"
       inkscape:locked="false" /></sodipodi:namedview><defs
     id="defs1" /><g
     inkscape:label="Layer 1"
     inkscape:groupmode="layer"
     id="layer1"
     transform="translate(-323.01664,-5.6885366)"><g
       id="g134"
       transform="translate(6.35004,-117.93802)"><rect
         style="font-variation-settings:normal;opacity:1;vector-effect:none;fill:#2c2b30;fill-opacity:1;stroke:none;stroke-width:0.79375;stroke-linecap:round;stroke-linejoin:round;stroke-miterlimit:4;stroke-dasharray:none;stroke-dashoffset:0;stroke-opacity:1;-inkscape-stroke:none;stop-color:#000000;stop-opacity:1"
         id="rect132"
         width="32.063202"
         height="26.193758"
         x="316.6666"
         y="123.62656"
         rx="0"
         ry="0" /><rect
         style="font-variation-settings:normal;display:inline;vector-effect:none;fill:#516070;fill-opacity:1;stroke:none;stroke-width:0.79375;stroke-linecap:butt;stroke-linejoin:miter;stroke-miterlimit:4;stroke-dasharray:none;stroke-dashoffset:0;stroke-opacity:1;-inkscape-stroke:none;stop-color:#000000"
         id="rect133"
         width="28.493805"
         height="23.588245"
         x="318.55927"
         y="124.88329"
         ry="1.8355469"
         rx="1.8355469"
         inkscape:label="fp8_fadermode_bg2" /></g><rect
       style="font-variation-settings:normal;opacity:1;vector-effect:none;fill:#fbc51b;fill-opacity:1;stroke:#e28717;stroke-width:0.79375;stroke-linecap:butt;stroke-linejoin:miter;stroke-miterlimit:4;stroke-dasharray:none;stroke-dashoffset:0;stroke-opacity:1;-inkscape-stroke:none;stop-color:#000000;stop-opacity:1"
       id="rect134"
       width="17.18338"
       height="16.697432"
       x="330.56451"
       y="10.390679"
       rx="0"
       ry="1.2637023" /><rect
       style="font-variation-settings:normal;opacity:1;vector-effect:none;fill:#16212c;fill-opacity:1;stroke:none;stroke-width:0.79375;stroke-linecap:butt;stroke-linejoin:miter;stroke-miterlimit:4;stroke-dasharray:none;stroke-dashoffset:0;stroke-opacity:1;-inkscape-stroke:none"
       id="rect135"
       width="13.283296"
       height="12.909118"
       x="332.51456"
       y="12.284837"
       ry="1.2637023" /><path
       style="font-size:4.35208px;font-family:'Droid Sans';-inkscape-font-specification:'Droid Sans';text-align:center;text-anchor:middle;fill:#fbc51b;stroke-width:0.529166"
       d="m 336.91721,19.552222 q 0,0.206128 -0.0744,0.369756 -0.0722,0.161503 -0.20825,0.274131 -0.136,0.112627 -0.33151,0.172128 -0.1955,0.05738 -0.43988,0.05738 -0.23588,0 -0.44201,-0.03825 -0.204,-0.03613 -0.34213,-0.108377 v -0.378257 q 0.0722,0.034 0.16363,0.068 0.0935,0.03188 0.1955,0.05738 0.102,0.0255 0.21038,0.0425 0.10838,0.01487 0.21463,0.01487 0.34001,0 0.50151,-0.127502 0.16363,-0.127502 0.16363,-0.365507 0,-0.114752 -0.0319,-0.199753 -0.0297,-0.085 -0.10838,-0.155128 -0.0765,-0.07225 -0.20612,-0.138128 -0.12963,-0.068 -0.32726,-0.146627 -0.18913,-0.07438 -0.32938,-0.161503 -0.13813,-0.08925 -0.22951,-0.199754 -0.0892,-0.110502 -0.13387,-0.250755 -0.0425,-0.140252 -0.0425,-0.318755 0,-0.187004 0.068,-0.333632 0.068,-0.146627 0.19125,-0.246504 0.12325,-0.102002 0.29326,-0.155128 0.17212,-0.05313 0.37825,-0.05313 0.25288,0 0.45476,0.04888 0.20188,0.04675 0.35913,0.121127 l -0.14237,0.331506 q -0.13813,-0.06163 -0.31451,-0.106252 -0.17425,-0.04675 -0.36126,-0.04675 -0.25925,0 -0.40163,0.121127 -0.14238,0.119002 -0.14238,0.323006 0,0.121127 0.0319,0.210379 0.0319,0.08713 0.10625,0.159377 0.0744,0.07013 0.1955,0.133878 0.12326,0.06163 0.30176,0.131752 0.19338,0.0765 0.33788,0.157253 0.14663,0.08075 0.24438,0.182754 0.0978,0.102001 0.14663,0.235879 0.051,0.133877 0.051,0.316631 z m 1.89499,0.83089 v -1.502403 q 0,-0.276255 -0.11262,-0.414382 -0.1105,-0.138128 -0.34851,-0.138128 -0.17213,0 -0.289,0.05525 -0.11688,0.05525 -0.18913,0.163628 -0.0701,0.108377 -0.102,0.26563 -0.0297,0.157253 -0.0297,0.361257 v 1.209147 h -0.38676 V 17.07655 h 0.38676 v 0.981768 l -0.017,0.306006 h 0.0213 q 0.0531,-0.09138 0.12537,-0.157253 0.0744,-0.068 0.16151,-0.112627 0.0871,-0.04463 0.18487,-0.06588 0.0978,-0.02125 0.19976,-0.02125 0.38888,0 0.58438,0.204004 0.19763,0.201879 0.19763,0.648137 v 1.523653 z m 1.29334,0 h -0.38675 v -2.333293 h 0.38675 z m -0.4165,-2.964429 q 0,-0.127503 0.0638,-0.184879 0.0659,-0.05738 0.1615,-0.05738 0.0468,0 0.0871,0.01487 0.0425,0.01275 0.0722,0.0425 0.0319,0.02975 0.0489,0.0765 0.0191,0.04462 0.0191,0.108377 0,0.123252 -0.068,0.184878 -0.0659,0.0595 -0.15938,0.0595 -0.0956,0 -0.1615,-0.0595 -0.0638,-0.0595 -0.0638,-0.184878 z m 2.10352,0.922266 h -0.52064 v 2.042163 h -0.38888 v -2.042163 h -0.41226 v -0.159377 l 0.41226,-0.144503 v -0.204004 q 0,-0.227379 0.0468,-0.376132 0.0489,-0.150878 0.13813,-0.240129 0.0914,-0.08925 0.22313,-0.125377 0.13175,-0.03825 0.2975,-0.03825 0.12538,0 0.22951,0.0255 0.10625,0.02338 0.18913,0.05313 l -0.0999,0.299631 q -0.0659,-0.02338 -0.1445,-0.04038 -0.0765,-0.01912 -0.16151,-0.01912 -0.085,0 -0.14663,0.02125 -0.0616,0.01912 -0.102,0.07013 -0.0404,0.051 -0.0616,0.140253 -0.0191,0.08713 -0.0191,0.225254 v 0.221004 h 0.52064 z m 1.12414,1.768033 q 0.0383,0 0.085,-0.0043 0.0489,-0.0042 0.0935,-0.01062 0.0446,-0.0064 0.0808,-0.01488 0.0383,-0.0085 0.0574,-0.01487 v 0.293255 q -0.0276,0.01275 -0.0701,0.0255 -0.0425,0.01275 -0.0935,0.02125 -0.051,0.01063 -0.10625,0.01488 -0.0553,0.0064 -0.10837,0.0064 -0.13176,0 -0.24438,-0.034 -0.11263,-0.034 -0.19551,-0.116877 -0.0808,-0.08288 -0.1275,-0.223129 -0.0467,-0.142378 -0.0467,-0.357007 v -1.35365 h -0.32938 v -0.172128 l 0.32938,-0.165753 0.16575,-0.488759 h 0.22313 v 0.53551 h 0.58651 v 0.29113 h -0.58651 v 1.35365 q 0,0.206129 0.0659,0.310256 0.068,0.104127 0.221,0.104127 z"
       id="text135"
       aria-label="Shift" /></g></svg>
