<?xml version="1.0" encoding="UTF-8" standalone="no"?>
<!-- Created with Inkscape (http://www.inkscape.org/) -->

<svg
   width="111.38958mm"
   height="86.783333mm"
   viewBox="0 0 111.38958 86.783332"
   version="1.1"
   id="svg1"
   xml:space="preserve"
   inkscape:version="1.4 (e7c3feb100, 2024-10-09)"
   sodipodi:docname="presonus-faderport8.svg"
   inkscape:export-filename="fp8_shift_large.svg"
   inkscape:export-xdpi="96"
   inkscape:export-ydpi="96"
   xmlns:inkscape="http://www.inkscape.org/namespaces/inkscape"
   xmlns:sodipodi="http://sodipodi.sourceforge.net/DTD/sodipodi-0.dtd"
   xmlns="http://www.w3.org/2000/svg"
   xmlns:svg="http://www.w3.org/2000/svg"><sodipodi:namedview
     id="namedview1"
     pagecolor="#ffffff"
     bordercolor="#000000"
     borderopacity="0.25"
     inkscape:showpageshadow="2"
     inkscape:pageopacity="0.0"
     inkscape:pagecheckerboard="0"
     inkscape:deskcolor="#d1d1d1"
     inkscape:document-units="mm"
     showguides="true"
     inkscape:zoom="0.92748714"
     inkscape:cx="155.79731"
     inkscape:cy="154.71913"
     inkscape:window-width="1280"
     inkscape:window-height="683"
     inkscape:window-x="0"
     inkscape:window-y="0"
     inkscape:window-maximized="1"
     inkscape:current-layer="layer1"><inkscape:page
       x="0"
       y="0"
       width="111.38958"
       height="86.783333"
       id="page1"
       margin="0"
       bleed="0"
       inkscape:label="fp8_transport"
       inkscape:export-filename="fp8_navigation.png"
       inkscape:export-xdpi="96"
       inkscape:export-ydpi="96" /><sodipodi:guide
       position="55.412135,54.840459"
       orientation="1,0"
       id="guide5"
       inkscape:locked="false" /><sodipodi:guide
       position="27.198601,62.504501"
       orientation="1,0"
       id="guide6"
       inkscape:locked="false" /><sodipodi:guide
       position="83.663971,63.901111"
       orientation="1,0"
       id="guide7"
       inkscape:locked="false" /><sodipodi:guide
       position="97.282531,40.849443"
       orientation="1,0"
       id="guide8"
       inkscape:locked="false" /><sodipodi:guide
       position="16.70313,28.225136"
       orientation="0,-1"
       id="guide9"
       inkscape:locked="false" /><sodipodi:guide
       position="13.202574,31.725691"
       orientation="1,0"
       id="guide10"
       inkscape:locked="false" /><sodipodi:guide
       position="144.91512,42.593788"
       orientation="1,0"
       id="guide11"
       inkscape:locked="false" /><sodipodi:guide
       position="210.59416,42.632216"
       orientation="0,-1"
       id="guide12"
       inkscape:locked="false" /><sodipodi:guide
       position="184.66006,24.459997"
       orientation="0,-1"
       id="guide13"
       inkscape:locked="false" /><sodipodi:guide
       position="173.32822,42.593788"
       orientation="1,0"
       id="guide14"
       inkscape:locked="false" /><sodipodi:guide
       position="201.12131,42.574447"
       orientation="1,0"
       id="guide15"
       inkscape:locked="false" /><sodipodi:guide
       position="269.66492,80.983582"
       orientation="1,0"
       id="guide16"
       inkscape:locked="false" /><sodipodi:guide
       position="228.57128,42.632216"
       orientation="1,0"
       id="guide24"
       inkscape:locked="false" /><sodipodi:guide
       position="269.56532,80.67293"
       orientation="0,-1"
       id="guide25"
       inkscape:locked="false" /><sodipodi:guide
       position="269.66492,59.913989"
       orientation="0,-1"
       id="guide26"
       inkscape:locked="false" /><sodipodi:guide
       position="269.66492,39.571623"
       orientation="0,-1"
       id="guide27"
       inkscape:locked="false" /><sodipodi:guide
       position="269.66492,18.966491"
       orientation="0,-1"
       id="guide28"
       inkscape:locked="false" /><sodipodi:guide
       position="312.38016,80.672931"
       orientation="1,0"
       id="guide29"
       inkscape:locked="false" /><sodipodi:guide
       position="312.38016,-1.3747574"
       orientation="0,-1"
       id="guide32"
       inkscape:locked="false" /><sodipodi:guide
       position="122.91955,5.8379706e-07"
       orientation="1,0"
       id="guide33"
       inkscape:locked="false" /><sodipodi:guide
       position="234.30914,-1.3333333e-06"
       orientation="1,0"
       id="guide34"
       inkscape:locked="false" /><sodipodi:guide
       position="157.2558,-19.469694"
       orientation="1,0"
       id="guide35"
       inkscape:locked="false" /><sodipodi:guide
       position="190.08882,-31.559633"
       orientation="1,0"
       id="guide36"
       inkscape:locked="false" /><sodipodi:guide
       position="222.78386,-32.102563"
       orientation="1,0"
       id="guide37"
       inkscape:locked="false" /><sodipodi:guide
       position="222.78386,-18.923956"
       orientation="0,-1"
       id="guide38"
       inkscape:locked="false" /><sodipodi:guide
       position="222.78386,-43.687316"
       orientation="0,-1"
       id="guide39"
       inkscape:locked="false" /><sodipodi:guide
       position="134.60341,-23.913895"
       orientation="1,0"
       id="guide40"
       inkscape:locked="false" /><sodipodi:guide
       position="167.21049,-30.661579"
       orientation="1,0"
       id="guide41"
       inkscape:locked="false" /><sodipodi:guide
       position="199.95496,-29.531804"
       orientation="1,0"
       id="guide42"
       inkscape:locked="false" /><sodipodi:guide
       position="144.91512,-111.20494"
       orientation="0,-1"
       id="guide43"
       inkscape:locked="false" /><sodipodi:guide
       position="251.6656,77.876481"
       orientation="1,0"
       id="guide69"
       inkscape:locked="false" /><sodipodi:guide
       position="266.01323,73.578281"
       orientation="0,-1"
       id="guide70"
       inkscape:locked="false" /><sodipodi:guide
       position="259.97461,76.693813"
       orientation="0,-1"
       id="guide71"
       inkscape:locked="false" /><sodipodi:guide
       position="214.2302,72.431704"
       orientation="1,0"
       id="guide93"
       inkscape:locked="false" /><sodipodi:guide
       position="332.94371,82.153122"
       orientation="1,0"
       id="guide117"
       inkscape:locked="false" /><sodipodi:guide
       position="361.43751,84.500784"
       orientation="1,0"
       id="guide118"
       inkscape:locked="false" /><sodipodi:guide
       position="337.96259,69.28792"
       orientation="1,0"
       id="guide119"
       inkscape:locked="false" /><sodipodi:guide
       position="355.93971,69.28792"
       orientation="1,0"
       id="guide120"
       inkscape:locked="false" /><sodipodi:guide
       position="361.43751,43.940027"
       orientation="0,-1"
       id="guide128"
       inkscape:locked="false" /><sodipodi:guide
       position="363.27288,41.886593"
       orientation="0,-1"
       id="guide129"
       inkscape:locked="false" /><sodipodi:guide
       position="359.78477,-20.088706"
       orientation="0,-1"
       id="guide130"
       inkscape:locked="false" /><sodipodi:guide
       position="474.21975,70.691207"
       orientation="1,0"
       id="guide140"
       inkscape:locked="false" /><sodipodi:guide
       position="445.29374,-16.316709"
       orientation="0,-1"
       id="guide217"
       inkscape:locked="false" /></sodipodi:namedview><defs
     id="defs1" /><g
     inkscape:label="Layer 1"
     inkscape:groupmode="layer"
     id="layer1"
     transform="translate(7.9770874,-41.473435)"><rect
       style="font-variation-settings:normal;opacity:1;vector-effect:none;fill:#2c2b30;fill-opacity:1;stroke:none;stroke-width:0.79375;stroke-linecap:round;stroke-linejoin:round;stroke-miterlimit:4;stroke-dasharray:none;stroke-dashoffset:0;stroke-opacity:1;-inkscape-stroke:none"
       id="rect68"
       width="111.38957"
       height="86.78334"
       x="-7.9770875"
       y="41.473434" /><circle
       style="font-variation-settings:normal;opacity:1;vector-effect:none;fill:#62c44b;fill-opacity:1;stroke:#308639;stroke-width:0.79375;stroke-linecap:butt;stroke-linejoin:miter;stroke-miterlimit:4;stroke-dasharray:none;stroke-dashoffset:0;stroke-opacity:1;-inkscape-stroke:none;stop-color:#000000;stop-opacity:1"
       id="circle63"
       cx="47.079182"
       cy="63.927326"
       r="8.7544031" /><circle
       style="fill:#f43917;fill-opacity:1;stroke:#ffffff;stroke-width:0.529167;stroke-opacity:1;-inkscape-stroke:none"
       id="path3"
       cx="5.2254872"
       cy="102.67747"
       r="3.5005553" /><path
       style="font-weight:bold;font-size:4.30526px;font-family:'Droid Sans';-inkscape-font-specification:'Droid Sans Bold';fill:#ffffff;stroke-width:2.11667"
       d="M 5.0901442,114.55221 H 4.4405713 v -1.77844 q 0,-0.0547 0,-0.13034 0.0021,-0.0778 0.0042,-0.15977 0.0042,-0.0841 0.00631,-0.16817 0.0042,-0.0841 0.00631,-0.15346 -0.010511,0.0126 -0.035737,0.0378 -0.025226,0.0252 -0.056759,0.0568 -0.031533,0.0294 -0.065168,0.061 -0.033635,0.0315 -0.065168,0.0568 l -0.3531658,0.2838 -0.3153267,-0.39101 0.9901257,-0.78832 h 0.5339532 z"
       id="text4"
       transform="scale(1.1010968,0.90818536)"
       aria-label="1" /><circle
       style="fill:#f43917;fill-opacity:1;stroke:#ffffff;stroke-width:0.529167;stroke-opacity:1;-inkscape-stroke:none"
       id="circle2"
       cx="19.221514"
       cy="48.234665"
       r="3.5005553" /><path
       style="font-weight:bold;font-size:4.30526px;font-family:'Droid Sans';-inkscape-font-specification:'Droid Sans Bold';fill:#ffffff;stroke-width:2.11667"
       d="m 18.492019,54.6698 h -2.062236 v -0.451968 l 0.723149,-0.779908 q 0.136642,-0.147153 0.248057,-0.271181 0.111415,-0.124029 0.191298,-0.241751 0.07988,-0.117722 0.124029,-0.239648 0.04415,-0.121926 0.04415,-0.262772 0,-0.155561 -0.0946,-0.241751 -0.0925,-0.08619 -0.250159,-0.08619 -0.166072,0 -0.319531,0.08199 -0.153459,0.08199 -0.321633,0.233342 l -0.353166,-0.418334 q 0.0946,-0.08619 0.197605,-0.16397 0.103007,-0.07988 0.227035,-0.140846 0.124029,-0.06096 0.273283,-0.0967 0.149255,-0.03784 0.334247,-0.03784 0.220728,0 0.395209,0.06096 0.176583,0.06096 0.300611,0.174481 0.124029,0.111415 0.189196,0.271181 0.06727,0.159765 0.06727,0.359472 0,0.180788 -0.06307,0.34686 -0.06307,0.16397 -0.172379,0.323735 -0.109313,0.157663 -0.254363,0.315327 -0.142948,0.155561 -0.306918,0.317429 l -0.369984,0.372085 v 0.02943 h 1.252898 z"
       id="text2"
       transform="scale(1.1010968,0.90818536)"
       aria-label="2" /><circle
       style="fill:#f43917;fill-opacity:1;stroke:#ffffff;stroke-width:0.529167;stroke-opacity:1;-inkscape-stroke:none"
       id="circle3"
       cx="47.435047"
       cy="121.76051"
       r="3.5005553" /><path
       style="font-weight:bold;font-size:4.30526px;font-family:'Droid Sans';-inkscape-font-specification:'Droid Sans Bold';fill:#ffffff;stroke-width:2.11667"
       d="m 44.032104,133.17851 q 0,0.15977 -0.05255,0.288 -0.05045,0.12613 -0.140846,0.22283 -0.08829,0.0946 -0.210218,0.15977 -0.119824,0.0631 -0.26067,0.0967 v 0.0126 q 0.372086,0.0463 0.563384,0.22703 0.191298,0.17869 0.191298,0.48351 0,0.2018 -0.07358,0.37418 -0.07147,0.17028 -0.222831,0.29641 -0.149255,0.12613 -0.378392,0.19761 -0.227035,0.0694 -0.536055,0.0694 -0.248057,0 -0.466684,-0.042 -0.218626,-0.0399 -0.407822,-0.12402 v -0.55288 q 0.0946,0.0504 0.199707,0.0883 0.105109,0.0378 0.210217,0.0652 0.105109,0.0252 0.206014,0.0378 0.103007,0.0126 0.1934,0.0126 0.180788,0 0.300612,-0.0336 0.119824,-0.0336 0.191298,-0.0946 0.07147,-0.061 0.100904,-0.14505 0.03153,-0.0862 0.03153,-0.18709 0,-0.0946 -0.03994,-0.17028 -0.03784,-0.0778 -0.126131,-0.13033 -0.08619,-0.0547 -0.227035,-0.0841 -0.140846,-0.0294 -0.34686,-0.0294 h -0.218626 v -0.45617 h 0.214422 q 0.1934,0 0.321633,-0.0336 0.128233,-0.0357 0.203912,-0.0946 0.07778,-0.061 0.109313,-0.14084 0.03153,-0.0799 0.03153,-0.17028 0,-0.16397 -0.103006,-0.25647 -0.100905,-0.0925 -0.321633,-0.0925 -0.100905,0 -0.189196,0.021 -0.08619,0.0189 -0.161868,0.0505 -0.07358,0.0294 -0.136642,0.0673 -0.06096,0.0357 -0.111415,0.0715 l -0.32794,-0.43305 q 0.08829,-0.0652 0.191298,-0.11983 0.105109,-0.0547 0.227036,-0.0946 0.121926,-0.042 0.262772,-0.0652 0.140846,-0.0231 0.300611,-0.0231 0.227035,0 0.412027,0.0505 0.187094,0.0483 0.319531,0.14294 0.132437,0.0925 0.203911,0.22914 0.07358,0.13454 0.07358,0.30902 z"
       id="text3"
       transform="scale(1.1010968,0.90818536)"
       aria-label="3" /><circle
       style="fill:#f43917;fill-opacity:1;stroke:#ffffff;stroke-width:0.529167;stroke-opacity:1;-inkscape-stroke:none"
       id="circle4"
       cx="47.079182"
       cy="48.234669"
       r="3.5005553" /><path
       style="font-weight:bold;font-size:4.30526px;font-family:'Droid Sans';-inkscape-font-specification:'Droid Sans Bold';fill:#ffffff;stroke-width:2.11667"
       d="m 43.643198,53.968452 h -0.369983 v 0.63696 h -0.632756 v -0.63696 h -1.269715 v -0.451969 l 1.305452,-1.984455 h 0.597019 v 1.931901 h 0.369983 z m -1.002739,-0.504523 v -0.52134 q 0,-0.02733 0,-0.07778 0.0021,-0.05255 0.0042,-0.117722 0.0021,-0.06517 0.0042,-0.134539 0.0042,-0.06937 0.0063,-0.132437 0.0042,-0.06307 0.0063,-0.109313 0.0042,-0.04835 0.0063,-0.06937 h -0.01892 q -0.03784,0.08829 -0.08619,0.187093 -0.04625,0.0988 -0.107211,0.197605 l -0.512932,0.777806 z"
       id="text5"
       transform="scale(1.1010968,0.90818536)"
       aria-label="4" /><circle
       style="fill:#f43917;fill-opacity:1;stroke:#ffffff;stroke-width:0.529167;stroke-opacity:1;-inkscape-stroke:none"
       id="circle8"
       cx="75.686882"
       cy="48.234669"
       r="3.5005553" /><path
       style="font-weight:bold;font-size:4.30526px;font-family:'Droid Sans';-inkscape-font-specification:'Droid Sans Bold';fill:#ffffff;stroke-width:2.11667"
       d="m 68.809196,52.641977 q 0.197605,0 0.367881,0.06096 0.170276,0.06096 0.296407,0.178685 0.126131,0.117722 0.197605,0.294305 0.07147,0.17448 0.07147,0.401516 0,0.250159 -0.07778,0.449866 -0.07778,0.197604 -0.229137,0.336348 -0.151357,0.136642 -0.37629,0.210218 -0.222831,0.07358 -0.512931,0.07358 -0.11562,0 -0.229138,-0.01051 -0.113517,-0.01051 -0.218626,-0.03153 -0.103007,-0.01892 -0.197605,-0.05045 -0.0925,-0.03153 -0.168174,-0.07358 v -0.561281 q 0.07358,0.04204 0.170276,0.07988 0.0967,0.03574 0.199707,0.06307 0.105109,0.02523 0.210218,0.04204 0.105109,0.01472 0.199707,0.01472 0.281692,0 0.428844,-0.115619 0.147152,-0.117722 0.147152,-0.372086 0,-0.227035 -0.14505,-0.344757 -0.142948,-0.119824 -0.443559,-0.119824 -0.05466,0 -0.117722,0.0063 -0.06096,0.0063 -0.121927,0.01682 -0.05886,0.01051 -0.113517,0.02312 -0.05466,0.01051 -0.0946,0.02312 l -0.258568,-0.138744 0.11562,-1.566122 h 1.622881 v 0.55077 h -1.059498 l -0.05045,0.603325 q 0.06727,-0.01472 0.155561,-0.02943 0.09039,-0.01472 0.23124,-0.01472 z"
       id="text8"
       transform="scale(1.1010968,0.90818536)"
       aria-label="5" /><circle
       style="fill:#f43917;fill-opacity:1;stroke:#ffffff;stroke-width:0.529167;stroke-opacity:1;-inkscape-stroke:none"
       id="circle9"
       cx="89.305443"
       cy="102.67747"
       r="3.5005553" /><path
       style="font-weight:bold;font-size:4.30526px;font-family:'Droid Sans';-inkscape-font-specification:'Droid Sans Bold';fill:#ffffff;stroke-width:2.11667"
       d="m 79.871374,113.24675 q 0,-0.22073 0.02312,-0.43936 0.02523,-0.21862 0.08619,-0.41833 0.06306,-0.20181 0.168174,-0.37419 0.107211,-0.17238 0.269079,-0.29851 0.16397,-0.12823 0.391005,-0.1997 0.229137,-0.0736 0.533953,-0.0736 0.04415,0 0.0967,0.002 0.05255,0.002 0.105109,0.006 0.05466,0.002 0.105109,0.008 0.05045,0.006 0.09039,0.0147 v 0.51924 q -0.07988,-0.0189 -0.170276,-0.0294 -0.08829,-0.0126 -0.178685,-0.0126 -0.283794,0 -0.466684,0.0715 -0.182889,0.0694 -0.2901,0.1955 -0.107211,0.12613 -0.153459,0.30272 -0.04415,0.17658 -0.05466,0.391 h 0.02523 q 0.04204,-0.0757 0.100905,-0.14084 0.06096,-0.0673 0.140846,-0.11352 0.07988,-0.0483 0.178685,-0.0757 0.100905,-0.0273 0.224933,-0.0273 0.199707,0 0.359472,0.0652 0.159766,0.0652 0.269079,0.18919 0.111416,0.12403 0.170277,0.30482 0.05886,0.18079 0.05886,0.41413 0,0.25016 -0.07147,0.44776 -0.06937,0.19761 -0.199707,0.33635 -0.130335,0.13664 -0.315327,0.21022 -0.184992,0.0715 -0.416231,0.0715 -0.227035,0 -0.42464,-0.0799 -0.197605,-0.082 -0.344757,-0.24806 -0.145051,-0.16607 -0.229138,-0.41833 -0.08199,-0.25436 -0.08199,-0.60122 z m 1.067907,0.82826 q 0.08619,0 0.155561,-0.0315 0.07147,-0.0336 0.121926,-0.0988 0.05255,-0.0673 0.07988,-0.16817 0.02943,-0.10091 0.02943,-0.23965 0,-0.22493 -0.0946,-0.35317 -0.09249,-0.13033 -0.283794,-0.13033 -0.0967,0 -0.176582,0.0378 -0.07988,0.0378 -0.136642,0.0988 -0.05676,0.061 -0.08829,0.13664 -0.02943,0.0757 -0.02943,0.15346 0,0.10721 0.02523,0.21442 0.02733,0.10511 0.07988,0.1913 0.05466,0.0841 0.132437,0.13664 0.07988,0.0526 0.184992,0.0526 z"
       id="text9"
       transform="scale(1.1010968,0.90818536)"
       aria-label="6" /><circle
       style="font-variation-settings:normal;opacity:1;vector-effect:none;fill:#6dd0f5;fill-opacity:1;stroke:#4c93d5;stroke-width:0.79375;stroke-linecap:butt;stroke-linejoin:miter;stroke-miterlimit:4;stroke-dasharray:none;stroke-dashoffset:0;stroke-opacity:1;-inkscape-stroke:none;stop-color:#000000;stop-opacity:1"
       id="path52"
       cx="18.957186"
       cy="63.927326"
       r="8.7544031" /><path
       id="rect53"
       d="m 16.240039,61.04485 c -1.518008,0 -2.802413,1.082929 -2.802413,2.486153 v 0.328146 c 0,1.403224 1.284405,2.48667 2.802413,2.48667 h 1.317749 l 0.310575,-0.538986 h 0.0036 l 1.208711,-2.093412 -1.123962,-0.01033 -1.068152,1.849499 h -0.648539 c -1.147899,0 -2.009697,-0.780562 -2.009697,-1.693436 v -0.328146 c 0,-0.912874 0.861798,-1.69292 2.009697,-1.69292 h 5.820316 c 1.1479,0 2.010214,0.780046 2.010214,1.69292 v 0.328146 c 0,0.912874 -0.862314,1.693436 -2.010214,1.693436 h -1.3255 l 1.061951,-1.839164 -1.123963,-0.01033 -1.214913,2.103747 h 0.0021 l -0.310058,0.538986 h 2.910416 c 1.518008,0 2.804997,-1.083446 2.804997,-2.48667 v -0.328146 c 0,-1.403224 -1.286989,-2.486153 -2.804997,-2.486153 z" /><circle
       style="font-variation-settings:normal;opacity:1;vector-effect:none;fill:#62c44b;fill-opacity:1;stroke:#308639;stroke-width:0.79375;stroke-linecap:butt;stroke-linejoin:miter;stroke-miterlimit:4;stroke-dasharray:none;stroke-dashoffset:0;stroke-opacity:1;-inkscape-stroke:none;stop-color:#000000;stop-opacity:1"
       id="circle60"
       cx="75.20118"
       cy="63.927326"
       r="8.7544031" /><g
       id="g61"><path
         style="font-variation-settings:normal;opacity:1;vector-effect:none;fill:#080705;fill-opacity:1;stroke:none;stroke-width:0.79375;stroke-linecap:butt;stroke-linejoin:miter;stroke-miterlimit:4;stroke-dasharray:none;stroke-dashoffset:0;stroke-opacity:1;-inkscape-stroke:none"
         d="M 72.447654,66.707019 V 60.79034 l 2.970032,2.970032 z"
         id="path60" /><path
         style="font-variation-settings:normal;opacity:1;vector-effect:none;fill:#080705;fill-opacity:1;stroke:none;stroke-width:0.79375;stroke-linecap:butt;stroke-linejoin:miter;stroke-miterlimit:4;stroke-dasharray:none;stroke-dashoffset:0;stroke-opacity:1;-inkscape-stroke:none"
         d="M 75.604776,66.707019 V 60.79034 l 2.970032,2.970032 z"
         id="path61" /></g><g
       id="g63"
       transform="matrix(-1,0,0,1,121.95135,0)"><path
         style="font-variation-settings:normal;opacity:1;vector-effect:none;fill:#080705;fill-opacity:1;stroke:none;stroke-width:0.79375;stroke-linecap:butt;stroke-linejoin:miter;stroke-miterlimit:4;stroke-dasharray:none;stroke-dashoffset:0;stroke-opacity:1;-inkscape-stroke:none"
         d="M 72.447654,66.707019 V 60.79034 l 2.970032,2.970032 z"
         id="path62" /><path
         style="font-variation-settings:normal;opacity:1;vector-effect:none;fill:#080705;fill-opacity:1;stroke:none;stroke-width:0.79375;stroke-linecap:butt;stroke-linejoin:miter;stroke-miterlimit:4;stroke-dasharray:none;stroke-dashoffset:0;stroke-opacity:1;-inkscape-stroke:none"
         d="M 75.604776,66.707019 V 60.79034 l 2.970032,2.970032 z"
         id="path63" /></g><circle
       style="font-variation-settings:normal;opacity:1;vector-effect:none;fill:#e25f28;fill-opacity:1;stroke:#af2f20;stroke-width:0.79375;stroke-linecap:butt;stroke-linejoin:miter;stroke-miterlimit:4;stroke-dasharray:none;stroke-dashoffset:0;stroke-opacity:1;-inkscape-stroke:none;stop-color:#000000;stop-opacity:1"
       id="circle64"
       cx="89.305443"
       cy="88.00441"
       r="8.7544031" /><ellipse
       style="font-variation-settings:normal;opacity:1;vector-effect:none;fill:#080705;fill-opacity:1;stroke:none;stroke-width:0.79375;stroke-linecap:butt;stroke-linejoin:miter;stroke-miterlimit:4;stroke-dasharray:none;stroke-dashoffset:0;stroke-opacity:1;-inkscape-stroke:none"
       id="path64"
       cx="89.305443"
       cy="88.00441"
       rx="3.4568815"
       ry="3.5385685" /><circle
       style="font-variation-settings:normal;opacity:1;vector-effect:none;fill:#fbc51b;fill-opacity:1;stroke:#e28717;stroke-width:0.79375;stroke-linecap:butt;stroke-linejoin:miter;stroke-miterlimit:4;stroke-dasharray:none;stroke-dashoffset:0;stroke-opacity:1;-inkscape-stroke:none;stop-color:#000000;stop-opacity:1"
       id="circle65"
       cx="5.4646187"
       cy="88.00441"
       r="8.7544031" /><rect
       style="font-variation-settings:normal;opacity:1;vector-effect:none;fill:#000000;fill-opacity:1;stroke:none;stroke-width:0.79375;stroke-linecap:butt;stroke-linejoin:miter;stroke-miterlimit:4;stroke-dasharray:none;stroke-dashoffset:0;stroke-opacity:1;-inkscape-stroke:none"
       id="rect65"
       width="7.0520144"
       height="7.077137"
       x="1.9386114"
       y="84.465843" /><circle
       style="font-variation-settings:normal;opacity:1;vector-effect:none;fill:#62c44b;fill-opacity:1;stroke:#308639;stroke-width:0.793749;stroke-linecap:butt;stroke-linejoin:miter;stroke-miterlimit:4;stroke-dasharray:none;stroke-dashoffset:0;stroke-opacity:1;-inkscape-stroke:none;stop-color:#000000;stop-opacity:1"
       id="circle66"
       cx="47.385033"
       cy="100.9464"
       r="13.913778" /><g
       id="g66"
       transform="translate(2.0535415)"><path
         style="font-variation-settings:normal;opacity:0.98;vector-effect:none;fill:#000000;fill-opacity:1;stroke:none;stroke-width:0.79375;stroke-linecap:butt;stroke-linejoin:miter;stroke-miterlimit:4;stroke-dasharray:none;stroke-dashoffset:0;stroke-opacity:1;-inkscape-stroke:none"
         d="m 39.37973,105.85532 v -9.892311 l 7.2263,4.911081 z"
         id="path66" /><rect
         style="font-variation-settings:normal;opacity:0.98;vector-effect:none;fill:#000000;fill-opacity:1;stroke:none;stroke-width:0.79375;stroke-linecap:butt;stroke-linejoin:miter;stroke-miterlimit:4;stroke-dasharray:none;stroke-dashoffset:0;stroke-opacity:1;-inkscape-stroke:none"
         id="rect66"
         width="2.5958552"
         height="9.8923111"
         x="48.687393"
         y="95.963005" /></g><path
       style="font-weight:bold;font-size:3.92787px;font-family:'Droid Sans';-inkscape-font-specification:'Droid Sans';text-align:center;text-anchor:middle;fill:#dddde0;stroke-width:0.529167"
       d="m 58.621055,76.831254 h 0.161104 q 0.24741,0 0.354813,-0.09781 0.107403,-0.09973 0.107403,-0.291521 0,-0.199462 -0.115075,-0.28385 -0.115074,-0.08439 -0.35673,-0.08439 h -0.151515 z m 0,0.483312 v 1.075945 h -0.59455 v -2.803978 h 0.767162 q 0.538931,0 0.795931,0.209052 0.256999,0.207133 0.256999,0.630991 0,0.143842 -0.03836,0.260835 -0.03836,0.116992 -0.103567,0.209051 -0.06329,0.09014 -0.147679,0.159186 -0.08247,0.06713 -0.174529,0.113157 0.212887,0.341387 0.381663,0.609894 0.07288,0.115074 0.140007,0.224395 0.06905,0.10932 0.122746,0.195626 0.0537,0.08631 0.08822,0.138089 l 0.0326,0.0537 h -0.659759 l -0.607976,-1.075945 z m 2.863433,1.075945 h -0.592633 v -2.309158 h -0.703871 v -0.49482 h 1.998457 v 0.49482 h -0.701953 z m 2.803977,0 h -1.929412 v -0.385499 l 1.187183,-1.927495 h -1.150743 v -0.490984 h 1.856532 v 0.383581 l -1.185265,1.929413 h 1.221705 z"
       id="text48-1"
       aria-label="RTZ" /><path
       style="font-variation-settings:normal;opacity:0.98;vector-effect:none;fill:none;fill-opacity:1;stroke:#dddde0;stroke-width:0.79375;stroke-linecap:round;stroke-linejoin:round;stroke-miterlimit:4;stroke-dasharray:none;stroke-dashoffset:0;stroke-opacity:1;-inkscape-stroke:none"
       d="m 47.294156,73.731794 v 3.233342 l 8.51271,0.02339"
       id="path67"
       sodipodi:nodetypes="ccc" /><path
       style="font-variation-settings:normal;opacity:0.98;vector-effect:none;fill:none;fill-opacity:1;stroke:#dddde0;stroke-width:0.79375;stroke-linecap:round;stroke-linejoin:round;stroke-miterlimit:4;stroke-dasharray:none;stroke-dashoffset:0;stroke-opacity:1;-inkscape-stroke:none"
       d="m 75.020811,73.731794 v 3.233342 l -8.51271,0.02339"
       id="path68"
       sodipodi:nodetypes="ccc" /></g></svg>
