<?xml version="1.0" encoding="UTF-8" standalone="no"?>
<!-- Created with Inkscape (http://www.inkscape.org/) -->

<svg
   width="111.38958mm"
   height="60.325005mm"
   viewBox="0 0 111.38958 60.325004"
   version="1.1"
   id="svg1"
   xml:space="preserve"
   inkscape:version="1.4 (e7c3feb100, 2024-10-09)"
   sodipodi:docname="presonus-faderport8.svg"
   inkscape:export-filename="fp8_shift_large.svg"
   inkscape:export-xdpi="96"
   inkscape:export-ydpi="96"
   xmlns:inkscape="http://www.inkscape.org/namespaces/inkscape"
   xmlns:sodipodi="http://sodipodi.sourceforge.net/DTD/sodipodi-0.dtd"
   xmlns="http://www.w3.org/2000/svg"
   xmlns:svg="http://www.w3.org/2000/svg"><sodipodi:namedview
     id="namedview1"
     pagecolor="#ffffff"
     bordercolor="#000000"
     borderopacity="0.25"
     inkscape:showpageshadow="2"
     inkscape:pageopacity="0.0"
     inkscape:pagecheckerboard="0"
     inkscape:deskcolor="#d1d1d1"
     inkscape:document-units="mm"
     showguides="true"
     inkscape:zoom="0.70710678"
     inkscape:cx="1508.2588"
     inkscape:cy="120.91526"
     inkscape:window-width="1280"
     inkscape:window-height="683"
     inkscape:window-x="0"
     inkscape:window-y="0"
     inkscape:window-maximized="1"
     inkscape:current-layer="layer1"><sodipodi:guide
       position="-67.507431,153.44948"
       orientation="1,0"
       id="guide5"
       inkscape:locked="false" /><sodipodi:guide
       position="-95.720961,161.11352"
       orientation="1,0"
       id="guide6"
       inkscape:locked="false" /><sodipodi:guide
       position="-39.255591,162.51013"
       orientation="1,0"
       id="guide7"
       inkscape:locked="false" /><sodipodi:guide
       position="-25.637031,139.45846"
       orientation="1,0"
       id="guide8"
       inkscape:locked="false" /><sodipodi:guide
       position="-106.21643,126.83416"
       orientation="0,-1"
       id="guide9"
       inkscape:locked="false" /><sodipodi:guide
       position="-109.71699,130.33471"
       orientation="1,0"
       id="guide10"
       inkscape:locked="false" /><sodipodi:guide
       position="21.995549,141.20281"
       orientation="1,0"
       id="guide11"
       inkscape:locked="false" /><sodipodi:guide
       position="87.674596,141.24124"
       orientation="0,-1"
       id="guide12"
       inkscape:locked="false" /><sodipodi:guide
       position="61.740496,123.06902"
       orientation="0,-1"
       id="guide13"
       inkscape:locked="false" /><sodipodi:guide
       position="50.408656,141.20281"
       orientation="1,0"
       id="guide14"
       inkscape:locked="false" /><sodipodi:guide
       position="78.201746,141.18347"
       orientation="1,0"
       id="guide15"
       inkscape:locked="false" /><sodipodi:guide
       position="146.74536,179.5926"
       orientation="1,0"
       id="guide16"
       inkscape:locked="false" /><sodipodi:guide
       position="105.65172,141.24124"
       orientation="1,0"
       id="guide24"
       inkscape:locked="false" /><sodipodi:guide
       position="146.64576,179.28195"
       orientation="0,-1"
       id="guide25"
       inkscape:locked="false" /><sodipodi:guide
       position="146.74536,158.52301"
       orientation="0,-1"
       id="guide26"
       inkscape:locked="false" /><sodipodi:guide
       position="146.74536,138.18064"
       orientation="0,-1"
       id="guide27"
       inkscape:locked="false" /><sodipodi:guide
       position="146.74536,117.57551"
       orientation="0,-1"
       id="guide28"
       inkscape:locked="false" /><sodipodi:guide
       position="189.4606,179.28195"
       orientation="1,0"
       id="guide29"
       inkscape:locked="false" /><sodipodi:guide
       position="189.4606,97.234264"
       orientation="0,-1"
       id="guide32"
       inkscape:locked="false" /><sodipodi:guide
       position="-2.1193669e-05,98.609023"
       orientation="1,0"
       id="guide33"
       inkscape:locked="false" /><sodipodi:guide
       position="111.38958,98.609021"
       orientation="1,0"
       id="guide34"
       inkscape:locked="false" /><inkscape:page
       x="-2.3546604e-06"
       y="-4.4691151e-06"
       width="111.38958"
       height="60.325001"
       id="page34"
       margin="0"
       bleed="0"
       inkscape:label="fp8_automation"
       inkscape:export-filename="fp8_navigation.png"
       inkscape:export-xdpi="96"
       inkscape:export-ydpi="96" /><sodipodi:guide
       position="34.336236,79.139328"
       orientation="1,0"
       id="guide35"
       inkscape:locked="false" /><sodipodi:guide
       position="67.169256,67.049389"
       orientation="1,0"
       id="guide36"
       inkscape:locked="false" /><sodipodi:guide
       position="99.864295,66.506459"
       orientation="1,0"
       id="guide37"
       inkscape:locked="false" /><sodipodi:guide
       position="99.864295,79.685066"
       orientation="0,-1"
       id="guide38"
       inkscape:locked="false" /><sodipodi:guide
       position="99.864295,54.921706"
       orientation="0,-1"
       id="guide39"
       inkscape:locked="false" /><sodipodi:guide
       position="11.683839,74.695127"
       orientation="1,0"
       id="guide40"
       inkscape:locked="false" /><sodipodi:guide
       position="44.290926,67.947443"
       orientation="1,0"
       id="guide41"
       inkscape:locked="false" /><sodipodi:guide
       position="77.035396,69.077218"
       orientation="1,0"
       id="guide42"
       inkscape:locked="false" /><sodipodi:guide
       position="21.995549,-12.595925"
       orientation="0,-1"
       id="guide43"
       inkscape:locked="false" /><sodipodi:guide
       position="128.74604,176.4855"
       orientation="1,0"
       id="guide69"
       inkscape:locked="false" /><sodipodi:guide
       position="143.09367,172.1873"
       orientation="0,-1"
       id="guide70"
       inkscape:locked="false" /><sodipodi:guide
       position="137.05505,175.30283"
       orientation="0,-1"
       id="guide71"
       inkscape:locked="false" /><sodipodi:guide
       position="91.310636,171.04073"
       orientation="1,0"
       id="guide93"
       inkscape:locked="false" /><sodipodi:guide
       position="210.02415,180.76214"
       orientation="1,0"
       id="guide117"
       inkscape:locked="false" /><sodipodi:guide
       position="238.51795,183.10981"
       orientation="1,0"
       id="guide118"
       inkscape:locked="false" /><sodipodi:guide
       position="215.04303,167.89694"
       orientation="1,0"
       id="guide119"
       inkscape:locked="false" /><sodipodi:guide
       position="233.02015,167.89694"
       orientation="1,0"
       id="guide120"
       inkscape:locked="false" /><sodipodi:guide
       position="238.51795,142.54905"
       orientation="0,-1"
       id="guide128"
       inkscape:locked="false" /><sodipodi:guide
       position="240.35332,140.49561"
       orientation="0,-1"
       id="guide129"
       inkscape:locked="false" /><sodipodi:guide
       position="236.86521,78.520316"
       orientation="0,-1"
       id="guide130"
       inkscape:locked="false" /><sodipodi:guide
       position="351.30019,169.30023"
       orientation="1,0"
       id="guide140"
       inkscape:locked="false" /><sodipodi:guide
       position="322.37418,82.292313"
       orientation="0,-1"
       id="guide217"
       inkscape:locked="false" /></sodipodi:namedview><defs
     id="defs1" /><g
     inkscape:label="Layer 1"
     inkscape:groupmode="layer"
     id="layer1"
     transform="translate(-114.94248,-138.75954)"><rect
       style="fill:#2c2b30;fill-opacity:1;stroke:none;stroke-width:0.79375;stroke-opacity:1"
       id="rect41"
       width="111.38958"
       height="60.325001"
       x="114.94248"
       y="138.75954" /><rect
       style="fill:#6dd0f5;fill-opacity:1;stroke:#4c93d5;stroke-width:0.79375;stroke-opacity:1"
       id="rect40"
       width="21.884182"
       height="10.921994"
       x="127.0232"
       y="147.57761"
       rx="0"
       ry="1.2637023" /><path
       style="font-weight:bold;font-size:4.69705px;font-family:'Droid Sans';-inkscape-font-specification:'Droid Sans';text-align:center;text-anchor:middle;fill:#1e1e1e;stroke-width:0.529167"
       d="m 132.50486,154.8 v -3.35307 h 0.71097 v 2.76594 h 1.22014 V 154.8 Z m 3.85353,0 -0.13531,-0.34861 h -0.0206 q -0.0757,0.10321 -0.15137,0.1789 -0.0757,0.0734 -0.16513,0.12155 -0.0894,0.0482 -0.20183,0.0711 -0.11009,0.0229 -0.25687,0.0229 -0.15596,0 -0.28898,-0.0482 -0.13302,-0.0505 -0.23164,-0.14908 -0.0963,-0.10091 -0.15137,-0.25228 -0.055,-0.15366 -0.055,-0.36237 0,-0.40824 0.26145,-0.60089 0.26146,-0.19495 0.78208,-0.21559 l 0.40824,-0.0138 v -0.19265 q 0,-0.15825 -0.0917,-0.23394 -0.0917,-0.0757 -0.25687,-0.0757 -0.16513,0 -0.32338,0.0482 -0.15596,0.0482 -0.31421,0.12844 l -0.22705,-0.46329 q 0.19265,-0.10779 0.42659,-0.16972 0.23393,-0.0619 0.4908,-0.0619 0.47934,0 0.73391,0.22476 0.25687,0.22476 0.25687,0.68346 V 154.8 Z m -0.20641,-1.18802 -0.23164,0.009 q -0.1399,0.005 -0.23623,0.0367 -0.0963,0.0321 -0.15596,0.0872 -0.0573,0.0528 -0.0849,0.12844 -0.0252,0.0734 -0.0252,0.16513 0,0.16054 0.078,0.22935 0.078,0.0665 0.20412,0.0665 0.0963,0 0.1789,-0.0321 0.0826,-0.0344 0.14219,-0.0986 0.0619,-0.0665 0.0963,-0.16055 0.0344,-0.0963 0.0344,-0.22017 z m 2.26923,0.67658 q 0.10321,0 0.19495,-0.0229 0.094,-0.0229 0.19035,-0.0573 v 0.52063 q -0.0986,0.0504 -0.2454,0.0826 -0.14449,0.0344 -0.3165,0.0344 -0.16742,0 -0.31191,-0.039 -0.14449,-0.039 -0.24999,-0.13531 -0.1055,-0.0986 -0.16743,-0.26146 -0.0596,-0.16513 -0.0596,-0.41283 v -1.23618 h -0.33484 v -0.29586 l 0.3853,-0.23394 0.20183,-0.54126 h 0.44723 v 0.54585 h 0.62382 v 0.52521 h -0.62382 v 1.23618 q 0,0.14908 0.0734,0.22018 0.0734,0.0711 0.19265,0.0711 z m 1.73624,0.55731 q -0.27522,0 -0.49769,-0.0757 -0.22017,-0.0757 -0.37842,-0.23394 -0.15596,-0.16054 -0.24082,-0.40824 -0.0826,-0.24999 -0.0826,-0.5963 0,-0.38301 0.0849,-0.63988 0.0871,-0.25917 0.24311,-0.41512 0.15825,-0.15596 0.37842,-0.22247 0.22247,-0.0665 0.4931,-0.0665 0.19724,0 0.39218,0.0482 0.19495,0.0482 0.36696,0.13532 l -0.20182,0.53208 q -0.15137,-0.0665 -0.29128,-0.10779 -0.1399,-0.0436 -0.26604,-0.0436 -0.25458,0 -0.36925,0.19495 -0.11468,0.19265 -0.11468,0.58025 0,0.38531 0.11468,0.56878 0.11467,0.18348 0.36008,0.18348 0.19953,0 0.36237,-0.0505 0.16283,-0.0528 0.33255,-0.13303 v 0.58255 q -0.0849,0.0413 -0.16513,0.0734 -0.0803,0.0321 -0.16284,0.0528 -0.0803,0.0206 -0.16972,0.0298 -0.0871,0.0115 -0.18806,0.0115 z m 3.26828,-0.0459 h -0.69951 v -1.49764 q 0,-0.27751 -0.0872,-0.41512 -0.0849,-0.1399 -0.26375,-0.1399 -0.13532,0 -0.22705,0.055 -0.0917,0.055 -0.14679,0.16284 -0.055,0.10779 -0.078,0.26604 -0.0229,0.15825 -0.0229,0.36237 V 154.8 h -0.69951 v -3.56865 h 0.69951 v 0.72703 q 0,0.0963 -0.005,0.20412 -0.005,0.1055 -0.0115,0.19495 -0.009,0.1055 -0.0161,0.20641 h 0.0367 q 0.11238,-0.19953 0.28668,-0.28669 0.17431,-0.0894 0.39448,-0.0894 0.19036,0 0.34402,0.055 0.15596,0.0528 0.26605,0.16743 0.11008,0.11467 0.16971,0.29356 0.0596,0.1766 0.0596,0.4243 z"
       id="text40"
       aria-label="Latch" /><rect
       style="fill:#6dd0f5;fill-opacity:1;stroke:#4c93d5;stroke-width:0.79375;stroke-opacity:1"
       id="rect42"
       width="21.884182"
       height="10.921994"
       x="159.63028"
       y="147.57761"
       rx="0"
       ry="1.2637023" /><path
       style="font-weight:bold;font-size:4.69705px;font-family:'Droid Sans';-inkscape-font-specification:'Droid Sans';text-align:center;text-anchor:middle;fill:#1e1e1e;stroke-width:0.529167"
       d="m 167.24926,154.8 h -0.70869 v -2.76135 h -0.8417 v -0.59172 h 2.3898 v 0.59172 h -0.83941 z m 2.40364,-2.61227 q 0.0275,0 0.0596,0.002 0.0344,0 0.0642,0.005 0.0321,0.002 0.0573,0.007 0.0275,0.002 0.0413,0.007 v 0.65593 q -0.0183,-0.005 -0.0505,-0.009 -0.0321,-0.005 -0.0688,-0.007 -0.0344,-0.005 -0.0688,-0.005 -0.0344,-0.002 -0.0573,-0.002 -0.13532,0 -0.24999,0.0344 -0.11238,0.0344 -0.19495,0.11238 -0.0803,0.0757 -0.12614,0.20183 -0.0436,0.12385 -0.0436,0.30503 V 154.8 h -0.69951 v -2.56411 h 0.5298 l 0.1032,0.38531 h 0.0344 q 0.055,-0.0986 0.11926,-0.1789 0.0642,-0.0803 0.14219,-0.13531 0.0803,-0.0573 0.17889,-0.0872 0.10092,-0.0321 0.22935,-0.0321 z m 0.53168,-0.61466 q 0,-0.0986 0.0298,-0.16283 0.0298,-0.0665 0.0803,-0.1055 0.0528,-0.0413 0.12156,-0.0573 0.0711,-0.0161 0.14907,-0.0161 0.078,0 0.14679,0.0161 0.0688,0.0161 0.11926,0.0573 0.0527,0.039 0.0826,0.1055 0.0321,0.0642 0.0321,0.16283 0,0.0963 -0.0321,0.16284 -0.0298,0.0665 -0.0826,0.1078 -0.0505,0.039 -0.11926,0.0573 -0.0688,0.0161 -0.14679,0.0161 -0.078,0 -0.14907,-0.0161 -0.0688,-0.0183 -0.12156,-0.0573 -0.0504,-0.0413 -0.0803,-0.1078 -0.0298,-0.0665 -0.0298,-0.16284 z M 170.9139,154.8 h -0.69951 v -2.56411 h 0.69951 z m 2.7018,0 h -0.69951 v -1.49764 q 0,-0.27751 -0.0826,-0.41512 -0.0826,-0.1399 -0.25916,-0.1399 -0.13302,0 -0.22247,0.055 -0.0872,0.055 -0.1399,0.16284 -0.0528,0.10779 -0.0757,0.26604 -0.0229,0.15825 -0.0229,0.36237 V 154.8 h -0.69951 v -2.56411 h 0.53438 l 0.094,0.32797 h 0.039 q 0.055,-0.0986 0.13073,-0.16972 0.078,-0.0711 0.16972,-0.11697 0.0917,-0.0459 0.19494,-0.0665 0.10321,-0.0229 0.20871,-0.0229 0.26375,0 0.44723,0.0917 0.18577,0.0894 0.28439,0.28439 h 0.0573 q 0.055,-0.0986 0.13302,-0.16972 0.078,-0.0711 0.17201,-0.11697 0.094,-0.0459 0.19724,-0.0665 0.1055,-0.0229 0.211,-0.0229 0.41283,0 0.62153,0.22476 0.211,0.22247 0.211,0.71557 V 154.8 h -0.7018 v -1.49764 q 0,-0.27751 -0.0826,-0.41512 -0.0826,-0.1399 -0.25916,-0.1399 -0.24999,0 -0.35549,0.19953 -0.1055,0.19724 -0.1055,0.56649 z"
       id="text42"
       aria-label="Trim" /><rect
       style="fill:#fbc51b;fill-opacity:1;stroke:#e28717;stroke-width:0.79375;stroke-opacity:1"
       id="rect43"
       width="21.884182"
       height="10.921994"
       x="192.37546"
       y="147.57761"
       rx="0"
       ry="1.2637023" /><path
       style="font-weight:bold;font-size:4.69705px;font-family:'Droid Sans';-inkscape-font-specification:'Droid Sans';text-align:center;text-anchor:middle;fill:#1e1e1e;stroke-width:0.529167"
       d="m 203.01856,153.11888 q 0,0.3876 -0.0917,0.70639 -0.0894,0.3188 -0.27522,0.54585 -0.18577,0.22706 -0.47016,0.3509 -0.2821,0.12385 -0.6674,0.12385 -0.38531,0 -0.6697,-0.12385 -0.2821,-0.12384 -0.46787,-0.3509 -0.18348,-0.22705 -0.27522,-0.54585 -0.0894,-0.32108 -0.0894,-0.71098 0,-0.38989 0.0894,-0.70639 0.0917,-0.31879 0.27751,-0.54355 0.18577,-0.22476 0.46787,-0.34632 0.28439,-0.12385 0.67199,-0.12385 0.38531,0 0.66741,0.12385 0.28209,0.12156 0.46557,0.34861 0.18577,0.22476 0.27522,0.54356 0.0917,0.3165 0.0917,0.70868 z m -2.27513,0 q 0,0.26375 0.0459,0.47475 0.0459,0.20871 0.1399,0.35549 0.0963,0.14449 0.24081,0.22247 0.14449,0.078 0.34403,0.078 0.20412,0 0.34861,-0.078 0.14678,-0.078 0.23852,-0.22247 0.094,-0.14678 0.13761,-0.35549 0.0459,-0.211 0.0459,-0.47475 0,-0.26375 -0.0459,-0.47246 -0.0436,-0.211 -0.13761,-0.35778 -0.0917,-0.14678 -0.23623,-0.22476 -0.14449,-0.078 -0.34632,-0.078 -0.19953,0 -0.34631,0.078 -0.14679,0.078 -0.24311,0.22476 -0.094,0.14678 -0.1399,0.35778 -0.0459,0.20871 -0.0459,0.47246 z m 4.14601,-0.35778 h -0.52062 V 154.8 h -0.69951 v -2.0389 H 203.284 v -0.33714 l 0.38531,-0.18807 v -0.18806 q 0,-0.24541 0.0596,-0.40595 0.0596,-0.16284 0.16972,-0.25916 0.11008,-0.0963 0.26604,-0.13532 0.15596,-0.0413 0.3509,-0.0413 0.211,0 0.35549,0.0344 0.14449,0.0321 0.24541,0.0734 l -0.16513,0.51374 q -0.0711,-0.0252 -0.14908,-0.0459 -0.078,-0.0206 -0.18348,-0.0206 -0.13761,0 -0.19495,0.0894 -0.055,0.0871 -0.055,0.22476 v 0.16054 h 0.52062 z m 1.81873,0 h -0.52062 V 154.8 h -0.69951 v -2.0389 h -0.3853 v -0.33714 l 0.3853,-0.18807 v -0.18806 q 0,-0.24541 0.0596,-0.40595 0.0596,-0.16284 0.16972,-0.25916 0.11009,-0.0963 0.26604,-0.13532 0.15596,-0.0413 0.35091,-0.0413 0.211,0 0.35548,0.0344 0.14449,0.0321 0.24541,0.0734 l -0.16513,0.51374 q -0.0711,-0.0252 -0.14908,-0.0459 -0.078,-0.0206 -0.18348,-0.0206 -0.13761,0 -0.19494,0.0894 -0.0551,0.0871 -0.0551,0.22476 v 0.16054 h 0.52062 z"
       id="text43"
       aria-label="Off" /><rect
       style="fill:#6dd0f5;fill-opacity:1;stroke:#4c93d5;stroke-width:0.79375;stroke-opacity:1"
       id="rect44"
       width="21.884182"
       height="10.921994"
       x="127.08936"
       y="172.30537"
       rx="0"
       ry="1.2637023" /><path
       style="font-weight:bold;font-size:4.69705px;font-family:'Droid Sans';-inkscape-font-specification:'Droid Sans';text-align:center;text-anchor:middle;fill:#1e1e1e;stroke-width:0.529167"
       d="m 133.29642,179.52777 h -0.70869 v -2.76135 h -0.84171 v -0.59172 h 2.38981 v 0.59172 h -0.83941 z m 1.55554,-1.28664 q 0,0.38301 0.10779,0.57796 0.1078,0.19265 0.35091,0.19265 0.24081,0 0.3486,-0.19495 0.1078,-0.19494 0.1078,-0.57566 0,-0.38301 -0.1078,-0.57108 -0.10779,-0.19036 -0.35319,-0.19036 -0.24082,0 -0.34861,0.19036 -0.1055,0.18807 -0.1055,0.57108 z m 1.62837,0 q 0,0.32109 -0.0826,0.56878 -0.0803,0.2477 -0.23394,0.41741 -0.15137,0.16972 -0.37154,0.25917 -0.21788,0.0872 -0.49081,0.0872 -0.25457,0 -0.46787,-0.0872 -0.21329,-0.0894 -0.36925,-0.25917 -0.15366,-0.16971 -0.24081,-0.41741 -0.0872,-0.24769 -0.0872,-0.56878 0,-0.3188 0.0803,-0.56649 0.0826,-0.2477 0.23394,-0.41512 0.15366,-0.16972 0.37154,-0.25687 0.21788,-0.0871 0.4931,-0.0871 0.25458,0 0.46787,0.0871 0.2133,0.0872 0.36696,0.25687 0.15596,0.16742 0.24311,0.41512 0.0872,0.24769 0.0872,0.56649 z m 2.04586,1.28664 -0.094,-0.32797 h -0.0367 q -0.0573,0.0986 -0.13761,0.16972 -0.078,0.0688 -0.17201,0.11467 -0.094,0.0459 -0.19953,0.0665 -0.1055,0.0229 -0.21559,0.0229 -0.18806,0 -0.34173,-0.0528 -0.15366,-0.055 -0.26375,-0.16972 -0.11008,-0.11467 -0.16971,-0.29127 -0.0596,-0.1766 -0.0596,-0.42429 v -1.67195 h 0.69951 v 1.49764 q 0,0.27751 0.0826,0.41742 0.0849,0.1376 0.26834,0.1376 0.13761,0 0.22935,-0.055 0.0917,-0.055 0.14449,-0.16284 0.055,-0.10779 0.078,-0.26604 0.0229,-0.15825 0.0229,-0.36237 v -1.20637 h 0.69951 v 2.56411 z m 2.1009,0.0459 q -0.27521,0 -0.49768,-0.0757 -0.22018,-0.0757 -0.37843,-0.23394 -0.15595,-0.16054 -0.24081,-0.40824 -0.0826,-0.24999 -0.0826,-0.5963 0,-0.38302 0.0849,-0.63989 0.0872,-0.25916 0.24311,-0.41512 0.15825,-0.15595 0.37843,-0.22246 0.22246,-0.0665 0.49309,-0.0665 0.19724,0 0.39219,0.0482 0.19495,0.0482 0.36696,0.13531 l -0.20183,0.53209 q -0.15137,-0.0665 -0.29127,-0.10779 -0.1399,-0.0436 -0.26605,-0.0436 -0.25457,0 -0.36925,0.19495 -0.11467,0.19265 -0.11467,0.58025 0,0.3853 0.11467,0.56878 0.11468,0.18348 0.36008,0.18348 0.19953,0 0.36237,-0.0505 0.16284,-0.0528 0.33256,-0.13302 v 0.58255 q -0.0849,0.0413 -0.16514,0.0734 -0.0803,0.0321 -0.16283,0.0528 -0.0803,0.0206 -0.16972,0.0298 -0.0871,0.0115 -0.18807,0.0115 z m 3.36183,-0.0459 h -0.69951 v -1.49764 q 0,-0.27751 -0.0872,-0.41512 -0.0849,-0.1399 -0.26375,-0.1399 -0.13532,0 -0.22705,0.055 -0.0917,0.055 -0.14679,0.16284 -0.055,0.10779 -0.078,0.26604 -0.0229,0.15825 -0.0229,0.36237 v 1.20637 h -0.69951 v -3.56866 h 0.69951 v 0.72704 q 0,0.0963 -0.005,0.20412 -0.005,0.1055 -0.0115,0.19494 -0.009,0.1055 -0.0161,0.20642 h 0.0367 q 0.11238,-0.19954 0.28668,-0.28669 0.17431,-0.0894 0.39448,-0.0894 0.19036,0 0.34402,0.055 0.15596,0.0528 0.26605,0.16742 0.11008,0.11468 0.16971,0.29357 0.0596,0.1766 0.0596,0.42429 z"
       id="text44"
       aria-label="Touch" /><rect
       style="fill:#e25f28;fill-opacity:1;stroke:#af2f20;stroke-width:0.79375;stroke-opacity:1"
       id="rect45"
       width="21.884182"
       height="10.921994"
       x="159.62682"
       y="172.34061"
       rx="0"
       ry="1.2637023" /><path
       style="font-weight:bold;font-size:4.69705px;font-family:'Droid Sans';-inkscape-font-specification:'Droid Sans';text-align:center;text-anchor:middle;fill:#1e1e1e;stroke-width:0.529167"
       d="m 168.13452,179.563 h -0.80731 l -0.41282,-1.6536 q -0.009,-0.0344 -0.0229,-0.0963 -0.0115,-0.0619 -0.0275,-0.13991 -0.0161,-0.078 -0.0321,-0.16283 -0.0161,-0.0849 -0.0298,-0.16513 -0.0138,-0.0803 -0.0252,-0.14679 -0.009,-0.0688 -0.0138,-0.11008 -0.005,0.0413 -0.0161,0.11008 -0.009,0.0665 -0.0229,0.14679 -0.0138,0.078 -0.0298,0.16283 -0.0138,0.0849 -0.0298,0.16284 -0.0138,0.078 -0.0275,0.1422 -0.0138,0.0642 -0.0229,0.10091 l -0.40824,1.64901 h -0.8096 l -0.8073,-3.35307 h 0.69951 l 0.38072,1.8302 q 0.007,0.0367 0.0183,0.1078 0.0138,0.0688 0.0298,0.15595 0.0161,0.0872 0.0321,0.18348 0.0183,0.0963 0.0344,0.18807 0.0161,0.0917 0.0298,0.17201 0.0138,0.078 0.0206,0.12843 0.007,-0.0504 0.0183,-0.12843 0.0138,-0.078 0.0275,-0.16513 0.0138,-0.0894 0.0298,-0.18348 0.0183,-0.094 0.0321,-0.17431 0.0138,-0.0826 0.0252,-0.14449 0.0138,-0.0642 0.0206,-0.0917 l 0.46558,-1.87836 h 0.62382 l 0.46558,1.87836 q 0.007,0.0275 0.0183,0.0917 0.0138,0.0619 0.0275,0.14449 0.0161,0.0803 0.0321,0.17431 0.0161,0.094 0.0298,0.18348 0.0161,0.0872 0.0275,0.16513 0.0138,0.078 0.0206,0.12843 0.007,-0.0504 0.0183,-0.12843 0.0138,-0.0803 0.0298,-0.17201 0.0161,-0.0917 0.0321,-0.18807 0.0183,-0.0963 0.0344,-0.18348 0.0161,-0.0871 0.0275,-0.15595 0.0138,-0.0711 0.0207,-0.1078 l 0.38071,-1.8302 h 0.69952 z m 2.37105,-2.61227 q 0.0275,0 0.0596,0.002 0.0344,0 0.0642,0.005 0.0321,0.002 0.0573,0.007 0.0275,0.002 0.0413,0.007 v 0.65594 q -0.0183,-0.005 -0.0504,-0.009 -0.0321,-0.005 -0.0688,-0.007 -0.0344,-0.005 -0.0688,-0.005 -0.0344,-0.002 -0.0573,-0.002 -0.13531,0 -0.24999,0.0344 -0.11238,0.0344 -0.19494,0.11238 -0.0803,0.0757 -0.12615,0.20183 -0.0436,0.12385 -0.0436,0.30503 v 1.30499 h -0.69951 v -2.56411 h 0.52979 l 0.10321,0.38531 h 0.0344 q 0.055,-0.0986 0.11926,-0.1789 0.0642,-0.0803 0.1422,-0.13531 0.0803,-0.0573 0.17889,-0.0871 0.10091,-0.0321 0.22935,-0.0321 z m 0.4849,-0.61465 q 0,-0.0986 0.0298,-0.16284 0.0298,-0.0665 0.0803,-0.1055 0.0528,-0.0413 0.12156,-0.0573 0.0711,-0.0161 0.14908,-0.0161 0.078,0 0.14678,0.0161 0.0688,0.0161 0.11926,0.0573 0.0528,0.039 0.0826,0.1055 0.0321,0.0642 0.0321,0.16284 0,0.0963 -0.0321,0.16283 -0.0298,0.0665 -0.0826,0.1078 -0.0505,0.039 -0.11926,0.0573 -0.0688,0.0161 -0.14678,0.0161 -0.078,0 -0.14908,-0.0161 -0.0688,-0.0183 -0.12156,-0.0573 -0.0505,-0.0413 -0.0803,-0.1078 -0.0298,-0.0665 -0.0298,-0.16283 z m 0.72932,3.22692 h -0.69951 v -2.56411 h 0.69951 z m 1.68161,-0.51144 q 0.10321,0 0.19495,-0.0229 0.094,-0.0229 0.19036,-0.0573 v 0.52062 q -0.0986,0.0505 -0.2454,0.0826 -0.14449,0.0344 -0.3165,0.0344 -0.16743,0 -0.31192,-0.039 -0.14449,-0.039 -0.24999,-0.13531 -0.1055,-0.0986 -0.16742,-0.26146 -0.0596,-0.16513 -0.0596,-0.41282 V 177.5241 H 172.101 v -0.29586 l 0.38531,-0.23394 0.20182,-0.54126 h 0.44723 v 0.54585 h 0.62383 v 0.52521 h -0.62383 v 1.23619 q 0,0.14907 0.0734,0.22017 0.0734,0.0711 0.19265,0.0711 z m 1.7532,-1.60315 q -0.18577,0 -0.30962,0.13073 -0.12155,0.13073 -0.1399,0.41054 h 0.89216 q -0.002,-0.11697 -0.0298,-0.21559 -0.0275,-0.0986 -0.0826,-0.16972 -0.055,-0.0734 -0.13761,-0.11467 -0.0826,-0.0413 -0.19265,-0.0413 z m 0.0894,2.16046 q -0.27522,0 -0.50686,-0.0803 -0.23164,-0.0803 -0.39907,-0.24081 -0.16742,-0.16284 -0.26145,-0.40824 -0.0917,-0.2477 -0.0917,-0.58025 0,-0.33715 0.0849,-0.58943 0.0849,-0.25228 0.23623,-0.41971 0.15367,-0.16971 0.36696,-0.25457 0.21559,-0.0849 0.47704,-0.0849 0.25458,0 0.4587,0.078 0.20641,0.0757 0.34861,0.22476 0.14449,0.14907 0.22017,0.36695 0.078,0.21559 0.078,0.4954 v 0.33943 h -1.56415 q 0.005,0.14678 0.0459,0.26605 0.0436,0.11696 0.11926,0.19953 0.078,0.0803 0.18577,0.12385 0.11009,0.0436 0.24999,0.0436 0.11697,0 0.22017,-0.0115 0.1055,-0.0138 0.20412,-0.039 0.0986,-0.0252 0.19495,-0.0619 0.0963,-0.039 0.19724,-0.0894 v 0.54126 q -0.0917,0.0482 -0.18577,0.0826 -0.0917,0.0321 -0.19495,0.055 -0.1032,0.0229 -0.22247,0.0321 -0.11926,0.0115 -0.26145,0.0115 z"
       id="text45"
       aria-label="Write" /><rect
       style="fill:#62c44b;fill-opacity:1;stroke:#308639;stroke-width:0.79375;stroke-opacity:1"
       id="rect46"
       width="21.884182"
       height="10.921994"
       x="192.37476"
       y="172.34096"
       rx="0"
       ry="1.2637023" /><path
       style="font-weight:bold;font-size:4.69705px;font-family:'Droid Sans';-inkscape-font-specification:'Droid Sans';text-align:center;text-anchor:middle;fill:#1e1e1e;stroke-width:0.529167"
       d="m 199.04331,177.69875 h 0.19265 q 0.29586,0 0.42429,-0.11696 0.12844,-0.11926 0.12844,-0.34861 0,-0.23852 -0.13761,-0.33944 -0.13761,-0.10091 -0.42659,-0.10091 h -0.18118 z m 0,0.57796 v 1.28664 h -0.71098 v -3.35307 h 0.91739 q 0.64447,0 0.95179,0.24999 0.30733,0.2477 0.30733,0.75456 0,0.17201 -0.0459,0.31191 -0.0459,0.13991 -0.12385,0.24999 -0.0757,0.1078 -0.1766,0.19036 -0.0986,0.0803 -0.2087,0.13532 0.25457,0.40824 0.4564,0.72932 0.0871,0.13761 0.16742,0.26834 0.0826,0.13073 0.14679,0.23394 0.0642,0.1032 0.1055,0.16513 l 0.039,0.0642 h -0.78896 l -0.72703,-1.28664 z m 3.06385,-0.82795 q -0.18577,0 -0.30962,0.13073 -0.12155,0.13073 -0.1399,0.41054 h 0.89217 q -0.002,-0.11697 -0.0298,-0.21559 -0.0275,-0.0986 -0.0826,-0.16972 -0.055,-0.0734 -0.1376,-0.11467 -0.0826,-0.0413 -0.19266,-0.0413 z m 0.0894,2.16046 q -0.27522,0 -0.50686,-0.0803 -0.23164,-0.0803 -0.39907,-0.24081 -0.16742,-0.16284 -0.26145,-0.40824 -0.0917,-0.2477 -0.0917,-0.58025 0,-0.33715 0.0849,-0.58943 0.0849,-0.25228 0.23623,-0.41971 0.15366,-0.16971 0.36695,-0.25457 0.21559,-0.0849 0.47705,-0.0849 0.25457,0 0.45869,0.078 0.20642,0.0757 0.34861,0.22476 0.14449,0.14907 0.22018,0.36696 0.078,0.21558 0.078,0.49539 v 0.33943 h -1.56415 q 0.005,0.14679 0.0459,0.26605 0.0436,0.11696 0.11926,0.19953 0.078,0.0803 0.18577,0.12385 0.11009,0.0436 0.24999,0.0436 0.11697,0 0.22018,-0.0115 0.1055,-0.0138 0.20412,-0.039 0.0986,-0.0252 0.19494,-0.0619 0.0963,-0.039 0.19724,-0.0894 v 0.54126 q -0.0917,0.0482 -0.18577,0.0826 -0.0917,0.0321 -0.19495,0.055 -0.1032,0.0229 -0.22246,0.0321 -0.11927,0.0115 -0.26146,0.0115 z m 2.95932,-0.0459 -0.13531,-0.3486 h -0.0207 q -0.0757,0.1032 -0.15137,0.17889 -0.0757,0.0734 -0.16513,0.12155 -0.0894,0.0482 -0.20182,0.0711 -0.11009,0.0229 -0.25687,0.0229 -0.15596,0 -0.28898,-0.0482 -0.13302,-0.0505 -0.23164,-0.14908 -0.0963,-0.10091 -0.15137,-0.25228 -0.055,-0.15366 -0.055,-0.36237 0,-0.40824 0.26146,-0.60089 0.26146,-0.19495 0.78208,-0.21559 l 0.40824,-0.0138 v -0.19265 q 0,-0.15825 -0.0917,-0.23394 -0.0917,-0.0757 -0.25687,-0.0757 -0.16513,0 -0.32338,0.0482 -0.15596,0.0482 -0.31421,0.12844 l -0.22705,-0.46329 q 0.19265,-0.10779 0.42658,-0.16971 0.23394,-0.0619 0.49081,-0.0619 0.47934,0 0.73391,0.22476 0.25687,0.22476 0.25687,0.68346 v 1.70864 z m -0.20641,-1.18802 -0.23164,0.009 q -0.13991,0.005 -0.23623,0.0367 -0.0963,0.0321 -0.15596,0.0872 -0.0573,0.0528 -0.0849,0.12844 -0.0252,0.0734 -0.0252,0.16513 0,0.16054 0.078,0.22935 0.078,0.0665 0.20412,0.0665 0.0963,0 0.17889,-0.0321 0.0826,-0.0344 0.1422,-0.0986 0.0619,-0.0665 0.0963,-0.16054 0.0344,-0.0963 0.0344,-0.22018 z m 1.97119,1.23389 q -0.19724,0 -0.36007,-0.0848 -0.16284,-0.0849 -0.27981,-0.24999 -0.11697,-0.16743 -0.18348,-0.41512 -0.0642,-0.2477 -0.0642,-0.57337 0,-0.33027 0.0642,-0.57796 0.0665,-0.24999 0.18578,-0.41742 0.12155,-0.16971 0.28897,-0.25457 0.16743,-0.0849 0.36925,-0.0849 0.12385,0 0.22706,0.0298 0.10321,0.0275 0.18577,0.0803 0.0826,0.0504 0.14678,0.11926 0.0665,0.0665 0.11697,0.14678 h 0.0229 q -0.0138,-0.0894 -0.0252,-0.18118 -0.0115,-0.078 -0.0206,-0.16514 -0.007,-0.0894 -0.007,-0.16513 v -0.82106 h 0.69951 v 3.56865 h -0.53438 l -0.13532,-0.33255 h -0.0298 q -0.0482,0.078 -0.11009,0.14908 -0.0619,0.0688 -0.14449,0.11926 -0.0803,0.0504 -0.18348,0.0803 -0.10091,0.0298 -0.22935,0.0298 z m 0.25458,-0.55731 q 0.12385,0 0.211,-0.0413 0.0872,-0.0436 0.1399,-0.12844 0.055,-0.0872 0.0803,-0.21559 0.0275,-0.12843 0.0298,-0.30044 v -0.0757 q 0,-0.18577 -0.0229,-0.33026 -0.0229,-0.14449 -0.0757,-0.24081 -0.0527,-0.0986 -0.1422,-0.14908 -0.0894,-0.0505 -0.22476,-0.0505 -0.22017,0 -0.32338,0.19954 -0.1032,0.19723 -0.1032,0.57566 0,0.37842 0.1032,0.56878 0.1055,0.18807 0.32797,0.18807 z"
       id="text46"
       aria-label="Read" /><rect
       style="fill:#516070;fill-opacity:1;stroke:none;stroke-width:0.79375;stroke-opacity:1"
       id="rect47"
       width="17.197912"
       height="4.4979167"
       x="129.36635"
       y="160.09457" /><path
       style="font-size:3.92787px;font-family:'Droid Sans';-inkscape-font-specification:'Droid Sans';text-align:center;text-anchor:middle;fill:#dddde0;stroke-width:0.529167"
       d="m 135.933,162.89198 q 0,0.18603 -0.0671,0.33371 -0.0652,0.14576 -0.18795,0.24741 -0.12275,0.10165 -0.29919,0.15535 -0.17645,0.0518 -0.39701,0.0518 -0.21289,0 -0.39893,-0.0345 -0.18411,-0.0326 -0.30878,-0.0978 v -0.34139 q 0.0652,0.0307 0.14768,0.0614 0.0844,0.0288 0.17645,0.0518 0.0921,0.023 0.18987,0.0384 0.0978,0.0134 0.19371,0.0134 0.30686,0 0.45262,-0.11507 0.14768,-0.11508 0.14768,-0.32988 0,-0.10357 -0.0288,-0.18029 -0.0268,-0.0767 -0.0978,-0.14 -0.069,-0.0652 -0.18604,-0.12467 -0.11699,-0.0614 -0.29535,-0.13233 -0.1707,-0.0671 -0.29728,-0.14576 -0.12466,-0.0806 -0.20713,-0.18029 -0.0805,-0.0997 -0.12083,-0.22631 -0.0384,-0.12658 -0.0384,-0.28768 0,-0.16878 0.0614,-0.30112 0.0614,-0.13233 0.17261,-0.22247 0.11124,-0.0921 0.26467,-0.14001 0.15535,-0.048 0.34138,-0.048 0.22824,0 0.41044,0.0441 0.1822,0.0422 0.32412,0.10933 l -0.1285,0.29919 q -0.12466,-0.0556 -0.28385,-0.0959 -0.15727,-0.0422 -0.32604,-0.0422 -0.23399,0 -0.36249,0.10932 -0.12849,0.1074 -0.12849,0.29152 0,0.10932 0.0288,0.18987 0.0288,0.0786 0.0959,0.14385 0.0671,0.0633 0.17645,0.12082 0.11123,0.0556 0.27234,0.11892 0.17453,0.069 0.30495,0.14192 0.13233,0.0729 0.22055,0.16494 0.0882,0.0921 0.13234,0.21289 0.046,0.12083 0.046,0.28577 z m 1.60764,0.7499 -0.071,-0.29153 h -0.0154 q -0.0633,0.0863 -0.12658,0.1496 -0.0633,0.0614 -0.13809,0.10165 -0.0748,0.0403 -0.16686,0.0595 -0.0921,0.0192 -0.21288,0.0192 -0.13234,0 -0.24358,-0.0384 -0.11124,-0.0364 -0.19371,-0.11316 -0.0805,-0.0786 -0.12658,-0.19563 -0.046,-0.11891 -0.046,-0.28001 0,-0.31454 0.22056,-0.48331 0.22248,-0.16878 0.6751,-0.18412 l 0.3529,-0.0134 v -0.13233 q 0,-0.1285 -0.0288,-0.21481 -0.0269,-0.0863 -0.0806,-0.13809 -0.0518,-0.0537 -0.13042,-0.0767 -0.0767,-0.023 -0.17645,-0.023 -0.15918,0 -0.29727,0.046 -0.13617,0.046 -0.26276,0.11124 l -0.12274,-0.26275 q 0.14192,-0.0767 0.31645,-0.13042 0.17453,-0.0537 0.36632,-0.0537 0.19563,0 0.33755,0.0403 0.14385,0.0384 0.23591,0.12467 0.094,0.0844 0.14,0.21672 0.046,0.13234 0.046,0.32029 v 1.44227 z m -0.64058,-0.24358 q 0.11699,0 0.21672,-0.0364 0.0997,-0.0364 0.17261,-0.10932 0.0729,-0.0748 0.11316,-0.18604 0.0422,-0.11315 0.0422,-0.26467 V 162.612 l -0.27426,0.0134 q -0.17261,0.008 -0.2896,0.0383 -0.11699,0.0307 -0.18796,0.0863 -0.069,0.0537 -0.0997,0.13234 -0.0307,0.0767 -0.0307,0.17453 0,0.17644 0.0921,0.25891 0.094,0.0825 0.24549,0.0825 z m 1.83011,0.24358 -0.71921,-2.10586 h 0.36056 l 0.38167,1.17184 q 0.0211,0.0633 0.0499,0.16302 0.0288,0.0997 0.0575,0.2033 0.0288,0.10356 0.0518,0.19562 0.0249,0.0921 0.0326,0.14001 h 0.0134 q 0.01,-0.0479 0.0326,-0.14001 0.023,-0.0921 0.0518,-0.19562 0.0288,-0.10357 0.0575,-0.2033 0.0288,-0.0997 0.0499,-0.16302 l 0.38167,-1.17184 h 0.36056 l -0.71921,2.10586 z m 2.18802,0.0384 q -0.21097,0 -0.3855,-0.071 -0.17453,-0.071 -0.30111,-0.20713 -0.12466,-0.13617 -0.19371,-0.33755 -0.069,-0.20138 -0.069,-0.4603 0,-0.26084 0.0633,-0.46605 0.0633,-0.20522 0.17837,-0.34714 0.11507,-0.14385 0.27426,-0.21864 0.1611,-0.0748 0.35481,-0.0748 0.18987,0 0.34139,0.069 0.15151,0.0671 0.25699,0.19179 0.10549,0.12275 0.16111,0.29728 0.0575,0.17261 0.0575,0.38358 v 0.21672 h -1.32719 q 0.01,0.37016 0.15535,0.54469 0.14767,0.17453 0.43728,0.17453 0.0978,0 0.18028,-0.01 0.0844,-0.01 0.16111,-0.0268 0.0786,-0.0192 0.15151,-0.046 0.0729,-0.0288 0.14768,-0.0633 v 0.3107 q -0.0767,0.0364 -0.15152,0.0633 -0.0729,0.0268 -0.15151,0.0441 -0.0767,0.0173 -0.1611,0.0249 -0.0825,0.008 -0.18029,0.008 z m -0.0863,-1.89297 q -0.21864,0 -0.34714,0.1496 -0.12659,0.1496 -0.14768,0.43536 h 0.94361 q 0,-0.13041 -0.0268,-0.23782 -0.0249,-0.10932 -0.0806,-0.18603 -0.0537,-0.0767 -0.13809,-0.11891 -0.0844,-0.0422 -0.20329,-0.0422 z"
       id="text40-8"
       aria-label="Save" /><rect
       style="fill:#516070;fill-opacity:1;stroke:none;stroke-width:0.79375;stroke-opacity:1"
       id="rect48"
       width="17.197912"
       height="4.4979167"
       x="161.89191"
       y="160.09457" /><path
       style="font-size:3.92787px;font-family:'Droid Sans';-inkscape-font-specification:'Droid Sans';text-align:center;text-anchor:middle;fill:#dddde0;stroke-width:0.529167"
       d="m 166.9685,162.48346 v 1.15842 h -0.35673 v -2.80398 h 0.68277 q 0.51017,0 0.75374,0.19754 0.24358,0.19755 0.24358,0.59839 0,0.16686 -0.048,0.29152 -0.046,0.12466 -0.12467,0.21481 -0.0767,0.0882 -0.17644,0.14768 -0.0997,0.0594 -0.20522,0.0978 l 0.76333,1.25623 h -0.42002 l -0.67319,-1.15842 z m 0,-0.30303 h 0.31454 q 0.17261,0 0.29344,-0.0326 0.12082,-0.0345 0.19754,-0.0997 0.0786,-0.0671 0.11316,-0.16494 0.0364,-0.0997 0.0364,-0.23207 0,-0.13809 -0.0403,-0.23398 -0.0384,-0.0959 -0.11891,-0.15727 -0.0786,-0.0614 -0.20138,-0.0882 -0.12083,-0.0288 -0.28768,-0.0288 h -0.30687 z m 2.55743,1.4998 q -0.21096,0 -0.38549,-0.071 -0.17453,-0.071 -0.30112,-0.20713 -0.12466,-0.13617 -0.1937,-0.33755 -0.0691,-0.20138 -0.0691,-0.4603 0,-0.26084 0.0633,-0.46605 0.0633,-0.20522 0.17837,-0.34714 0.11507,-0.14385 0.27426,-0.21864 0.1611,-0.0748 0.35481,-0.0748 0.18987,0 0.34139,0.069 0.15151,0.0671 0.257,0.19179 0.10548,0.12275 0.1611,0.29728 0.0575,0.17261 0.0575,0.38358 v 0.21672 h -1.32719 q 0.01,0.37016 0.15535,0.54469 0.14768,0.17453 0.43728,0.17453 0.0978,0 0.18028,-0.01 0.0844,-0.01 0.16111,-0.0268 0.0786,-0.0192 0.15151,-0.046 0.0729,-0.0288 0.14768,-0.0633 v 0.3107 q -0.0767,0.0364 -0.15151,0.0633 -0.0729,0.0268 -0.15152,0.0441 -0.0767,0.0173 -0.1611,0.0249 -0.0825,0.008 -0.18029,0.008 z m -0.0863,-1.89297 q -0.21864,0 -0.34714,0.1496 -0.12658,0.1496 -0.14768,0.43536 h 0.94361 q 0,-0.13041 -0.0268,-0.23782 -0.0249,-0.10932 -0.0805,-0.18603 -0.0537,-0.0767 -0.13809,-0.11891 -0.0844,-0.0422 -0.2033,-0.0422 z m 2.56275,1.57268 h -0.0153 q -0.0422,0.0652 -0.0997,0.12467 -0.0556,0.0575 -0.13042,0.10165 -0.0729,0.0441 -0.16494,0.069 -0.0921,0.0249 -0.20713,0.0249 -0.17837,0 -0.32605,-0.069 -0.14767,-0.069 -0.25316,-0.20522 -0.10548,-0.13809 -0.16302,-0.34138 -0.0575,-0.2033 -0.0575,-0.47181 0,-0.27042 0.0575,-0.47372 0.0575,-0.20522 0.16302,-0.34331 0.10549,-0.13808 0.25316,-0.20713 0.14768,-0.071 0.32605,-0.071 0.11315,0 0.20521,0.0249 0.0921,0.0249 0.16494,0.0671 0.0748,0.0422 0.13234,0.0978 0.0575,0.0556 0.0997,0.11699 h 0.023 q -0.006,-0.0652 -0.0115,-0.12466 -0.004,-0.0499 -0.008,-0.10165 -0.004,-0.0537 -0.004,-0.0844 v -0.8362 h 0.34906 v 2.98426 h -0.28193 z m -0.55044,0.0307 q 0.14577,0 0.2455,-0.0441 0.10165,-0.0441 0.16302,-0.13425 0.0633,-0.0901 0.0921,-0.2244 0.0307,-0.13617 0.0345,-0.31645 v -0.0786 q 0,-0.19371 -0.0268,-0.3433 -0.0249,-0.15152 -0.0882,-0.25317 -0.0614,-0.10356 -0.16494,-0.15535 -0.10357,-0.0537 -0.25892,-0.0537 -0.25892,0 -0.38166,0.20905 -0.12083,0.20906 -0.12083,0.60031 0,0.40084 0.12083,0.59838 0.12274,0.19563 0.38549,0.19563 z m 3.08103,-0.80552 q 0,0.26275 -0.0652,0.46797 -0.0633,0.2033 -0.18412,0.3433 -0.11891,0.13809 -0.2896,0.21097 -0.1707,0.0729 -0.38359,0.0729 -0.19754,0 -0.3644,-0.0729 -0.16686,-0.0729 -0.2896,-0.21097 -0.12083,-0.14 -0.18987,-0.3433 -0.0671,-0.20522 -0.0671,-0.46797 0,-0.26083 0.0633,-0.46221 0.0652,-0.2033 0.18412,-0.34139 0.11891,-0.14001 0.2896,-0.21097 0.17261,-0.0729 0.3855,-0.0729 0.19755,0 0.3644,0.0729 0.16686,0.071 0.28769,0.21097 0.12275,0.13809 0.18987,0.34139 0.0691,0.20138 0.0691,0.46221 z m -1.47295,0 q 0,0.40084 0.13041,0.60414 0.13234,0.20138 0.4277,0.20138 0.29535,0 0.42385,-0.20138 0.13042,-0.2033 0.13042,-0.60414 0,-0.40084 -0.13233,-0.59839 -0.13042,-0.19946 -0.42578,-0.19946 -0.29536,0 -0.42577,0.19946 -0.1285,0.19755 -0.1285,0.59839 z"
       id="text48"
       aria-label="Redo" /><rect
       style="fill:#516070;fill-opacity:1;stroke:none;stroke-width:0.79375;stroke-opacity:1"
       id="rect49"
       width="17.197912"
       height="4.4979167"
       x="194.80743"
       y="160.09457" /><path
       style="font-size:3.92787px;font-family:'Droid Sans';-inkscape-font-specification:'Droid Sans';text-align:center;text-anchor:middle;fill:#dddde0;stroke-width:0.529167"
       d="m 201.27885,160.83406 v 1.81818 q 0,0.21864 -0.0633,0.40659 -0.0633,0.18796 -0.19179,0.32605 -0.12658,0.13809 -0.32029,0.21672 -0.19179,0.0786 -0.45263,0.0786 -0.24549,0 -0.43344,-0.0729 -0.18796,-0.0748 -0.31646,-0.21097 -0.12658,-0.13617 -0.19179,-0.32604 -0.0652,-0.19179 -0.0652,-0.42577 v -1.80667 h 0.35865 v 1.82584 q 0,0.33564 0.16494,0.51976 0.16686,0.18412 0.50249,0.18412 0.1707,0 0.29344,-0.0518 0.12275,-0.0518 0.20138,-0.14576 0.0786,-0.094 0.11699,-0.22439 0.0384,-0.13042 0.0403,-0.28577 V 160.834 Z m 1.7727,2.80782 v -1.35596 q 0,-0.24933 -0.10165,-0.37399 -0.0997,-0.12467 -0.31453,-0.12467 -0.15536,0 -0.26084,0.0499 -0.10548,0.0499 -0.17069,0.14768 -0.0633,0.0978 -0.0921,0.23973 -0.0268,0.14193 -0.0268,0.32605 v 1.09129 h -0.34906 v -2.10586 h 0.28385 l 0.0499,0.28385 h 0.0192 q 0.0479,-0.0825 0.11316,-0.14193 0.0671,-0.0614 0.14576,-0.10165 0.0786,-0.0403 0.16686,-0.0594 0.0882,-0.0192 0.18028,-0.0192 0.35098,0 0.52742,0.18412 0.17837,0.1822 0.17837,0.58496 v 1.37514 z m 2.13229,-0.28194 h -0.0154 q -0.0422,0.0652 -0.0997,0.12467 -0.0556,0.0575 -0.13042,0.10165 -0.0729,0.0441 -0.16494,0.069 -0.0921,0.0249 -0.20713,0.0249 -0.17836,0 -0.32604,-0.069 -0.14768,-0.069 -0.25317,-0.20522 -0.10548,-0.13809 -0.16302,-0.34138 -0.0575,-0.2033 -0.0575,-0.47181 0,-0.27042 0.0575,-0.47372 0.0575,-0.20522 0.16302,-0.34331 0.10549,-0.13808 0.25317,-0.20713 0.14768,-0.071 0.32604,-0.071 0.11316,0 0.20522,0.0249 0.0921,0.0249 0.16494,0.0671 0.0748,0.0422 0.13233,0.0978 0.0575,0.0556 0.0997,0.11699 h 0.023 q -0.006,-0.0652 -0.0115,-0.12466 -0.004,-0.0499 -0.008,-0.10165 -0.004,-0.0537 -0.004,-0.0844 v -0.8362 h 0.34906 v 2.98426 h -0.28193 z m -0.55044,0.0307 q 0.14576,0 0.24549,-0.0441 0.10165,-0.0441 0.16302,-0.13425 0.0633,-0.0901 0.0921,-0.2244 0.0307,-0.13617 0.0345,-0.31645 v -0.0786 q 0,-0.19371 -0.0268,-0.3433 -0.0249,-0.15152 -0.0882,-0.25317 -0.0614,-0.10356 -0.16494,-0.15535 -0.10357,-0.0537 -0.25892,-0.0537 -0.25892,0 -0.38166,0.20905 -0.12083,0.20906 -0.12083,0.60031 0,0.40084 0.12083,0.59838 0.12274,0.19563 0.3855,0.19563 z m 3.06967,-0.80552 q 0,0.26275 -0.0652,0.46797 -0.0633,0.2033 -0.18412,0.3433 -0.11891,0.13809 -0.2896,0.21097 -0.17069,0.0729 -0.38358,0.0729 -0.19755,0 -0.3644,-0.0729 -0.16686,-0.0729 -0.28961,-0.21097 -0.12083,-0.14 -0.18987,-0.3433 -0.0671,-0.20522 -0.0671,-0.46797 0,-0.26083 0.0633,-0.46221 0.0652,-0.2033 0.18412,-0.34139 0.11891,-0.14001 0.28961,-0.21097 0.17261,-0.0729 0.3855,-0.0729 0.19754,0 0.3644,0.0729 0.16686,0.071 0.28768,0.21097 0.12275,0.13809 0.18988,0.34139 0.069,0.20138 0.069,0.46221 z m -1.47295,0 q 0,0.40084 0.13042,0.60414 0.13233,0.20138 0.42769,0.20138 0.29536,0 0.42386,-0.20138 0.13041,-0.2033 0.13041,-0.60414 0,-0.40084 -0.13233,-0.59839 -0.13042,-0.19946 -0.42578,-0.19946 -0.29535,0 -0.42577,0.19946 -0.1285,0.19755 -0.1285,0.59839 z"
       id="text49"
       aria-label="Undo" /><rect
       style="fill:#516070;fill-opacity:1;stroke:none;stroke-width:0.79375;stroke-opacity:1"
       id="rect50"
       width="17.197912"
       height="4.4979167"
       x="129.26852"
       y="184.7693" /><path
       style="font-size:3.92787px;font-family:'Droid Sans';-inkscape-font-specification:'Droid Sans';text-align:center;text-anchor:middle;fill:#dddde0;stroke-width:0.529167"
       d="m 134.94477,185.50881 v 1.81817 q 0,0.21864 -0.0633,0.4066 -0.0633,0.18795 -0.19179,0.32604 -0.12658,0.13809 -0.32029,0.21672 -0.19179,0.0786 -0.45262,0.0786 -0.2455,0 -0.43345,-0.0729 -0.18796,-0.0748 -0.31645,-0.21097 -0.12659,-0.13617 -0.1918,-0.32605 -0.0652,-0.19179 -0.0652,-0.42577 v -1.80667 h 0.35864 v 1.82585 q 0,0.33563 0.16494,0.51975 0.16686,0.18412 0.5025,0.18412 0.17069,0 0.29343,-0.0518 0.12275,-0.0518 0.20138,-0.14576 0.0786,-0.094 0.117,-0.2244 0.0383,-0.13042 0.0403,-0.28577 v -1.82584 z m 1.76151,2.23052 q 0,0.15343 -0.0556,0.26851 -0.0556,0.11507 -0.16111,0.19371 -0.10356,0.0767 -0.25124,0.11507 -0.14768,0.0384 -0.3318,0.0384 -0.20905,0 -0.35865,-0.0345 -0.1496,-0.0326 -0.26275,-0.0978 v -0.31837 q 0.0594,0.0307 0.13233,0.0614 0.0729,0.0288 0.15344,0.0518 0.0806,0.023 0.16494,0.0384 0.0863,0.0134 0.17069,0.0134 0.12466,0 0.21097,-0.0211 0.0882,-0.0211 0.14192,-0.0594 0.0556,-0.0403 0.0806,-0.0959 0.0249,-0.0575 0.0249,-0.12658 0,-0.0594 -0.0192,-0.1074 -0.0192,-0.048 -0.071,-0.094 -0.0499,-0.0479 -0.13809,-0.0959 -0.0882,-0.0479 -0.22631,-0.10741 -0.13809,-0.0594 -0.24933,-0.11699 -0.10932,-0.0575 -0.18604,-0.1285 -0.0767,-0.071 -0.11891,-0.16302 -0.0403,-0.094 -0.0403,-0.22248 0,-0.13425 0.0518,-0.23782 0.0537,-0.10548 0.14959,-0.17645 0.0959,-0.071 0.23015,-0.1074 0.13426,-0.0364 0.2992,-0.0364 0.18603,0 0.33947,0.0403 0.15535,0.0403 0.29344,0.10548 l -0.12083,0.28193 q -0.12467,-0.0556 -0.257,-0.0959 -0.13042,-0.0422 -0.26659,-0.0422 -0.19563,0 -0.2896,0.0652 -0.094,0.0633 -0.094,0.18221 0,0.0671 0.0211,0.11699 0.023,0.0499 0.0767,0.094 0.0537,0.0441 0.14384,0.0901 0.0901,0.0441 0.2244,0.0997 0.13809,0.0575 0.24549,0.11507 0.10932,0.0575 0.18604,0.13042 0.0767,0.071 0.11699,0.16302 0.0403,0.0921 0.0403,0.22056 z m 1.15736,0.61565 q -0.21097,0 -0.3855,-0.071 -0.17453,-0.071 -0.30111,-0.20714 -0.12466,-0.13617 -0.19371,-0.33755 -0.069,-0.20138 -0.069,-0.4603 0,-0.26083 0.0633,-0.46605 0.0633,-0.20521 0.17836,-0.34714 0.11508,-0.14384 0.27426,-0.21864 0.16111,-0.0748 0.35482,-0.0748 0.18987,0 0.34138,0.069 0.15152,0.0671 0.257,0.19179 0.10549,0.12274 0.16111,0.29727 0.0575,0.17261 0.0575,0.38358 v 0.21673 h -1.32719 q 0.01,0.37015 0.15535,0.54468 0.14768,0.17453 0.43728,0.17453 0.0978,0 0.18029,-0.01 0.0844,-0.01 0.1611,-0.0268 0.0786,-0.0192 0.15152,-0.046 0.0729,-0.0288 0.14768,-0.0633 v 0.3107 q -0.0767,0.0364 -0.15152,0.0633 -0.0729,0.0269 -0.15151,0.0441 -0.0767,0.0173 -0.16111,0.0249 -0.0825,0.008 -0.18028,0.008 z m -0.0863,-1.89297 q -0.21864,0 -0.34714,0.14959 -0.12658,0.1496 -0.14768,0.43537 h 0.94361 q 0,-0.13042 -0.0268,-0.23782 -0.0249,-0.10932 -0.0806,-0.18604 -0.0537,-0.0767 -0.13809,-0.11891 -0.0844,-0.0422 -0.2033,-0.0422 z m 2.07988,-0.28961 q 0.0556,0 0.12466,0.006 0.0691,0.004 0.11891,0.0134 l -0.046,0.32221 q -0.0537,-0.01 -0.11124,-0.0153 -0.0556,-0.008 -0.10548,-0.008 -0.12083,0 -0.22056,0.0499 -0.0997,0.048 -0.17261,0.14001 -0.071,0.0901 -0.11124,0.21864 -0.0384,0.12658 -0.0384,0.28193 v 1.1354 h -0.34906 v -2.10586 h 0.28385 l 0.0422,0.3855 h 0.0153 q 0.048,-0.0825 0.10165,-0.15919 0.0556,-0.0767 0.12275,-0.13425 0.069,-0.0595 0.15343,-0.094 0.0844,-0.0364 0.19179,-0.0364 z m 2.51908,2.14422 h -0.33756 v -1.75105 q 0,-0.0825 0,-0.17644 0.002,-0.094 0.004,-0.18604 0.004,-0.094 0.006,-0.17837 0.004,-0.0863 0.006,-0.15151 -0.0326,0.0345 -0.0575,0.0594 -0.0249,0.0249 -0.0518,0.048 -0.0249,0.023 -0.0537,0.0499 -0.0288,0.0249 -0.069,0.0594 l -0.28385,0.23207 -0.18412,-0.2359 0.73456,-0.57346 h 0.28769 z"
       id="text50"
       aria-label="User 1" /><rect
       style="fill:#516070;fill-opacity:1;stroke:none;stroke-width:0.79375;stroke-opacity:1"
       id="rect51"
       width="17.197912"
       height="4.4979167"
       x="161.82318"
       y="184.7693" /><path
       style="font-size:3.92787px;font-family:'Droid Sans';-inkscape-font-specification:'Droid Sans';text-align:center;text-anchor:middle;fill:#dddde0;stroke-width:0.529167"
       d="m 167.40589,185.50881 v 1.81817 q 0,0.21864 -0.0633,0.4066 -0.0633,0.18795 -0.19179,0.32604 -0.12658,0.13809 -0.32029,0.21672 -0.19179,0.0786 -0.45262,0.0786 -0.24549,0 -0.43345,-0.0729 -0.18795,-0.0748 -0.31645,-0.21097 -0.12658,-0.13617 -0.19179,-0.32605 -0.0652,-0.19179 -0.0652,-0.42577 v -1.80667 h 0.35865 v 1.82585 q 0,0.33563 0.16494,0.51975 0.16685,0.18412 0.50249,0.18412 0.17069,0 0.29344,-0.0518 0.12274,-0.0518 0.20138,-0.14576 0.0786,-0.094 0.11699,-0.2244 0.0384,-0.13042 0.0403,-0.28577 v -1.82584 z m 1.7615,2.23052 q 0,0.15343 -0.0556,0.26851 -0.0556,0.11507 -0.1611,0.19371 -0.10357,0.0767 -0.25125,0.11507 -0.14768,0.0384 -0.3318,0.0384 -0.20905,0 -0.35865,-0.0345 -0.14959,-0.0326 -0.26275,-0.0978 v -0.31837 q 0.0595,0.0307 0.13234,0.0614 0.0729,0.0288 0.15343,0.0518 0.0805,0.023 0.16494,0.0384 0.0863,0.0134 0.17069,0.0134 0.12467,0 0.21097,-0.0211 0.0882,-0.0211 0.14193,-0.0594 0.0556,-0.0403 0.0806,-0.0959 0.0249,-0.0575 0.0249,-0.12658 0,-0.0594 -0.0192,-0.1074 -0.0192,-0.048 -0.071,-0.094 -0.0499,-0.0479 -0.13809,-0.0959 -0.0882,-0.0479 -0.22631,-0.10741 -0.13809,-0.0594 -0.24933,-0.11699 -0.10932,-0.0575 -0.18604,-0.1285 -0.0767,-0.071 -0.11891,-0.16302 -0.0403,-0.094 -0.0403,-0.22248 0,-0.13425 0.0518,-0.23782 0.0537,-0.10548 0.1496,-0.17645 0.0959,-0.071 0.23015,-0.1074 0.13425,-0.0364 0.29919,-0.0364 0.18604,0 0.33947,0.0403 0.15535,0.0403 0.29344,0.10548 l -0.12083,0.28193 q -0.12466,-0.0556 -0.257,-0.0959 -0.13042,-0.0422 -0.26659,-0.0422 -0.19562,0 -0.2896,0.0652 -0.094,0.0633 -0.094,0.18221 0,0.0671 0.0211,0.11699 0.023,0.0499 0.0767,0.094 0.0537,0.0441 0.14385,0.0901 0.0901,0.0441 0.22439,0.0997 0.13809,0.0575 0.24549,0.11507 0.10932,0.0575 0.18604,0.13042 0.0767,0.071 0.11699,0.16302 0.0403,0.0921 0.0403,0.22056 z m 1.15736,0.61565 q -0.21097,0 -0.3855,-0.071 -0.17453,-0.071 -0.30111,-0.20714 -0.12466,-0.13617 -0.19371,-0.33755 -0.069,-0.20138 -0.069,-0.4603 0,-0.26083 0.0633,-0.46605 0.0633,-0.20521 0.17836,-0.34714 0.11508,-0.14384 0.27427,-0.21864 0.1611,-0.0748 0.35481,-0.0748 0.18987,0 0.34138,0.069 0.15152,0.0671 0.257,0.19179 0.10549,0.12274 0.16111,0.29727 0.0575,0.17261 0.0575,0.38358 v 0.21673 h -1.3272 q 0.01,0.37015 0.15536,0.54468 0.14767,0.17453 0.43728,0.17453 0.0978,0 0.18028,-0.01 0.0844,-0.01 0.1611,-0.0268 0.0786,-0.0192 0.15152,-0.046 0.0729,-0.0288 0.14768,-0.0633 v 0.3107 q -0.0767,0.0364 -0.15152,0.0633 -0.0729,0.0269 -0.15151,0.0441 -0.0767,0.0173 -0.16111,0.0249 -0.0825,0.008 -0.18028,0.008 z m -0.0863,-1.89297 q -0.21865,0 -0.34714,0.14959 -0.12659,0.1496 -0.14768,0.43537 h 0.94361 q 0,-0.13042 -0.0268,-0.23782 -0.0249,-0.10932 -0.0806,-0.18604 -0.0537,-0.0767 -0.13809,-0.11891 -0.0844,-0.0422 -0.20329,-0.0422 z m 2.12664,-0.28961 q 0.0556,0 0.12467,0.006 0.069,0.004 0.11891,0.0134 l -0.046,0.32221 q -0.0537,-0.01 -0.11124,-0.0153 -0.0556,-0.008 -0.10549,-0.008 -0.12082,0 -0.22055,0.0499 -0.0997,0.048 -0.17262,0.14001 -0.071,0.0901 -0.11123,0.21864 -0.0384,0.12658 -0.0384,0.28193 v 1.1354 h -0.34906 v -2.10586 h 0.28385 l 0.0422,0.3855 h 0.0153 q 0.0479,-0.0825 0.10164,-0.15919 0.0556,-0.0767 0.12275,-0.13425 0.0691,-0.0595 0.15343,-0.094 0.0844,-0.0364 0.19179,-0.0364 z m 3.22901,2.14422 h -1.74913 v -0.29919 l 0.67127,-0.73073 q 0.14384,-0.15535 0.257,-0.28385 0.11316,-0.12849 0.19179,-0.25124 0.0805,-0.12275 0.12275,-0.24549 0.0422,-0.12467 0.0422,-0.27043 0,-0.11315 -0.0326,-0.19946 -0.0326,-0.0863 -0.094,-0.14576 -0.0595,-0.0614 -0.14193,-0.0921 -0.0825,-0.0307 -0.18412,-0.0307 -0.1822,0 -0.32987,0.0748 -0.14577,0.0729 -0.2781,0.18796 l -0.19563,-0.22823 q 0.0767,-0.069 0.16494,-0.1285 0.0882,-0.0614 0.18987,-0.10549 0.10165,-0.0441 0.21481,-0.069 0.11316,-0.0268 0.23782,-0.0268 0.18412,0 0.3318,0.0518 0.14959,0.0518 0.25316,0.1496 0.10357,0.0959 0.15919,0.2359 0.0575,0.13809 0.0575,0.31262 0,0.16302 -0.0518,0.3107 -0.0499,0.14768 -0.14001,0.29152 -0.0882,0.14192 -0.21288,0.28577 -0.12275,0.14384 -0.26659,0.29919 l -0.53893,0.57345 v 0.0154 h 1.32143 z"
       id="text51"
       aria-label="User 2" /><rect
       style="fill:#516070;fill-opacity:1;stroke:none;stroke-width:0.79375;stroke-opacity:1"
       id="rect52"
       width="17.197912"
       height="4.4979167"
       x="194.7186"
       y="184.7693" /><path
       style="font-size:3.92787px;font-family:'Droid Sans';-inkscape-font-specification:'Droid Sans';text-align:center;text-anchor:middle;fill:#dddde0;stroke-width:0.529167"
       d="m 200.26872,185.50881 v 1.81817 q 0,0.21864 -0.0633,0.4066 -0.0633,0.18795 -0.1918,0.32604 -0.12658,0.13809 -0.32029,0.21672 -0.19179,0.0786 -0.45262,0.0786 -0.24549,0 -0.43345,-0.0729 -0.18795,-0.0748 -0.31645,-0.21097 -0.12658,-0.13617 -0.19179,-0.32605 -0.0652,-0.19179 -0.0652,-0.42577 v -1.80667 h 0.35865 v 1.82585 q 0,0.33563 0.16494,0.51975 0.16685,0.18412 0.50249,0.18412 0.17069,0 0.29344,-0.0518 0.12274,-0.0518 0.20138,-0.14576 0.0786,-0.094 0.11699,-0.2244 0.0384,-0.13042 0.0403,-0.28577 v -1.82584 z m 1.78322,2.23052 q 0,0.15343 -0.0556,0.26851 -0.0556,0.11507 -0.1611,0.19371 -0.10357,0.0767 -0.25125,0.11507 -0.14767,0.0384 -0.33179,0.0384 -0.20906,0 -0.35865,-0.0345 -0.1496,-0.0326 -0.26275,-0.0978 v -0.31837 q 0.0595,0.0307 0.13233,0.0614 0.0729,0.0288 0.15343,0.0518 0.0806,0.023 0.16494,0.0384 0.0863,0.0134 0.1707,0.0134 0.12466,0 0.21097,-0.0211 0.0882,-0.0211 0.14192,-0.0594 0.0556,-0.0403 0.0805,-0.0959 0.0249,-0.0575 0.0249,-0.12658 0,-0.0594 -0.0192,-0.1074 -0.0192,-0.048 -0.071,-0.094 -0.0499,-0.0479 -0.13808,-0.0959 -0.0882,-0.0479 -0.22632,-0.10741 -0.13809,-0.0594 -0.24933,-0.11699 -0.10932,-0.0575 -0.18603,-0.1285 -0.0767,-0.071 -0.11891,-0.16302 -0.0403,-0.094 -0.0403,-0.22248 0,-0.13425 0.0518,-0.23782 0.0537,-0.10548 0.14959,-0.17645 0.0959,-0.071 0.23015,-0.1074 0.13425,-0.0364 0.29919,-0.0364 0.18604,0 0.33947,0.0403 0.15535,0.0403 0.29344,0.10548 l -0.12083,0.28193 q -0.12466,-0.0556 -0.25699,-0.0959 -0.13042,-0.0422 -0.26659,-0.0422 -0.19563,0 -0.28961,0.0652 -0.094,0.0633 -0.094,0.18221 0,0.0671 0.0211,0.11699 0.023,0.0499 0.0767,0.094 0.0537,0.0441 0.14384,0.0901 0.0901,0.0441 0.2244,0.0997 0.13809,0.0575 0.24549,0.11507 0.10932,0.0575 0.18603,0.13042 0.0767,0.071 0.117,0.16302 0.0403,0.0921 0.0403,0.22056 z m 1.21216,0.61565 q -0.21097,0 -0.3855,-0.071 -0.17453,-0.071 -0.30111,-0.20714 -0.12466,-0.13617 -0.19371,-0.33755 -0.069,-0.20138 -0.069,-0.4603 0,-0.26083 0.0633,-0.46605 0.0633,-0.20521 0.17837,-0.34714 0.11507,-0.14384 0.27426,-0.21864 0.1611,-0.0748 0.35481,-0.0748 0.18987,0 0.34139,0.069 0.15151,0.0671 0.257,0.19179 0.10548,0.12274 0.1611,0.29727 0.0575,0.17261 0.0575,0.38358 v 0.21673 h -1.32719 q 0.01,0.37015 0.15535,0.54468 0.14767,0.17453 0.43728,0.17453 0.0978,0 0.18028,-0.01 0.0844,-0.01 0.16111,-0.0268 0.0786,-0.0192 0.15151,-0.046 0.0729,-0.0288 0.14768,-0.0633 v 0.3107 q -0.0767,0.0364 -0.15152,0.0633 -0.0729,0.0269 -0.15151,0.0441 -0.0767,0.0173 -0.1611,0.0249 -0.0825,0.008 -0.18029,0.008 z m -0.0863,-1.89297 q -0.21864,0 -0.34714,0.14959 -0.12659,0.1496 -0.14768,0.43537 h 0.94361 q 0,-0.13042 -0.0268,-0.23782 -0.0249,-0.10932 -0.0806,-0.18604 -0.0537,-0.0767 -0.13808,-0.11891 -0.0844,-0.0422 -0.2033,-0.0422 z m 2.13467,-0.28961 q 0.0556,0 0.12466,0.006 0.0691,0.004 0.11891,0.0134 l -0.046,0.32221 q -0.0537,-0.01 -0.11123,-0.0153 -0.0556,-0.008 -0.10549,-0.008 -0.12083,0 -0.22056,0.0499 -0.0997,0.048 -0.17261,0.14001 -0.071,0.0901 -0.11124,0.21864 -0.0384,0.12658 -0.0384,0.28193 v 1.1354 h -0.34906 v -2.10586 h 0.28385 l 0.0422,0.3855 h 0.0153 q 0.0479,-0.0825 0.10165,-0.15919 0.0556,-0.0767 0.12275,-0.13425 0.069,-0.0595 0.15343,-0.094 0.0844,-0.0364 0.19179,-0.0364 z m 3.11949,-0.004 q 0,0.14 -0.0441,0.25508 -0.0441,0.11507 -0.12466,0.19946 -0.0786,0.0844 -0.18987,0.14001 -0.11124,0.0537 -0.24741,0.0767 v 0.0115 q 0.33947,0.0422 0.51591,0.21672 0.17645,0.17262 0.17645,0.45071 0,0.18412 -0.0633,0.33755 -0.0614,0.15344 -0.18796,0.26467 -0.12658,0.11124 -0.32029,0.17262 -0.1937,0.0614 -0.45838,0.0614 -0.20905,0 -0.39508,-0.0326 -0.18412,-0.0326 -0.34714,-0.11891 v -0.32604 q 0.16685,0.0882 0.36056,0.13617 0.19563,0.048 0.37399,0.048 0.17645,0 0.30495,-0.0384 0.1285,-0.0384 0.21097,-0.10932 0.0844,-0.071 0.12275,-0.17453 0.0403,-0.10357 0.0403,-0.23207 0,-0.13041 -0.0518,-0.22247 -0.0499,-0.094 -0.14384,-0.15344 -0.094,-0.0614 -0.23015,-0.0901 -0.13426,-0.0288 -0.30495,-0.0288 h -0.25508 v -0.2896 h 0.25508 q 0.15535,0 0.27618,-0.0384 0.12083,-0.0384 0.20138,-0.10932 0.0825,-0.071 0.12466,-0.16877 0.0422,-0.0978 0.0422,-0.21481 0,-0.0997 -0.0345,-0.17836 -0.0345,-0.0786 -0.0978,-0.13234 -0.0633,-0.0556 -0.15151,-0.0844 -0.0882,-0.0288 -0.19563,-0.0288 -0.20522,0 -0.36248,0.0652 -0.15535,0.0633 -0.29728,0.16686 l -0.17645,-0.23974 q 0.0729,-0.0594 0.16111,-0.11124 0.0901,-0.0518 0.19562,-0.0901 0.10549,-0.0403 0.2244,-0.0633 0.12083,-0.023 0.25508,-0.023 0.20713,0 0.36248,0.0518 0.15727,0.0518 0.26276,0.14576 0.10548,0.0921 0.15918,0.22056 0.0537,0.12658 0.0537,0.2781 z"
       id="text52"
       aria-label="User 3" /><circle
       style="fill:#f43917;fill-opacity:1;stroke:#ffffff;stroke-width:0.529167;stroke-opacity:1;-inkscape-stroke:none"
       id="circle10-6"
       cx="149.27872"
       cy="147.18073"
       r="3.5005553" /><text
       xml:space="preserve"
       style="font-weight:bold;font-size:4.30526px;font-family:'Alegreya Sans';-inkscape-font-specification:'Alegreya Sans Bold';text-align:start;writing-mode:lr-tb;direction:ltr;text-anchor:start;fill:#ffffff;fill-opacity:1;stroke:none;stroke-width:2.11667;stroke-opacity:1;-inkscape-stroke:none"
       x="134.19969"
       y="163.55461"
       id="text10-1"
       transform="scale(1.1010968,0.90818536)"><tspan
         sodipodi:role="line"
         id="tspan10-5"
         style="font-style:normal;font-variant:normal;font-weight:bold;font-stretch:normal;font-family:'Droid Sans';-inkscape-font-specification:'Droid Sans Bold';fill:#ffffff;fill-opacity:1;stroke:none;stroke-width:2.11667"
         x="134.19969"
         y="163.55461">1</tspan></text><circle
       style="fill:#f43917;fill-opacity:1;stroke:#ffffff;stroke-width:0.529167;stroke-opacity:1;-inkscape-stroke:none"
       id="circle2-8-5"
       cx="182.11174"
       cy="147.18073"
       r="3.5005553" /><path
       style="font-weight:bold;font-size:4.30526px;font-family:'Droid Sans';-inkscape-font-specification:'Droid Sans Bold';fill:#ffffff;stroke-width:2.11667"
       d="m 166.42654,163.61899 h -2.06224 v -0.45197 l 0.72315,-0.77991 q 0.13664,-0.14715 0.24806,-0.27118 0.11142,-0.12403 0.1913,-0.24175 0.0799,-0.11772 0.12403,-0.23965 0.0441,-0.12192 0.0441,-0.26277 0,-0.15556 -0.0946,-0.24175 -0.0925,-0.0862 -0.25015,-0.0862 -0.16608,0 -0.31954,0.082 -0.15345,0.082 -0.32163,0.23334 l -0.35317,-0.41834 q 0.0946,-0.0862 0.19761,-0.16397 0.10301,-0.0799 0.22703,-0.14084 0.12403,-0.061 0.27329,-0.0967 0.14925,-0.0378 0.33424,-0.0378 0.22073,0 0.39521,0.061 0.17659,0.061 0.30062,0.17448 0.12402,0.11142 0.18919,0.27118 0.0673,0.15977 0.0673,0.35948 0,0.18078 -0.0631,0.34685 -0.0631,0.16397 -0.17238,0.32374 -0.10932,0.15766 -0.25437,0.31533 -0.14294,0.15556 -0.30691,0.31743 l -0.36999,0.37208 v 0.0294 h 1.2529 z"
       id="text2-9-4"
       transform="scale(1.1010968,0.90818536)"
       aria-label="2" /><circle
       style="fill:#f43917;fill-opacity:1;stroke:#ffffff;stroke-width:0.529167;stroke-opacity:1;-inkscape-stroke:none"
       id="circle3-2-6"
       cx="214.80678"
       cy="147.18073"
       r="3.5005553" /><path
       style="font-weight:bold;font-size:4.30526px;font-family:'Droid Sans';-inkscape-font-specification:'Droid Sans Bold';fill:#ffffff;stroke-width:2.11667"
       d="m 196.03665,161.16862 q 0,0.15977 -0.0525,0.288 -0.0505,0.12613 -0.14085,0.22283 -0.0883,0.0946 -0.21022,0.15977 -0.11982,0.0631 -0.26067,0.0967 v 0.0126 q 0.37209,0.0462 0.56339,0.22704 0.19129,0.17868 0.19129,0.4835 0,0.20181 -0.0736,0.37419 -0.0715,0.17027 -0.22283,0.2964 -0.14926,0.12613 -0.37839,0.19761 -0.22704,0.0694 -0.53606,0.0694 -0.24806,0 -0.46668,-0.042 -0.21863,-0.04 -0.40783,-0.12403 v -0.55288 q 0.0946,0.0505 0.19971,0.0883 0.10511,0.0378 0.21022,0.0652 0.10511,0.0252 0.20601,0.0378 0.10301,0.0126 0.1934,0.0126 0.18079,0 0.30061,-0.0336 0.11983,-0.0336 0.1913,-0.0946 0.0715,-0.061 0.10091,-0.14505 0.0315,-0.0862 0.0315,-0.18709 0,-0.0946 -0.0399,-0.17028 -0.0378,-0.0778 -0.12613,-0.13033 -0.0862,-0.0547 -0.22704,-0.0841 -0.14084,-0.0294 -0.34686,-0.0294 h -0.21862 v -0.45617 h 0.21442 q 0.1934,0 0.32163,-0.0336 0.12823,-0.0357 0.20391,-0.0946 0.0778,-0.061 0.10932,-0.14084 0.0315,-0.0799 0.0315,-0.17028 0,-0.16397 -0.10301,-0.25646 -0.1009,-0.0925 -0.32163,-0.0925 -0.10091,0 -0.1892,0.021 -0.0862,0.0189 -0.16187,0.0504 -0.0736,0.0294 -0.13664,0.0673 -0.061,0.0357 -0.11141,0.0715 l -0.32794,-0.43305 q 0.0883,-0.0652 0.1913,-0.11982 0.10511,-0.0547 0.22703,-0.0946 0.12193,-0.0421 0.26277,-0.0652 0.14085,-0.0231 0.30062,-0.0231 0.22703,0 0.41202,0.0504 0.1871,0.0483 0.31953,0.14295 0.13244,0.0925 0.20391,0.22913 0.0736,0.13454 0.0736,0.30902 z"
       id="text3-9-5"
       transform="scale(1.1010968,0.90818536)"
       aria-label="3" /><circle
       style="fill:#f43917;fill-opacity:1;stroke:#ffffff;stroke-width:0.529167;stroke-opacity:1;-inkscape-stroke:none"
       id="circle16-9"
       cx="214.80678"
       cy="171.94409"
       r="3.5005553" /><path
       style="font-weight:bold;font-size:4.30526px;font-family:'Droid Sans';-inkscape-font-specification:'Droid Sans Bold';fill:#ffffff;stroke-width:2.11667"
       d="m 195.97097,190.18451 h -0.36998 v 0.63696 h -0.63276 v -0.63696 h -1.26971 v -0.45197 l 1.30545,-1.98445 h 0.59702 v 1.9319 h 0.36998 z m -1.00274,-0.50452 v -0.52134 q 0,-0.0273 0,-0.0778 0.002,-0.0526 0.004,-0.11772 0.002,-0.0652 0.004,-0.13454 0.004,-0.0694 0.006,-0.13244 0.004,-0.0631 0.006,-0.10931 0.004,-0.0483 0.006,-0.0694 h -0.0189 q -0.0378,0.0883 -0.0862,0.18709 -0.0462,0.0988 -0.10721,0.1976 l -0.51293,0.77781 z"
       id="text16-3"
       transform="scale(1.1010968,0.90818536)"
       aria-label="4" /><circle
       style="fill:#f43917;fill-opacity:1;stroke:#ffffff;stroke-width:0.529167;stroke-opacity:1;-inkscape-stroke:none"
       id="circle17-4"
       cx="182.11172"
       cy="171.96344"
       r="3.5005553" /><path
       style="font-weight:bold;font-size:4.30526px;font-family:'Droid Sans';-inkscape-font-specification:'Droid Sans Bold';fill:#ffffff;stroke-width:2.11667"
       d="m 165.46268,188.87932 q 0.19761,0 0.36789,0.061 0.17027,0.061 0.2964,0.17868 0.12613,0.11772 0.19761,0.29431 0.0715,0.17448 0.0715,0.40151 0,0.25016 -0.0778,0.44987 -0.0778,0.1976 -0.22914,0.33635 -0.15135,0.13664 -0.37629,0.21022 -0.22283,0.0736 -0.51293,0.0736 -0.11562,0 -0.22914,-0.0105 -0.11351,-0.0105 -0.21862,-0.0315 -0.10301,-0.0189 -0.19761,-0.0505 -0.0925,-0.0315 -0.16817,-0.0736 v -0.56128 q 0.0736,0.042 0.17028,0.0799 0.0967,0.0357 0.1997,0.0631 0.10511,0.0252 0.21022,0.042 0.10511,0.0147 0.19971,0.0147 0.28169,0 0.42884,-0.11562 0.14715,-0.11773 0.14715,-0.37209 0,-0.22704 -0.14505,-0.34476 -0.14294,-0.11982 -0.44356,-0.11982 -0.0547,0 -0.11772,0.006 -0.061,0.006 -0.12192,0.0168 -0.0589,0.0105 -0.11352,0.0231 -0.0547,0.0105 -0.0946,0.0231 l -0.25857,-0.13874 0.11562,-1.56613 h 1.62288 v 0.55077 h -1.05949 l -0.0505,0.60333 q 0.0673,-0.0147 0.15556,-0.0294 0.0904,-0.0147 0.23124,-0.0147 z"
       id="text17-5"
       transform="scale(1.1010968,0.90818536)"
       aria-label="5" /><circle
       style="fill:#f43917;fill-opacity:1;stroke:#ffffff;stroke-width:0.529167;stroke-opacity:1;-inkscape-stroke:none"
       id="circle18-5"
       cx="149.27872"
       cy="171.94409"
       r="3.5005553" /><text
       xml:space="preserve"
       style="font-weight:bold;font-size:4.30526px;font-family:'Alegreya Sans';-inkscape-font-specification:'Alegreya Sans Bold';text-align:start;writing-mode:lr-tb;direction:ltr;text-anchor:start;fill:#ffffff;fill-opacity:1;stroke:none;stroke-width:2.11667;stroke-opacity:1;-inkscape-stroke:none"
       x="134.17842"
       y="190.82144"
       id="text18-4"
       transform="scale(1.1010968,0.90818536)"><tspan
         sodipodi:role="line"
         id="tspan18-7"
         style="font-style:normal;font-variant:normal;font-weight:bold;font-stretch:normal;font-family:'Droid Sans';-inkscape-font-specification:'Droid Sans Bold';fill:#ffffff;fill-opacity:1;stroke:none;stroke-width:2.11667"
         x="134.17842"
         y="190.82144">6</tspan></text></g></svg>
